<svg id="Capa_1" data-name="Capa 1" xmlns="http://www.w3.org/2000/svg" xmlns:xlink="http://www.w3.org/1999/xlink" viewBox="0 0 993.28 993.18"><defs><style>.cls-1{fill:#d8543c;}.cls-2{fill:#fff;}.cls-3{fill:#cc1719;}.cls-4{font-size:18px;fill:#1e1e1c;font-family:BarlowSemiCondensed-SemiBold, Barlow Semi Condensed;font-weight:600;}.cls-5{letter-spacing:0em;}.cls-6{letter-spacing:0em;}.cls-38,.cls-7{font-family:BarlowSemiCondensed-Light, Barlow Semi Condensed;}.cls-26,.cls-38,.cls-7{font-weight:300;}.cls-8{letter-spacing:0em;}.cls-9{letter-spacing:-0.01em;}.cls-10{letter-spacing:-0.01em;}.cls-11{letter-spacing:-0.02em;}.cls-12{letter-spacing:-0.02em;}.cls-13{letter-spacing:0em;}.cls-14{letter-spacing:0em;}.cls-15{letter-spacing:0em;}.cls-16{letter-spacing:0em;}.cls-17{letter-spacing:0em;}.cls-18{letter-spacing:0em;}.cls-19{letter-spacing:-0.02em;}.cls-20{letter-spacing:-0.01em;}.cls-21{letter-spacing:0em;}.cls-22{letter-spacing:-0.01em;}.cls-23{letter-spacing:0.01em;}.cls-24{letter-spacing:-0.02em;}.cls-25{letter-spacing:0em;}.cls-26{font-family:BellGothicStd-Light, Bell Gothic Std;}.cls-27{letter-spacing:0.01em;}.cls-28{letter-spacing:-0.04em;}.cls-29{letter-spacing:-0.08em;}.cls-30{letter-spacing:-0.03em;}.cls-31{letter-spacing:-0.02em;}.cls-32{letter-spacing:-0.01em;}.cls-33{letter-spacing:-0.03em;}.cls-34{letter-spacing:0em;}.cls-35{letter-spacing:-0.02em;}.cls-36{letter-spacing:-0.01em;}.cls-37{letter-spacing:-0.01em;}.cls-38{letter-spacing:9.99em;}.cls-39{letter-spacing:-0.05em;}.cls-40{letter-spacing:7.21em;}.cls-41{letter-spacing:-0.01em;}.cls-42{font-size:10.56px;letter-spacing:5.62em;}</style></defs><image width="1687" height="1862" transform="translate(34.97 8.65) scale(0.53)" xlink:href="cuerpo.jpg"/><path class="cls-1" d="M657.42,713l2.48.33,5.06,5.47,3.3,9.79.21,5,2.85.85.94,2.43,5.72.65,4.7,6.75-.24,4.53,2.48.85,3.38-2.35,3.49,5,6,1.74,7.6,7.32L712.6,770l5.78,8.31-6.54,6.1-6.64,6.67L694,798.82l-14.12,8.55-9.13,4.54-46.17,31.35-12.84,7.14-10.74.79-2-12.24,5.75-7.6,9.71-9.84,4.47-8,6.48-12,7-15.54.38-2.7,2.9-6.65-.43-11.78-1.95-3.53.15-4.47-3.9-5.25-3-3.58L623.68,746l-9.52-11.89-3.28-7.23,2-.36a9.46,9.46,0,0,0,4.44.25l2.56,4.39,8.4-2-1.2-7.13,5-4,4.56.42,11-3Z"/><polygon class="cls-2" points="721.54 734.82 717.94 739.38 709.89 735.73 692.76 732.74 670.46 730.26 672.11 725.77 691.87 728.22 701.69 729.35 707.82 730.23 714.77 731.57 721.54 734.82"/><polygon class="cls-2" points="710.02 743.86 705.88 746.74 699.46 744.53 691.78 742.16 677.81 740.82 666.96 739.64 668.62 735.91 676.76 736.42 691.27 738.53 697.1 738.98 701.67 740.68 710.02 743.86"/><polygon class="cls-2" points="699.86 753.76 695.29 756.94 689.63 754.2 681.11 752.41 673.35 751 666.49 750.5 663.42 750.06 664.8 746.28 671.41 746.05 680.65 747.07 688.42 748.86 695.18 751.36 699.86 753.76"/><path class="cls-1" d="M482.52,794.26l2.33,1.08,3.12,6.78-.08,10.36-1.49,4.84,2.51,1.68.1,2.61,5.4,2.36,2.33,7.9L495,836.13l2.14,1.57,4.12-1.22,1.73,5.87,5.29,3.5,5,9.31,4.19,10.42,2.86,9.72-8.5,3.82-8.8,4.35-13.6,4-16.79,3.85-10.52,1.56-56,15.85L391,911.64l-10.82-2.53,2.2-12.31,8.23-5.5,12.88-6.44,7.12-6.27L421,869.13l12.15-12.71,1.29-2.47,5.11-5.46,3.59-11.4-.72-4,1.66-4.23-2.05-6.22-1.73-4.33-2.19-2.87-5.32-14.27-.77-7.91,2.1.26a9.69,9.69,0,0,0,4.27,1.6l1,5,8.94.67,1.24-7.19,6.27-2.29,4.34,1.8,11.79.49Z"/><polygon class="cls-2" points="500.2 877.04 495.11 880.3 488.43 874.35 472.6 866.25 451.53 857.07 454.67 853.28 473.26 861.66 482.53 865.75 488.26 868.46 494.64 871.86 500.2 877.04"/><polygon class="cls-2" points="485.8 882.16 480.75 883.65 475.18 879.57 468.45 874.96 455.17 869.41 444.89 864.96 447.8 861.91 455.62 864.88 469.17 871.34 474.75 873.54 478.67 876.57 485.8 882.16"/><polygon class="cls-2" points="472.44 888.52 466.88 890.16 462.24 885.81 454.47 881.5 447.32 877.77 440.74 875.2 437.88 873.85 440.52 870.65 447.1 872.45 455.84 876.25 462.87 880.34 468.66 884.79 472.44 888.52"/><g id="pecho"><path class="cls-1" d="M500.27,256.16s-1.67-5.12-2.85-6c-2.7-2-12.45-.39-12.45-.39l-3.69,7.17s-17.68,15.53-22.44,22.28-10.93,15.48-12.68,32.13c-1.08,10.23,2.63,29.81,6.06,38.62a31,31,0,0,0,14.66,16.34,217.8,217.8,0,0,1,32.67,1.83c18.6,2.68,43.53,6.51,43.53,6.51l34.58-2.37L592,363.73l8.1.48V321l-2.21-.95s-8-20.28-11.77-26.11c-5.52-8.62-19.91-21.62-26.12-29.42-9-11.36-19.5-14.24-19.5-14.24s-1.9-4.45-3.22-5.18c-2.7-1.5-6.58-.4-13,.43-1.58.21-2.37,7.6-2.37,7.6Z"/><path class="cls-3" d="M468.76,271.83c-2.42,7.24-.27,23.64,0,31.51.21,6.52-1.8,19.67-.85,26.08,1.51,10.12,13.91,37.11,13.91,37.11l37.26,3.1s-.2-20.38,0-27.17c.23-8.25-.92-25.53,1.89-32.95,5.52-14.58,36.85-44.2,36.85-44.2s-13.34-11.82-18.53-13c-8.26-1.94-33.27,6-33.27,6L480.11,258S470.3,267.2,468.76,271.83Z"/></g><path id="bucal" class="cls-3" d="M481.33,189.28a16.31,16.31,0,0,0-2,3.59c-.29,1.61,1,6.45,1,6.45s1.63,7.07,3.15,8.48a17.88,17.88,0,0,0,6.88,3c5,.76,14.45,1.85,19.47,1.31a110.84,110.84,0,0,0,14.53-3.23c2.44-.77,7-2.6,8.87-4.36s2.76-7.29,2.76-7.29l-.88-8.28a10.46,10.46,0,0,1-5.08,3.05c-1,.26-2.6.79-3.81,1.15a58.5,58.5,0,0,1-7.35,1.14c-2.07.25-5.62.53-7.7.65a65.78,65.78,0,0,1-7.55-.44c-1-.09-5.18-.25-5.18-.25l-2.27,3L495,194.09s-6.81-.65-9-1.22a10.72,10.72,0,0,1-3.2-1.25A11.23,11.23,0,0,1,481.33,189.28Z"/><path class="cls-1" d="M594.61,144.34a2.52,2.52,0,0,0-2.49-2.07l-1.7-.13-.19,0h-.14a2.59,2.59,0,0,1-2.24-1.73l-.42-1.5a1.93,1.93,0,0,1-.07-.53V116.74a2.18,2.18,0,0,0-1.27-1.92l-2.93-1.53a3,3,0,0,1-.69-.52l-3.61-3.83-4.07-4a2.75,2.75,0,0,1-.22-.26l-2.23-3a2.53,2.53,0,0,0-1-.8c-5.31-2.24-29.79-7.77-32-8.26a1.65,1.65,0,0,0-.32-.06l-24.11-3-.3,0-15.06-.54a3.53,3.53,0,0,0-1.07.13l-8.31,2.32a3.26,3.26,0,0,0-.91.41l-5.39,3.54a2.67,2.67,0,0,1-.41.22l-6.77,3.14a4.14,4.14,0,0,1-.49.19l-9,2.55a2.93,2.93,0,0,0-1.73,1.25l-.93,1.53a2,2,0,0,0-.2,1.73l.57,1.6a2,2,0,0,1-.3,1.88l-1.82,2.57-.18.23-1.71,1.89a2.18,2.18,0,0,0-.58,1.37L459,142.74a1.31,1.31,0,0,0,0,.28l.53,5.23a2.08,2.08,0,0,0,.7,1.34l3.78,3.45.14.13,5.1,5.43a2.16,2.16,0,0,1,.5.88l4.76,16.9a1.75,1.75,0,0,0,.2.47l11.15,19.26,2.28,3.94a2.15,2.15,0,0,0,.35.46l2.84,2.84A73.89,73.89,0,0,1,489.86,191l-12.17-15a2,2,0,0,1-.38-.73l-6.92-23.77a2.33,2.33,0,0,0-.14-.33l-1-2a2.13,2.13,0,0,1,.63-2.59l3.31-2.83a3.3,3.3,0,0,1,1.68-.74l12.75-1.7a3.4,3.4,0,0,0,.63-.15l7.51-2.51a3.23,3.23,0,0,1,.7-.15l15.6-1.79a3.29,3.29,0,0,1,.83,0l10.43,1.31a2.6,2.6,0,0,1,2.25,1.7l2.09,7a1.84,1.84,0,0,1,.08.66l-1,18.65a1.32,1.32,0,0,1-.06.39l-3.08,12-3.75,16.8a2.19,2.19,0,0,0,0,.57l.61,8.77a2,2,0,0,0,.5,1.18l3.14,3.66a2.72,2.72,0,0,0,.91.68l4.09,1.85a3.18,3.18,0,0,0,1.16.27l9.35.51a3.44,3.44,0,0,0,1.59-.29l8.15-3.65L569.75,199a3.15,3.15,0,0,0,.69-.45l13.87-12.17a2.73,2.73,0,0,0,.43-.47l3.71-5.39a2.11,2.11,0,0,0,.26-.52l1.8-5a2.06,2.06,0,0,0,.11-.88l-.35-3.49a2,2,0,0,1,.2-1.08l1.29-2.71a3,3,0,0,1,2.25-1.53,2.62,2.62,0,0,0,2.44-2.62Z"/><path class="cls-3" d="M578.17,129.63s-6.1-1.73-8.74-1.85c-4.09-.19-8.51,1.35-9.61,2.92-2.51,3.6-3,4.59-3.59,6.2-1.26,3.33-1.89,9.41-2.2,12.86-.27,3-.89,9.06-.54,12a75.22,75.22,0,0,0,2.12,10.94,24.7,24.7,0,0,0,3.77,6.54c1,1.18,3.44,3.58,5.18,3.78s7-2.14,7-2.14a28.79,28.79,0,0,1-4-.79,16.36,16.36,0,0,1-2.81-1.92c-1.35-1-2.58-4-3.16-5.41s-1.83-4.23-2.31-5.67a33.57,33.57,0,0,1-1.06-6.22,8.42,8.42,0,0,1,.85-2.21l23.41,7.89,2.67-12.43-25.35-9.62s.41-2.57.65-3.41a27.13,27.13,0,0,1,2.47-5.45,48.13,48.13,0,0,1,3.49-4l3.4-.88,5,0,4.29,1.53Z"/><path class="cls-3" d="M462.49,119.39l-2.12,22.4s7.76-4.81,9.9-5.64c1.78-.7,7.22-2.26,9.1-2.7,3.45-.82,10.38-.86,10.38-.86l.43-21.87L475,113.85C463.48,116.25,462.49,119.39,462.49,119.39Z"/><text class="cls-4" transform="translate(286.47 15.3)"><tspan class="cls-5">C</tspan><tspan x="9.56" y="0">as</tspan><tspan class="cls-6" x="26.17" y="0">c</tspan><tspan x="34.7" y="0">o</tspan><tspan class="cls-7"><tspan x="0" y="21.6">Cue</tspan><tspan class="cls-6" x="26.37" y="21.6">r</tspan><tspan x="32.11" y="21.6">o sintéti</tspan><tspan class="cls-8" x="87.79" y="21.6">c</tspan><tspan x="95.96" y="21.6">o en el </tspan><tspan class="cls-9" x="144.23" y="21.6">e</tspan><tspan x="152.5" y="21.6">x</tspan><tspan class="cls-10" x="159.88" y="21.6">t</tspan><tspan x="165.31" y="21.6">erio</tspan><tspan class="cls-11" x="191.91" y="21.6">r</tspan><tspan x="197.42" y="21.6">, </tspan><tspan class="cls-12" x="204.91" y="21.6">f</tspan><tspan x="210.04" y="21.6">or</tspan><tspan class="cls-13" x="224.35" y="21.6">r</tspan><tspan x="230.09" y="21.6">o in</tspan><tspan class="cls-10" x="254.73" y="21.6">t</tspan><tspan x="260.17" y="21.6">erior a</tspan><tspan class="cls-8" x="304.34" y="21.6">c</tspan><tspan x="312.51" y="21.6">olchado de espuma y multicap</tspan><tspan class="cls-14" x="519.87" y="21.6">a</tspan><tspan x="527.97" y="21.6">.</tspan></tspan></text><text class="cls-4" transform="translate(628.97 140.8)">P<tspan class="cls-10" x="9.47" y="0">r</tspan><tspan class="cls-9" x="15.53" y="0">o</tspan><tspan class="cls-15" x="24.34" y="0">t</tspan><tspan x="30.15" y="0">e</tspan><tspan class="cls-6" x="38.86" y="0">c</tspan><tspan class="cls-15" x="47.39" y="0">t</tspan><tspan x="53.21" y="0">or bucal</tspan><tspan class="cls-7"><tspan class="cls-16" x="0" y="21.6">C</tspan><tspan x="9.36" y="21.6">apa in</tspan><tspan class="cls-10" x="50.54" y="21.6">t</tspan><tspan x="55.98" y="21.6">erior fl</tspan><tspan class="cls-9" x="101.18" y="21.6">e</tspan><tspan x="109.44" y="21.6">xible pa</tspan><tspan class="cls-8" x="161.8" y="21.6">r</tspan><tspan x="167.58" y="21.6">a absorber impa</tspan><tspan class="cls-17" x="278.37" y="21.6">c</tspan><tspan class="cls-10" x="286.54" y="21.6">t</tspan><tspan x="291.98" y="21.6">os y </tspan><tspan class="cls-9" x="0" y="43.2">e</tspan><tspan x="8.26" y="43.2">x</tspan><tspan class="cls-10" x="15.64" y="43.2">t</tspan><tspan x="21.08" y="43.2">erior rí</tspan><tspan class="cls-18" x="66.44" y="43.2">g</tspan><tspan x="74.93" y="43.2">ida pa</tspan><tspan class="cls-8" x="116.1" y="43.2">r</tspan><tspan x="121.88" y="43.2">a la p</tspan><tspan class="cls-6" x="157.75" y="43.2">r</tspan><tspan class="cls-5" x="163.49" y="43.2">o</tspan><tspan class="cls-10" x="171.97" y="43.2">t</tspan><tspan x="177.41" y="43.2">e</tspan><tspan class="cls-17" x="185.78" y="43.2">c</tspan><tspan x="193.95" y="43.2">ció</tspan><tspan class="cls-19" x="214.58" y="43.2">n</tspan><tspan x="222.82" y="43.2">.</tspan></tspan></text><text class="cls-4" transform="translate(0 36.9)">Guan<tspan class="cls-15" x="35.8" y="0">t</tspan><tspan x="41.62" y="0">es</tspan><tspan class="cls-7"><tspan class="cls-20" x="0" y="21.6">P</tspan><tspan x="9.09" y="21.6">esan 284 g</tspan><tspan class="cls-21" x="82.38" y="21.6">r</tspan><tspan x="88.16" y="21.6">amos cada uno en </tspan><tspan class="cls-20" x="0" y="43.2">t</tspan><tspan x="5.44" y="43.2">odas las c</tspan><tspan class="cls-21" x="73.04" y="43.2">a</tspan><tspan class="cls-20" x="81.2" y="43.2">t</tspan><tspan x="86.63" y="43.2">egorías. Fl</tspan><tspan class="cls-22" x="157.21" y="43.2">e</tspan><tspan x="165.47" y="43.2">xibles </tspan><tspan class="cls-17" x="0" y="64.8">c</tspan><tspan x="8.17" y="64.8">on espuma de amo</tspan><tspan class="cls-23" x="137.55" y="64.8">r</tspan><tspan x="143.49" y="64.8">tiguació</tspan><tspan class="cls-24" x="198.79" y="64.8">n</tspan><tspan x="207.03" y="64.8">.</tspan></tspan></text><text class="cls-4" transform="translate(0 817.25)">Zap<tspan class="cls-25" x="26.19" y="0">a</tspan><tspan x="34.7" y="0">tillas</tspan><tspan class="cls-26"><tspan x="0" y="21.6">Son </tspan><tspan class="cls-27" x="33.95" y="21.6">d</tspan><tspan x="43.13" y="21.6">e cu</tspan><tspan class="cls-24" x="73.06" y="21.6">er</tspan><tspan x="87.34" y="21.6">o s</tspan><tspan class="cls-24" x="108.29" y="21.6">i</tspan><tspan x="112.93" y="21.6">ntétic</tspan><tspan class="cls-28" x="154.91" y="21.6">o</tspan><tspan class="cls-29" x="163.19" y="21.6">,</tspan><tspan x="166.75" y="21.6" xml:space="preserve"> ofrece p</tspan><tspan class="cls-24" x="231.63" y="21.6">r</tspan><tspan x="238.27" y="21.6">otec</tspan><tspan class="cls-24" x="269.25" y="21.6">c</tspan><tspan class="cls-30" x="276.88" y="21.6">i</tspan><tspan x="281.34" y="21.6">ón en </tspan><tspan class="cls-24" x="0" y="43.2">e</tspan><tspan x="7.63" y="43.2">l tob</tspan><tspan class="cls-30" x="41.58" y="43.2">i</tspan><tspan x="46.04" y="43.2">llo al po</tspan><tspan class="cls-27" x="106.96" y="43.2">s</tspan><tspan x="114.14" y="43.2">e</tspan><tspan class="cls-31" x="122.13" y="43.2">e</tspan><tspan x="129.76" y="43.2">r un cu</tspan><tspan class="cls-24" x="181.66" y="43.2">e</tspan><tspan x="189.29" y="43.2">llo alto.z</tspan></tspan></text><text class="cls-4" transform="translate(718.38 343.85)">P<tspan class="cls-20" x="9.47" y="0">r</tspan><tspan class="cls-22" x="15.53" y="0">o</tspan><tspan class="cls-15" x="24.34" y="0">t</tspan><tspan x="30.15" y="0">e</tspan><tspan class="cls-6" x="38.86" y="0">c</tspan><tspan class="cls-15" x="47.39" y="0">t</tspan><tspan x="53.21" y="0">or de pecho</tspan><tspan class="cls-7"><tspan class="cls-32" x="0" y="21.6">C</tspan><tspan x="9.31" y="21.6">on</tspan><tspan class="cls-33" x="26.42" y="21.6">f</tspan><tspan class="cls-34" x="31.55" y="21.6">e</tspan><tspan class="cls-21" x="39.92" y="21.6">c</tspan><tspan x="48.09" y="21.6">cionado </tspan><tspan class="cls-17" x="106.2" y="21.6">c</tspan><tspan x="114.37" y="21.6">on </tspan><tspan class="cls-20" x="135.08" y="21.6">t</tspan><tspan x="140.52" y="21.6">ejido calado </tspan><tspan x="0" y="43.2">de poliés</tspan><tspan class="cls-20" x="61.27" y="43.2">t</tspan><tspan x="66.71" y="43.2">e</tspan><tspan class="cls-35" x="75.08" y="43.2">r</tspan><tspan x="80.59" y="43.2">. </tspan><tspan class="cls-32" x="88.4" y="43.2">C</tspan><tspan x="97.7" y="43.2">opas semirrí</tspan><tspan class="cls-18" x="182.52" y="43.2">g</tspan><tspan x="191.01" y="43.2">idas </tspan><tspan x="0" y="64.8">de poli</tspan><tspan class="cls-15" x="45.32" y="64.8">e</tspan><tspan x="53.6" y="64.8">tilen</tspan><tspan class="cls-20" x="83.7" y="64.8">o</tspan><tspan x="92.07" y="64.8">.</tspan></tspan></text><text class="cls-4" transform="translate(0 538.91)">P<tspan class="cls-10" x="9.47" y="0">r</tspan><tspan class="cls-9" x="15.53" y="0">o</tspan><tspan class="cls-15" x="24.34" y="0">t</tspan><tspan x="30.15" y="0">e</tspan><tspan class="cls-6" x="38.86" y="0">c</tspan><tspan class="cls-15" x="47.39" y="0">t</tspan><tspan x="53.21" y="0">or abdominal</tspan><tspan class="cls-7"><tspan x="0" y="21.6">Cue</tspan><tspan class="cls-6" x="26.37" y="21.6">r</tspan><tspan x="32.11" y="21.6">o sintéti</tspan><tspan class="cls-8" x="87.79" y="21.6">c</tspan><tspan class="cls-10" x="95.96" y="21.6">o</tspan><tspan x="104.33" y="21.6">, a</tspan><tspan class="cls-17" x="119.99" y="21.6">c</tspan><tspan x="128.16" y="21.6">olchado </tspan><tspan class="cls-17" x="185.96" y="21.6">c</tspan><tspan x="194.13" y="21.6">on espuma en la cintu</tspan><tspan class="cls-21" x="343.88" y="21.6">r</tspan><tspan class="cls-14" x="349.66" y="21.6">a</tspan><tspan x="357.76" y="21.6">. </tspan><tspan x="0" y="43.2">Equipado </tspan><tspan class="cls-8" x="68.13" y="43.2">c</tspan><tspan x="76.3" y="43.2">on una </tspan><tspan class="cls-17" x="125.96" y="43.2">c</tspan><tspan x="134.13" y="43.2">opa de políme</tspan><tspan class="cls-6" x="229.68" y="43.2">r</tspan><tspan class="cls-20" x="235.42" y="43.2">o</tspan><tspan x="243.79" y="43.2">.</tspan></tspan></text><text class="cls-4" transform="translate(0 424.85)"><tspan class="cls-36">P</tspan><tspan x="9.23" y="0">ole</tspan><tspan class="cls-25" x="30.83" y="0">r</tspan><tspan x="36.97" y="0">a</tspan><tspan class="cls-7"><tspan x="0" y="21.6">Sin mangas de pol</tspan><tspan class="cls-37" x="124.32" y="21.6">y</tspan><tspan x="131.38" y="21.6">es</tspan><tspan class="cls-20" x="147.33" y="21.6">t</tspan><tspan x="152.76" y="21.6">er </tspan><tspan class="cls-17" x="170.53" y="21.6">c</tspan><tspan x="178.7" y="21.6">on aplicaciones de </tspan><tspan x="0" y="43.2">s</tspan><tspan class="cls-17" x="7.58" y="43.2">a</tspan><tspan x="15.73" y="43.2">tín a ambos </tspan><tspan class="cls-21" x="98.51" y="43.2">c</tspan><tspan x="106.68" y="43.2">ostados.</tspan></tspan><tspan class="cls-38"><tspan x="0" y="64.8">	</tspan></tspan></text><text class="cls-4" transform="translate(716.97 239.9)"><tspan class="cls-39">V</tspan><tspan x="8.8" y="0">endas</tspan><tspan class="cls-7"><tspan x="0" y="21.6">De fib</tspan><tspan class="cls-8" x="39.78" y="21.6">r</tspan><tspan x="45.56" y="21.6">a de carbono que </tspan><tspan x="0" y="43.2">ha</tspan><tspan class="cls-8" x="16.78" y="43.2">c</tspan><tspan x="24.95" y="43.2">en que sean </tspan><tspan class="cls-6" x="111.1" y="43.2">r</tspan><tspan x="116.84" y="43.2">esis</tspan><tspan class="cls-10" x="144.29" y="43.2">t</tspan><tspan x="149.72" y="43.2">en</tspan><tspan class="cls-20" x="166.7" y="43.2">t</tspan><tspan x="172.13" y="43.2">es y </tspan><tspan x="0" y="64.8">lige</tspan><tspan class="cls-8" x="24.34" y="64.8">r</tspan><tspan x="30.11" y="64.8">as.</tspan><tspan class="cls-40" x="50.07" y="64.8">	</tspan></tspan></text><text class="cls-4" transform="translate(675.97 482.91)">Sho<tspan class="cls-18" x="27.02" y="0">r</tspan><tspan x="33.3" y="0">ts</tspan><tspan class="cls-7"><tspan x="0" y="21.6">Hechos </tspan><tspan class="cls-17" x="55.02" y="21.6">c</tspan><tspan x="63.2" y="21.6">on s</tspan><tspan class="cls-21" x="91.49" y="21.6">a</tspan><tspan x="99.64" y="21.6">tén de poliés</tspan><tspan class="cls-20" x="187.07" y="21.6">t</tspan><tspan x="192.51" y="21.6">e</tspan><tspan class="cls-35" x="200.88" y="21.6">r</tspan><tspan x="206.38" y="21.6">. </tspan><tspan x="0" y="43.2">Ligé</tspan><tspan class="cls-6" x="29.32" y="43.2">r</tspan><tspan x="35.06" y="43.2">os pa</tspan><tspan class="cls-17" x="71.64" y="43.2">r</tspan><tspan x="77.42" y="43.2">a el m</tspan><tspan class="cls-35" x="117.99" y="43.2">o</tspan><tspan x="126.21" y="43.2">vien</tspan><tspan class="cls-41" x="154.56" y="43.2">t</tspan><tspan x="160" y="43.2">o </tspan><tspan class="cls-17" x="172.11" y="43.2">r</tspan><tspan x="177.89" y="43.2">ápido y </tspan><tspan x="0" y="64.8">fluido de piernas. </tspan><tspan class="cls-42" x="121.91" y="64.8">	</tspan></tspan></text><path class="cls-1" d="M178.11,181.43l19.95,1.19a21.56,21.56,0,0,1,14.16,5.9h0a4.4,4.4,0,0,1,1.3,2.13l2.54,10.07a13.07,13.07,0,0,1,.34,1.83c.31,2.73,1.16,10.6.94,12.26a50.33,50.33,0,0,1-1.31,6,10.84,10.84,0,0,1-7.65,7.51l-.18,0c-1.66.49-6.25-1.46-8-1.58-3.34-.22-16.8-2.24-17.63-2.19-2.91.2-17.8.43-21.74-.17-.47-.07-11.77,3.4-13.42,5-5.14,5.09-15,7.9-16.51,8.09s-10.83,1.77-14.49.91c-4.32-1-7.26-2.42-11.42-4.2-3.41-1.45-8-7.95-9.41-11.37-2.11-5.16-4.7-4.66-7.35-12.39-1.06-3.09-1.71-8.64-3.23-16.47-.6-3.09-.17-14.06-.2-17.1,0-5.74,5.26-9.88,9.27-13.65,4.8-4.51,19.23-4,26.9-2.88,5.27.75,10.31,3,15.57,4.24,4.11,1,9,6.15,17.69,10.41,9.73,4.77,8.3,3.15,12.46,4.21A34.42,34.42,0,0,0,178.11,181.43Z"/></svg>