<svg id="Capa_1" data-name="Capa 1" xmlns="http://www.w3.org/2000/svg" xmlns:xlink="http://www.w3.org/1999/xlink" viewBox="0 0 1000 1000"><defs><style>.cls-1{fill:#d8543c;}.cls-2{fill:#fff;}.cls-3{fill:#cc1719;}.cls-4{fill:none;stroke:#6f6f6e;stroke-miterlimit:10;}.cls-5{font-size:18px;fill:#1e1e1c;font-family:BarlowSemiCondensed-SemiBold, Barlow Semi Condensed;font-weight:600;}.cls-6{letter-spacing:0em;}.cls-7{letter-spacing:0em;}.cls-38,.cls-8{font-family:BarlowSemiCondensed-Light, Barlow Semi Condensed;}.cls-26,.cls-38,.cls-8{font-weight:300;}.cls-9{letter-spacing:0em;}.cls-10{letter-spacing:-0.01em;}.cls-11{letter-spacing:-0.01em;}.cls-12{letter-spacing:-0.02em;}.cls-13{letter-spacing:-0.02em;}.cls-14{letter-spacing:0em;}.cls-15{letter-spacing:0em;}.cls-16{letter-spacing:0em;}.cls-17{letter-spacing:0em;}.cls-18{letter-spacing:0em;}.cls-19{letter-spacing:-0.02em;}.cls-20{letter-spacing:-0.01em;}.cls-21{letter-spacing:0em;}.cls-22{letter-spacing:-0.01em;}.cls-23{letter-spacing:0.01em;}.cls-24{letter-spacing:-0.02em;}.cls-25{letter-spacing:0em;}.cls-26{font-family:BellGothicStd-Light, Bell Gothic Std;}.cls-27{letter-spacing:0.01em;}.cls-28{letter-spacing:-0.04em;}.cls-29{letter-spacing:-0.08em;}.cls-30{letter-spacing:-0.03em;}.cls-31{letter-spacing:-0.02em;}.cls-32{letter-spacing:-0.01em;}.cls-33{letter-spacing:-0.03em;}.cls-34{letter-spacing:0em;}.cls-35{letter-spacing:-0.02em;}.cls-36{letter-spacing:-0.01em;}.cls-37{letter-spacing:-0.01em;}.cls-38{letter-spacing:9.99em;}.cls-39{letter-spacing:-0.05em;}.cls-40{letter-spacing:7.21em;}.cls-41{letter-spacing:-0.01em;}.cls-42{font-size:10.56px;letter-spacing:10.93em;}</style></defs><image width="1000" height="1000" xlink:href="cuerpofondo.jpg"/><g id="zapatillas"><path class="cls-1" d="M627.36,882.3l2.23,1.15,2.92,6.86-.2,10.32-1.48,4.77,2.39,1.76.06,2.61,5.17,2.54,2.14,7.94-1.74,4.19,2,1.63,4-1.07,1.6,5.9,5,3.67,4.68,9.44,3.91,10.53,2.65,9.78-8.22,3.53-8.51,4-13.12,3.55-16.17,3.27-10.13,1.21-54,13.94-14.5,2.39-10.38-2.88,2.26-12.19,8-5.22,12.46-6,6.91-6,10.13-9.08,11.83-12.26,1.26-2.42,5-5.28,3.57-11.24-.64-4,1.64-4.17-1.9-6.26-1.61-4.37L584.47,902l-5-14.39-.64-7.92,2,.34a9.41,9.41,0,0,0,4.09,1.73l.93,5,8.57,1,1.28-7.12,6-2.07,4.15,1.93,11.33.88Z"/><polygon class="cls-2" points="643.4 965.39 638.48 968.47 632.12 962.31 617 953.72 596.85 943.87 599.91 940.2 617.69 949.16 626.55 953.55 632.03 956.44 638.12 960.04 643.4 965.39"/><polygon class="cls-2" points="629.51 970.01 624.64 971.33 619.33 967.08 612.91 962.26 600.21 956.29 590.39 951.51 593.22 948.57 600.7 951.79 613.65 958.67 618.99 961.05 622.71 964.2 629.51 970.01"/><polygon class="cls-2" points="616.6 975.91 611.23 977.36 606.82 972.87 599.4 968.31 592.58 964.36 586.28 961.59 583.54 960.14 586.12 957.04 592.42 959.05 600.78 963.13 607.49 967.44 613 972.07 616.6 975.91"/><path class="cls-1" d="M520.52,876.61l2.33,1.08,3.12,6.78-.08,10.36-1.49,4.84,2.51,1.68L527,904l5.4,2.36,2.33,7.9L533,918.48l2.14,1.57,4.12-1.22L541,924.7l5.29,3.5,5,9.31,4.2,10.42,2.86,9.72-8.51,3.82L541,965.82l-13.6,4-16.79,3.85-10.52,1.56-56,15.85L429,994l-10.82-2.53,2.19-12.31,8.24-5.5,12.88-6.44,7.11-6.27L459,951.48l12.16-12.71,1.29-2.47,5.11-5.46,3.59-11.4-.73-4,1.67-4.23L480.07,905l-1.73-4.33-2.19-2.87-5.32-14.27-.77-7.91,2.09.26a9.75,9.75,0,0,0,4.28,1.6l1,5,8.93.67,1.25-7.19,6.27-2.29,4.34,1.8L510,876Z"/><polygon class="cls-2" points="538.2 959.39 533.11 962.65 526.43 956.7 510.6 948.61 489.53 939.42 492.67 935.63 511.26 944.01 520.53 948.1 526.26 950.81 532.64 954.21 538.2 959.39"/><polygon class="cls-2" points="523.8 964.51 518.75 966 513.18 961.92 506.45 957.31 493.17 951.76 482.89 947.31 485.8 944.26 493.62 947.23 507.17 953.68 512.75 955.89 516.66 958.92 523.8 964.51"/><polygon class="cls-2" points="510.44 970.87 504.88 972.51 500.24 968.16 492.47 963.85 485.32 960.12 478.74 957.55 475.88 956.2 478.52 953 485.1 954.8 493.84 958.61 500.87 962.69 506.66 967.14 510.44 970.87"/></g><g id="pecho"><path class="cls-1" d="M494.37,224.27s-1.76-4.6-3-5.39c-2.85-1.81-13.17-.35-13.17-.35L474.28,225s-18.7,14-23.74,20S439,259,437.13,273.93c-1.14,9.21,2.78,26.82,6.4,34.75,4.88,10.67,15.52,14.7,15.52,14.7A270.33,270.33,0,0,1,493.61,325c19.69,2.41,46.06,5.85,46.06,5.85l36.59-2.13,15.18-7.69,8.56.43V282.63l-2.34-.85s-8.51-18.25-12.45-23.49c-5.84-7.76-21.06-19.46-27.64-26.48A45.68,45.68,0,0,0,537,219s-2-4-3.41-4.66c-2.86-1.35-7-.36-13.72.39-1.67.19-2.51,6.83-2.51,6.83Z"/><path class="cls-3" d="M461,238.37c-2.55,6.51-.27,21.28,0,28.36.23,5.86-1.9,17.7-.89,23.46,1.6,9.1,14.72,33.38,14.72,33.38l39.42,2.79s-.21-18.33,0-24.44c.25-7.42-1-23,2-29.64,5.84-13.12,39-39.77,39-39.77s-14.11-10.63-19.61-11.73c-8.74-1.75-35.2,5.37-35.2,5.37l-27.41-.24S462.67,234.21,461,238.37Z"/></g><g id="abdominal"><path class="cls-3" d="M443.92,549s5.08,11.95,8.38,14.86a9,9,0,0,0,4.18,1.81c4.84.1,7.78-4.71,17.95-6.52,2.9-.52,8.46-2.44,11.37-2.9,10-1.57,40.47-2.54,40.47-2.54l22.33,2.18s18.72-.09,24.93.36c4.57.33,13.61,1.71,18.14,2.35,3.55.51,14.16,2.18,14.16,2.18l.8-3.45-.8-2.17,1-8.07,1.21,3.36,1.8-1.27v7.2s2,1.35,2.19,2c.34,1.18-1.4,4.71-1.4,4.71s.64,3,0,3.81c-.94,1.11-4.44,1.32-6,1.45-2.34.19-7-.56-9.37-.73-6.47-.45-19.43-1.34-25.92-1.63-7.47-.32-29.91-.72-29.91-.72l-44.26.26s-6.43-1.21-8.58-1-6.44,2.15-8.57,2.9c-3.59,1.27-10.76,4-14.56,4.53a27.33,27.33,0,0,1-6.58,0c-3.42-.6-13-4.71-13-4.71V562.2l2.4-1.09-5.59-6.34.8-1.09,5,4.35Z"/><path class="cls-1" d="M431.22,461V444.59l4.9-4.73,1.22-2.79H577.39l3.06-1.94,30,1.67,5.52,6.12-1.53,15.32-1.53,48.16-1.23,35.37-4.9,5.29-5.21-1.67-2.45-13.65s1.85-17.89-2.7-21.32c-1.4-1.06-5.48.08-7.26.46a46.16,46.16,0,0,0-9,3.32,51.91,51.91,0,0,0-7,5,34.16,34.16,0,0,1-2.45,2.51c-1.42.93-5.22,1.36-6.44,2.5-4.69,4.41-7.24,17.17-9.8,22.84-2.35,5.19-6.37,15.94-9.81,20.6-2.2,3-7.48,8.73-11,10.3-3.26,1.44-10.79,1.5-14.41,1.39-2.71-.07-8.32-.5-10.72-1.67-4.82-2.35-12.13-10.25-15-14.47-2.2-3.23-4.57-10.62-5.82-14.24-1.47-4.25-3-13.14-4.9-17.23a20.51,20.51,0,0,0-1.53-2.23c-1.82-2.43-5.35-7.41-7.67-9.46a41,41,0,0,0-9.19-5.85c-1.08-.42-3.59-1.38-4.6-.83-2.95,1.6-3.26,8.91-4,12-.63,2.67-.85,8.19-1.53,10.86-.64,2.51-3.68,9.74-3.68,9.74l-3.37,3h-4.9l-5.52-4.88-.3-16-1.84-17-1.54-29.79Z"/></g><g id="short"><path class="cls-1" d="M650.9,672.94s-30.8,6.81-41.18,8.77c-10.54,2-31.6,6.55-42.46,7.07-5.2.25-16.43.7-20.76-1.41-8.63-4.21-15.07-19.89-19.26-26.81-5.38-8.86-14-27.23-18.21-36.43-4.08-9-10.74-27.34-14.83-36.34-3.89-8.53-17-33.76-17-33.76l-8.5-28.87.9,26.16s17.27,31.7,21.76,42.57c2.71,6.59,5.64,20.25,8.49,26.81,2.33,5.36,9.22,15.49,11.64,20.83,1.81,4,8.39,12.56,5.72,16.28-1.57,2.18-9.38,2.82-12.64,3.44-10.17,2-31.14,3.67-41.53,4.81-8.73,1-26.43,5.37-34.93,3.65-8-1.62-22.85-9.62-25.67-15.3-2.22-4.45,4.53-13.86,4.9-18.59,1-12-5.62-36-4.9-48,.39-6.63,5.85-26.2,5.85-26.2l-1.89-41.93,6.36-37.08,15.35-10.34,8.5-24.06L440.87,431l163,.17,5.9,42.82,15.69,7.18,9.24,16.49,1.63,22,6.12,48.8,3.78,34.37,4.72,25.81v44.3Z"/><polygon class="cls-2" points="601.01 435.12 601.01 467.66 524.12 470.38 472.24 467.66 445.81 467.66 437.31 467.66 444.87 449.93 448.64 435.12 552.48 435.12 601.01 435.12"/><polygon class="cls-1" points="533.2 441 533.2 461.93 484.17 461.93 484.17 441.63 533.2 441"/><polygon class="cls-3" points="524.12 655.07 508.68 660.61 497.87 648.03 488.61 628.29 484.17 610.75 478.52 576.27 466.51 560 461.84 543.73 461.84 529.15 468.71 525.16 474.85 543.24 483.19 565.1 497.2 584.95 508.68 610.75 519.16 628.29 524.12 645.24 524.12 655.07"/></g><path id="bucal" class="cls-3" d="M449.87,160.7s-2.31,3.21-2.54,4.48c-.36,2,1.27,8,1.27,8s2,8.81,3.93,10.57c1.67,1.55,6.32,3.46,8.57,3.8,6.23.95,18,2.31,24.28,1.63a136.94,136.94,0,0,0,18.12-4c3.05-1,8.74-3.24,11.06-5.44s3.44-9.08,3.44-9.08l-1.1-10.33a13.08,13.08,0,0,1-6.33,3.81c-1.2.32-3.24,1-4.76,1.43a73.77,73.77,0,0,1-9.15,1.42c-2.59.31-7,.66-9.61.81a84.69,84.69,0,0,1-9.41-.55c-1.28-.11-6.46-.31-6.46-.31l-2.83,3.72-1.45-4s-8.49-.8-11.23-1.51a13.09,13.09,0,0,1-4-1.57A14.09,14.09,0,0,1,449.87,160.7Z"/><g id="guante"><path class="cls-3" d="M604.65,389.48c-4.68-.75-14.22.15-18.61,1.66-5.43,1.85-14.41,9.41-19.29,12.42-5.18,3.2-14.86,11.73-21,12.41-4.55.52-13.21-6.64-17.8-7.37-2.3-.37-4,2.58-9.36,1.72-8.1-1.29-19.94-6.41-23.4-22.53-3.54-16.47-.1-25.39,4.29-32,4.64-7,13.38-16.39,16.3-17.44a45.61,45.61,0,0,1,7.31-2.22c20.15-4.55,28.92,2.87,38.21,5.89,4.23,1.38,11.74,7,16,8.19,5.86,1.59,18.27-1,24,1.25,1.77.72,6,5,6,5"/><path class="cls-3" d="M607.28,356.43s1.65,5,1,17.17c-.63,11.11-5.46,15.68-5.46,15.68"/><path class="cls-1" d="M553.62,380.36a45.31,45.31,0,0,0-7.88-6.06c-1.5-.91-3.06-1.64-4.6-2.44-2.17-1.12-2.22-1.27-1.46-3.7,1.9-6.06,6.62-10,4.35-17.08-1.72-5.41-5.11-9.93-10.07-12.31-21.34-10.23-52.23,8.86-51.32,34,.5,13.89,12.18,27.2,23.16,33.77A48.68,48.68,0,0,0,519.26,412a47.58,47.58,0,0,0,15.94,3.76c11.37.47,24.81-6.77,25.36-20.17C560.79,390,557.57,384.16,553.62,380.36Z"/></g><g id="venda"><path class="cls-1" d="M427,331.53,418.44,329l-23-3.76c-.12,0-11.89-4.13-15.13-6.45-2.65-1.9-5.66-5.84-8.57-9.66s-5.57-7.3-8.09-9.25c-3.31-2.56-12.31-7.41-17-7.23-2.36.1-5.12,1.7-8,3.4-3.07,1.78-6.26,3.63-8.65,3.39-1.29-.13-3-1.57-4.74-3-2-1.67-3.95-3.24-5.65-3.25h0c-4.11,0-11.12,3.43-14.47,7.07-1.48,1.6-2.16,3.12-2,4.52.12,1.22,1.51,2.47,3,3.8,1.12,1,2.39,2.14,2.57,2.93.15.6,0,.68-.67,1-1.36.73-3.63,1.94-2.66,9.65.34,2.68,2.45,4.13,4.15,5.3a7.54,7.54,0,0,1,2.14,1.86,2.1,2.1,0,0,1,.05,1.95c-.4,1.3-.95,3.09,1.74,6.77a16.8,16.8,0,0,0,3.74,2.95,16.48,16.48,0,0,1,3.59,2.79c.37.53.2,1.07-.13,2-.63,1.73-1.49,4.11,3.57,7.28a13.39,13.39,0,0,0,8.47,2.06,20.07,20.07,0,0,1,2.46,0,31,31,0,0,0,3.55,0,22.44,22.44,0,0,1,5.46.26,17.77,17.77,0,0,1,4,2.26,18.62,18.62,0,0,0,4.46,2.44c4.29,1.12,16.54-1.29,17.05-1.39l10.47-1.89,49,14.15.2-.33c.13-.21,3.15-5.37,4.29-19.52C434.58,338.18,427.3,331.79,427,331.53Z"/><path class="cls-4" d="M426.66,332.22l-8.3-2.42L395.28,326S383.36,321.9,380,319.5c-5.25-3.77-11.58-15-16.68-18.92-3.54-2.74-12.3-7.31-16.68-7.12-4.76.2-11.93,7.26-16.76,6.78-3-.29-7.4-6.18-10.34-6.2-5.33,0-16.47,6.23-16,11,.18,2,5.09,4.69,5.55,6.66.67,2.87-4.74-.46-3.32,10.73.49,3.88,5.07,5,6.22,7,1.41,2.42-2.32,3.09,1.76,8.68,1.17,1.61,6.21,4.12,7.34,5.74,1.57,2.27-3.88,4.63,3.29,9.13,4.57,2.87,7.57,1.7,10.71,2,2.28.24,6.86-.31,9.1.31s6.14,4.09,8.48,4.7c4.24,1.1,16.84-1.39,16.84-1.39l10.59-1.91,48.72,14.07s3.08-5.1,4.22-19.3c1-12.92-6.36-19.26-6.36-19.26"/><path class="cls-4" d="M350.81,294a47.15,47.15,0,0,1,4.69,7.73c.64,1.49,1,2.82.56,3.59-1,1.84-5.38,3.4-6.28,5.26-1.28,2.65.89,7.51-.32,10.19-1.12,2.49-7.88,5.3-10.93,4.34-4.84-1.52-8.71-12.39-8.7-16.81,0-2.84,5.64-9.61,5.64-9.61l18.55-.41"/><path class="cls-4" d="M319.09,307.78l6.33,14.16-9.1,4.82-7.25-15s7.23-3.63,10-4c2.62-.29,10.79,1.44,10.79,1.44"/><path class="cls-4" d="M312.27,331s5.2-5.88,7.56-7.19c3-1.65,12.72-3.58,12.72-3.58l3.87,16.15"/><path class="cls-4" d="M345.19,324s3.3,3,3.53,4.31c.31,1.75-1.22,5.24-2.67,6.25-2.87,2-11.37,1.37-14.76,2.69-2.92,1.13-10.22,6.58-10.22,6.58"/><path class="cls-4" d="M346.05,334.58s6.61,1.5,7.45,3.18c1.33,2.68-2.08,8.33-4.3,10.07-.92.72-3.78.56-4.86,1.08-2,.95-7,6.15-7,6.15"/><line class="cls-4" x1="419.78" y1="368.45" x2="420.13" y2="330.09"/><polyline class="cls-4" points="412.13 328.78 405.61 364.08 393.63 359.83 401.93 327.19 395.28 326.02 385.16 358.17"/><line class="cls-4" x1="377.16" y1="357.23" x2="388.04" y2="323.31"/><line class="cls-4" x1="380.02" y1="319.5" x2="362.86" y2="359.7"/><line class="cls-4" x1="374.69" y1="314.03" x2="352.65" y2="360.01"/><line class="cls-4" x1="353.5" y1="337.76" x2="370.81" y2="309.03"/><line class="cls-4" x1="367.54" y1="304.88" x2="348.72" y2="328.33"/><polyline class="cls-4" points="363.71 301.31 351.13 309.9 331.67 305.31"/><line class="cls-4" x1="325.62" y1="309.27" x2="324.21" y2="296.54"/><line class="cls-4" x1="314.06" y1="309.68" x2="311.08" y2="297.38"/><line class="cls-4" x1="329.36" y1="338.51" x2="321.3" y2="323.71"/><polyline class="cls-4" points="341.48 335.91 349.2 347.83 344.17 355.31"/><line class="cls-4" x1="341.95" y1="350.69" x2="332.28" y2="337.09"/><line class="cls-4" x1="326.81" y1="340.28" x2="336.52" y2="354.18"/></g><path class="cls-1" d="M455.87,45.94,442.28,79.62c0,.12-.08.24-.11.36l-1.66,6.82a2.82,2.82,0,0,0,.28,2l3.25,6,.11.22,4,9.11a2.83,2.83,0,0,1,.24,1.33l-1.5,23.42a3.07,3.07,0,0,0,0,.68l5.52,29.25,1.12,6a2.94,2.94,0,0,0,.25.74L464,186.7a3.77,3.77,0,0,0,1.64,1.67l20.56,11.29a4.19,4.19,0,0,0,4.89-.45l.5-.49a2.77,2.77,0,0,0,.16-3.72l-1.9-2.51a3.94,3.94,0,0,0-1.24-1.08L470.36,181.1a3.78,3.78,0,0,1-1.73-1.95l-17.57-49.36a3,3,0,0,1-.16-1.09l1.82-33a2,2,0,0,0,0-.49l-.38-3a2.83,2.83,0,0,1,1.95-3l5.43-2.11a4.28,4.28,0,0,1,2.44-.17L479,90.39a4.28,4.28,0,0,0,.87.09l10.57.17a5.25,5.25,0,0,1,1,.12l20.46,4.67a4.67,4.67,0,0,1,1.05.37l12.57,6.29a3.46,3.46,0,0,1,2.09,3.13l-.48,9.78a2.61,2.61,0,0,1-.19.86L517.38,139a2.37,2.37,0,0,1-.25.47l-9.23,13.82-12.19,19.51a2.55,2.55,0,0,0-.3.7l-3.12,11.33a2.76,2.76,0,0,0,.1,1.72l2.33,6a3.66,3.66,0,0,0,.85,1.25l4.34,4.15a4.22,4.22,0,0,0,1.34.86l11.56,4.79a4.64,4.64,0,0,0,2.14.34l11.9-1,30.08-3.26a4.29,4.29,0,0,0,1.07-.26l22.89-9.19a3.68,3.68,0,0,0,.76-.41l7.07-5.15a2.82,2.82,0,0,0,.56-.53l4.48-5.49a2.94,2.94,0,0,0,.53-1.06l1.1-4.55a2.75,2.75,0,0,1,.73-1.28l2.84-2.83a4,4,0,0,1,3.51-.94h0c2,.37,3.85-.6,4.24-2.22l5.82-23.92a3.38,3.38,0,0,0-2.23-3.73l-2.08-.91-.23-.11-.17-.08a3.46,3.46,0,0,1-2.06-3.17l.14-2.09a2.29,2.29,0,0,1,.14-.69l9.6-27.25a3,3,0,0,0-.74-3l-3-3.23a3.5,3.5,0,0,1-.64-1l-2.85-6.43L605,83.35a2.26,2.26,0,0,1-.17-.43l-1.5-4.71a3.3,3.3,0,0,0-1-1.46c-5.7-5.19-34.12-23-36.67-24.63l-.37-.21L536.28,37.42l-.37-.16-18.75-7.37a4.76,4.76,0,0,0-1.39-.32l-11.51-.76a4.59,4.59,0,0,0-1.34.11L494.55,31a4.09,4.09,0,0,1-.61.1l-9.93.95a4.19,4.19,0,0,1-.71,0l-12.51-.79a4,4,0,0,0-2.74.81l-1.85,1.53a2.7,2.7,0,0,0-1,2.09V38A2.73,2.73,0,0,1,464,40.2l-3.45,2.44-.32.2-3,1.64A2.94,2.94,0,0,0,455.87,45.94Z"/><path class="cls-3" d="M598.33,116s-6.92-4.89-10.2-6.22c-5.07-2.05-11.33-2.08-13.41-.59-4.76,3.43-5.81,4.47-7.28,6.23-3.07,3.65-6.56,11-8.49,15.24-1.68,3.67-5.14,11-6,15-.69,3-2.23,11.57-2.19,14.73a33.11,33.11,0,0,0,1.86,9.92c.69,1.92,2.75,6,4.85,7.06s9.75.41,9.75.41a38.78,38.78,0,0,1-4.7-2.78,21.8,21.8,0,0,1-2.69-3.67c-1.25-1.86-1.47-6.16-1.58-8.22s-.43-6.14-.39-8.18a44.17,44.17,0,0,1,1.42-8.31,11.49,11.49,0,0,1,2-2.41l26,20.34,8.9-14.48-27.7-23.39s1.66-3.06,2.34-4a35.9,35.9,0,0,1,5.53-5.78,64.58,64.58,0,0,1,6.16-3.46l4.68.41,6.31,2.27,4.74,3.84Z"/><path class="cls-3" d="M457,51.72,444.39,79s11.92-2.61,15-2.72c2.55-.08,10.1.36,12.67.64,4.71.5,13.47,3.52,13.47,3.52l10.25-27.39s-15.39-2.1-20.51-2.78C459.65,48.2,457,51.72,457,51.72Z"/><text class="cls-5" transform="translate(913.79 74.15)"><tspan class="cls-6">C</tspan><tspan x="9.56" y="0">as</tspan><tspan class="cls-7" x="26.17" y="0">c</tspan><tspan x="34.7" y="0">o</tspan><tspan class="cls-8"><tspan x="-248.95" y="21.6">Cue</tspan><tspan class="cls-7" x="-222.58" y="21.6">r</tspan><tspan x="-216.84" y="21.6">o sintéti</tspan><tspan class="cls-9" x="-161.17" y="21.6">c</tspan><tspan x="-153" y="21.6">o en el </tspan><tspan class="cls-10" x="-104.72" y="21.6">e</tspan><tspan x="-96.46" y="21.6">x</tspan><tspan class="cls-11" x="-89.08" y="21.6">t</tspan><tspan x="-83.64" y="21.6">erio</tspan><tspan class="cls-12" x="-57.04" y="21.6">r</tspan><tspan x="-51.53" y="21.6">, </tspan><tspan class="cls-13" x="-44.04" y="21.6">f</tspan><tspan x="-38.91" y="21.6">or</tspan><tspan class="cls-14" x="-24.6" y="21.6">r</tspan><tspan x="-18.86" y="21.6">o in</tspan><tspan class="cls-11" x="5.78" y="21.6">t</tspan><tspan x="11.22" y="21.6">erior </tspan><tspan x="-192.4" y="43.2">a</tspan><tspan class="cls-9" x="-184.23" y="43.2">c</tspan><tspan x="-176.06" y="43.2">olchado de espuma y multicap</tspan><tspan class="cls-15" x="31.3" y="43.2">a</tspan><tspan x="39.4" y="43.2">.</tspan></tspan></text><text class="cls-5" transform="translate(63 74.15)">P<tspan class="cls-11" x="9.47" y="0">r</tspan><tspan class="cls-10" x="15.53" y="0">o</tspan><tspan class="cls-16" x="24.34" y="0">t</tspan><tspan x="30.15" y="0">e</tspan><tspan class="cls-7" x="38.86" y="0">c</tspan><tspan class="cls-16" x="47.39" y="0">t</tspan><tspan x="53.21" y="0">or bucal</tspan><tspan class="cls-8"><tspan class="cls-15" x="0" y="21.6">C</tspan><tspan x="9.36" y="21.6">apa in</tspan><tspan class="cls-11" x="50.54" y="21.6">t</tspan><tspan x="55.98" y="21.6">erior fl</tspan><tspan class="cls-10" x="101.18" y="21.6">e</tspan><tspan x="109.44" y="21.6">xible pa</tspan><tspan class="cls-9" x="161.8" y="21.6">r</tspan><tspan x="167.58" y="21.6">a absorber impa</tspan><tspan class="cls-17" x="278.37" y="21.6">c</tspan><tspan class="cls-11" x="286.54" y="21.6">t</tspan><tspan x="291.98" y="21.6">os y </tspan><tspan class="cls-10" x="0" y="43.2">e</tspan><tspan x="8.26" y="43.2">x</tspan><tspan class="cls-11" x="15.64" y="43.2">t</tspan><tspan x="21.08" y="43.2">erior rí</tspan><tspan class="cls-18" x="66.44" y="43.2">g</tspan><tspan x="74.93" y="43.2">ida pa</tspan><tspan class="cls-9" x="116.1" y="43.2">r</tspan><tspan x="121.88" y="43.2">a la p</tspan><tspan class="cls-7" x="157.75" y="43.2">r</tspan><tspan class="cls-6" x="163.49" y="43.2">o</tspan><tspan class="cls-11" x="171.97" y="43.2">t</tspan><tspan x="177.41" y="43.2">e</tspan><tspan class="cls-17" x="185.78" y="43.2">c</tspan><tspan x="193.95" y="43.2">ció</tspan><tspan class="cls-19" x="214.58" y="43.2">n</tspan><tspan x="222.82" y="43.2">.</tspan></tspan></text><text class="cls-5" transform="translate(899.05 329.25)">Guan<tspan class="cls-16" x="35.8" y="0">t</tspan><tspan x="41.62" y="0">es</tspan><tspan class="cls-8"><tspan class="cls-20" x="-153.86" y="21.6">P</tspan><tspan x="-144.77" y="21.6">esan 284 g</tspan><tspan class="cls-21" x="-71.48" y="21.6">r</tspan><tspan x="-65.7" y="21.6">amos cada uno en </tspan><tspan class="cls-20" x="-175.46" y="43.2">t</tspan><tspan x="-170.02" y="43.2">odas las c</tspan><tspan class="cls-21" x="-102.42" y="43.2">a</tspan><tspan class="cls-20" x="-94.26" y="43.2">t</tspan><tspan x="-88.83" y="43.2">egorías. Fl</tspan><tspan class="cls-22" x="-18.25" y="43.2">e</tspan><tspan x="-9.99" y="43.2">xibles </tspan><tspan class="cls-17" x="33.07" y="43.2">c</tspan><tspan x="41.24" y="43.2">on </tspan><tspan x="-124" y="64.8">espuma de amo</tspan><tspan class="cls-23" x="-15.33" y="64.8">r</tspan><tspan x="-9.4" y="64.8">tiguació</tspan><tspan class="cls-24" x="45.9" y="64.8">n</tspan><tspan x="54.14" y="64.8">.</tspan></tspan></text><text class="cls-5" transform="translate(63 886.6)">Zap<tspan class="cls-25" x="26.19" y="0">a</tspan><tspan x="34.7" y="0">tillas</tspan><tspan class="cls-26"><tspan x="0" y="21.6">Son </tspan><tspan class="cls-27" x="33.95" y="21.6">d</tspan><tspan x="43.13" y="21.6">e cu</tspan><tspan class="cls-24" x="73.06" y="21.6">er</tspan><tspan x="87.34" y="21.6">o s</tspan><tspan class="cls-24" x="108.29" y="21.6">i</tspan><tspan x="112.93" y="21.6">ntétic</tspan><tspan class="cls-28" x="154.91" y="21.6">o</tspan><tspan class="cls-29" x="163.19" y="21.6">,</tspan><tspan x="166.75" y="21.6" xml:space="preserve"> ofrece p</tspan><tspan class="cls-24" x="231.63" y="21.6">r</tspan><tspan x="238.27" y="21.6">otec</tspan><tspan class="cls-24" x="269.25" y="21.6">c</tspan><tspan class="cls-30" x="276.88" y="21.6">i</tspan><tspan x="281.34" y="21.6">ón en </tspan><tspan class="cls-24" x="0" y="43.2">e</tspan><tspan x="7.63" y="43.2">l tob</tspan><tspan class="cls-30" x="41.58" y="43.2">i</tspan><tspan x="46.04" y="43.2">llo al po</tspan><tspan class="cls-27" x="106.96" y="43.2">s</tspan><tspan x="114.14" y="43.2">e</tspan><tspan class="cls-31" x="122.13" y="43.2">e</tspan><tspan x="129.76" y="43.2">r un cu</tspan><tspan class="cls-24" x="181.66" y="43.2">e</tspan><tspan x="189.29" y="43.2">llo alto.z</tspan></tspan></text><text class="cls-5" transform="translate(820.27 200.2)">P<tspan class="cls-20" x="9.47" y="0">r</tspan><tspan class="cls-22" x="15.53" y="0">o</tspan><tspan class="cls-16" x="24.34" y="0">t</tspan><tspan x="30.15" y="0">e</tspan><tspan class="cls-7" x="38.86" y="0">c</tspan><tspan class="cls-16" x="47.39" y="0">t</tspan><tspan x="53.21" y="0">or de pecho</tspan><tspan class="cls-8"><tspan class="cls-32" x="-85.35" y="21.6">C</tspan><tspan x="-76.05" y="21.6">on</tspan><tspan class="cls-33" x="-58.93" y="21.6">f</tspan><tspan class="cls-34" x="-53.8" y="21.6">e</tspan><tspan class="cls-21" x="-45.43" y="21.6">c</tspan><tspan x="-37.26" y="21.6">cionado </tspan><tspan class="cls-17" x="20.84" y="21.6">c</tspan><tspan x="29.01" y="21.6">on </tspan><tspan class="cls-20" x="49.73" y="21.6">t</tspan><tspan x="55.17" y="21.6">ejido calado </tspan><tspan x="-82.13" y="43.2">de poliés</tspan><tspan class="cls-20" x="-20.86" y="43.2">t</tspan><tspan x="-15.42" y="43.2">e</tspan><tspan class="cls-35" x="-7.05" y="43.2">r</tspan><tspan x="-1.55" y="43.2">. </tspan><tspan class="cls-32" x="6.26" y="43.2">C</tspan><tspan x="15.57" y="43.2">opas semirrí</tspan><tspan class="cls-18" x="100.38" y="43.2">g</tspan><tspan x="108.88" y="43.2">idas </tspan><tspan x="40.86" y="64.8">de poli</tspan><tspan class="cls-16" x="86.18" y="64.8">e</tspan><tspan x="94.46" y="64.8">tilen</tspan><tspan class="cls-20" x="124.56" y="64.8">o</tspan><tspan x="132.93" y="64.8">.</tspan></tspan></text><text class="cls-5" transform="translate(54.32 494.26)">P<tspan class="cls-11" x="9.47" y="0">r</tspan><tspan class="cls-10" x="15.53" y="0">o</tspan><tspan class="cls-16" x="24.34" y="0">t</tspan><tspan x="30.15" y="0">e</tspan><tspan class="cls-7" x="38.86" y="0">c</tspan><tspan class="cls-16" x="47.39" y="0">t</tspan><tspan x="53.21" y="0">or abdominal</tspan><tspan class="cls-8"><tspan x="0" y="21.6">Cue</tspan><tspan class="cls-7" x="26.37" y="21.6">r</tspan><tspan x="32.11" y="21.6">o sintéti</tspan><tspan class="cls-9" x="87.79" y="21.6">c</tspan><tspan class="cls-11" x="95.96" y="21.6">o</tspan><tspan x="104.33" y="21.6">, a</tspan><tspan class="cls-17" x="119.99" y="21.6">c</tspan><tspan x="128.16" y="21.6">olchado </tspan><tspan class="cls-17" x="185.96" y="21.6">c</tspan><tspan x="194.13" y="21.6">on espuma en la </tspan><tspan x="0" y="43.2">cintu</tspan><tspan class="cls-9" x="34.87" y="43.2">r</tspan><tspan class="cls-15" x="40.64" y="43.2">a</tspan><tspan x="48.74" y="43.2">. Equipado </tspan><tspan class="cls-9" x="124.68" y="43.2">c</tspan><tspan x="132.86" y="43.2">on una </tspan><tspan class="cls-21" x="182.52" y="43.2">c</tspan><tspan x="190.69" y="43.2">opa de políme</tspan><tspan class="cls-7" x="286.23" y="43.2">r</tspan><tspan class="cls-20" x="291.97" y="43.2">o</tspan><tspan x="300.34" y="43.2">.</tspan></tspan></text><text class="cls-5" transform="translate(64 200.2)"><tspan class="cls-36">P</tspan><tspan x="9.23" y="0">ole</tspan><tspan class="cls-25" x="30.83" y="0">r</tspan><tspan x="36.97" y="0">a</tspan><tspan class="cls-8"><tspan x="0" y="21.6">Sin mangas de pol</tspan><tspan class="cls-37" x="124.32" y="21.6">y</tspan><tspan x="131.38" y="21.6">es</tspan><tspan class="cls-20" x="147.33" y="21.6">t</tspan><tspan x="152.76" y="21.6">er </tspan><tspan class="cls-17" x="170.53" y="21.6">c</tspan><tspan x="178.7" y="21.6">on aplicaciones de </tspan><tspan x="0" y="43.2">s</tspan><tspan class="cls-17" x="7.58" y="43.2">a</tspan><tspan x="15.73" y="43.2">tín a ambos </tspan><tspan class="cls-21" x="98.51" y="43.2">c</tspan><tspan x="106.68" y="43.2">ostados.</tspan></tspan><tspan class="cls-38"><tspan x="0" y="64.8">	</tspan></tspan></text><text class="cls-5" transform="translate(63 329.25)"><tspan class="cls-39">V</tspan><tspan x="8.8" y="0">endas</tspan><tspan class="cls-8"><tspan x="0" y="21.6">De fib</tspan><tspan class="cls-9" x="39.78" y="21.6">r</tspan><tspan x="45.56" y="21.6">a de carbono que </tspan><tspan x="0" y="43.2">ha</tspan><tspan class="cls-9" x="16.78" y="43.2">c</tspan><tspan x="24.95" y="43.2">en que sean </tspan><tspan class="cls-7" x="111.1" y="43.2">r</tspan><tspan x="116.84" y="43.2">esis</tspan><tspan class="cls-11" x="144.29" y="43.2">t</tspan><tspan x="149.72" y="43.2">en</tspan><tspan class="cls-20" x="166.7" y="43.2">t</tspan><tspan x="172.13" y="43.2">es y </tspan><tspan x="0" y="64.8">lige</tspan><tspan class="cls-9" x="24.34" y="64.8">r</tspan><tspan x="30.11" y="64.8">as.</tspan><tspan class="cls-40" x="50.07" y="64.8">	</tspan></tspan></text><text class="cls-5" transform="translate(910.18 494.26)">Sho<tspan class="cls-18" x="27.02" y="0">r</tspan><tspan x="33.3" y="0">ts</tspan><tspan class="cls-8"><tspan x="-163.37" y="21.6">Hechos </tspan><tspan class="cls-17" x="-108.34" y="21.6">c</tspan><tspan x="-100.17" y="21.6">on s</tspan><tspan class="cls-21" x="-71.87" y="21.6">a</tspan><tspan x="-63.72" y="21.6">tén de poliés</tspan><tspan class="cls-20" x="23.7" y="21.6">t</tspan><tspan x="29.14" y="21.6">e</tspan><tspan class="cls-35" x="37.51" y="21.6">r</tspan><tspan x="43.02" y="21.6">. </tspan><tspan x="-179.38" y="43.2">Ligé</tspan><tspan class="cls-7" x="-150.06" y="43.2">r</tspan><tspan x="-144.32" y="43.2">os pa</tspan><tspan class="cls-17" x="-107.75" y="43.2">r</tspan><tspan x="-101.97" y="43.2">a el m</tspan><tspan class="cls-35" x="-61.4" y="43.2">o</tspan><tspan x="-53.17" y="43.2">vien</tspan><tspan class="cls-41" x="-24.82" y="43.2">t</tspan><tspan x="-19.39" y="43.2">o </tspan><tspan class="cls-17" x="-7.27" y="43.2">r</tspan><tspan x="-1.49" y="43.2">ápido y </tspan><tspan x="-192.18" y="64.8">fluido de piernas. </tspan><tspan class="cls-42" x="-70.26" y="64.8">	</tspan></tspan></text></svg>