<?xml version="1.0" encoding="utf-8"?>
<!-- Generator: Adobe Illustrator 26.1.0, SVG Export Plug-In . SVG Version: 6.00 Build 0)  -->
<svg version="1.1" id="Capa_1" xmlns="http://www.w3.org/2000/svg" xmlns:xlink="http://www.w3.org/1999/xlink" x="0px" y="0px"
	 viewBox="0 0 1000 1000" style="enable-background:new 0 0 1000 1000;" xml:space="preserve">
<style type="text/css">
	.st0{fill:#D8543C;}
	.st1{fill:#FFFFFF;}
	.st2{fill:#CC1719;}
	.st3{fill:none;stroke:#6F6F6E;stroke-miterlimit:10;}
</style>
<g id="Capa_1_00000022529941367496658810000003893962915341391530_">
	<image style="overflow:visible;enable-background:new    ;" width="1000" height="1000" xlink:href="cuerpofondo.jpg" >
	</image>
</g>
<g id="Capa_2_00000066489035924241846280000011274124639052472253_">
	<g id="zapatillas">
		<g>
			<path class="st0" d="M627.36,882.3l2.23,1.15l2.92,6.86l-0.2,10.32l-1.48,4.77l2.39,1.76l0.06,2.61l5.16,2.54l2.15,7.94
				l-1.75,4.19l2.04,1.63l3.98-1.07l1.6,5.91l5.04,3.66l4.68,9.44l3.91,10.53l2.64,9.78l-8.22,3.53l-8.5,4.05l-13.12,3.54
				l-16.18,3.28l-10.13,1.21l-54.03,13.94l-14.5,2.39l-10.38-2.88l2.25-12.19l7.98-5.21l12.46-5.99l6.91-6.02l10.13-9.08
				l11.83-12.27l1.27-2.42l4.97-5.28l3.58-11.24l-0.65-3.98l1.65-4.16l-1.9-6.26l-1.61-4.37l-2.07-2.94l-4.96-14.4l-0.64-7.91
				l2.01,0.33c1.89,1.46,4.09,1.74,4.09,1.74l0.92,5l8.58,0.96l1.28-7.12l6.05-2.07l4.15,1.94l11.33,0.87L627.36,882.3z"/>
			<polygon class="st1" points="643.4,965.39 638.48,968.47 632.12,962.31 617,953.72 596.85,943.87 599.91,940.2 617.69,949.17 
				626.55,953.55 632.03,956.44 638.12,960.04 			"/>
			<polygon class="st1" points="629.51,970.01 624.64,971.33 619.33,967.08 612.91,962.26 600.21,956.29 590.39,951.52 
				593.22,948.57 600.7,951.79 613.65,958.67 618.98,961.06 622.71,964.2 			"/>
			<polygon class="st1" points="616.6,975.91 611.23,977.36 606.82,972.87 599.4,968.31 592.58,964.36 586.28,961.58 583.55,960.14 
				586.12,957.04 592.42,959.05 600.78,963.13 607.49,967.44 613,972.07 			"/>
		</g>
		<g>
			<path class="st0" d="M520.52,876.61l2.33,1.07l3.12,6.78l-0.08,10.36l-1.49,4.84l2.51,1.68l0.1,2.61l5.4,2.37l2.33,7.89
				l-1.77,4.26l2.14,1.57l4.12-1.21l1.73,5.87l5.29,3.5l4.98,9.31l4.19,10.42l2.86,9.71l-8.5,3.83l-8.8,4.35l-13.6,4.01l-16.79,3.85
				l-10.52,1.56l-56.03,15.85l-15.05,2.9l-10.83-2.53l2.2-12.31l8.23-5.51l12.89-6.44l7.11-6.27l10.43-9.45l12.16-12.71l1.29-2.47
				l5.11-5.47l3.59-11.39l-0.72-3.97l1.67-4.23l-2.06-6.21l-1.72-4.33l-2.19-2.87l-5.32-14.27l-0.76-7.91l2.09,0.26
				c1.98,1.4,4.28,1.6,4.28,1.6l1.02,4.98l8.93,0.67l1.24-7.18l6.27-2.29l4.34,1.8l11.79,0.48L520.52,876.61z"/>
			<polygon class="st1" points="538.2,959.39 533.11,962.65 526.43,956.7 510.6,948.6 489.53,939.42 492.67,935.63 511.26,944.01 
				520.53,948.1 526.26,950.81 532.64,954.21 			"/>
			<polygon class="st1" points="523.8,964.51 518.75,966 513.18,961.92 506.45,957.31 493.16,951.76 482.89,947.31 485.8,944.26 
				493.62,947.23 507.17,953.69 512.75,955.89 516.66,958.92 			"/>
			<polygon class="st1" points="510.44,970.87 504.88,972.51 500.24,968.16 492.47,963.85 485.32,960.12 478.74,957.55 
				475.88,956.2 478.52,953 485.1,954.8 493.84,958.6 500.87,962.69 506.66,967.14 			"/>
		</g>
	</g>
	<g id="pecho">
		<path class="st0" d="M494.37,224.27c0,0-1.76-4.61-3.01-5.39c-2.85-1.8-13.17-0.35-13.17-0.35l-3.91,6.45
			c0,0-18.7,13.96-23.74,20.04c-5.03,6.07-11.56,13.92-13.41,28.9c-1.14,9.21,2.79,26.83,6.41,34.75
			c4.88,10.67,15.52,14.7,15.52,14.7s17.49-0.44,34.56,1.65c19.69,2.41,46.06,5.86,46.06,5.86l36.59-2.14l15.18-7.69l8.56,0.43
			v-38.86l-2.34-0.85c0,0-8.51-18.25-12.46-23.49c-5.84-7.76-21.06-19.46-27.63-26.48c-9.57-10.2-20.63-12.8-20.63-12.8
			s-2.02-4-3.41-4.66c-2.86-1.35-6.96-0.36-13.72,0.39c-1.67,0.19-2.51,6.83-2.51,6.83L494.37,224.27z"/>
		<path class="st2" d="M461.03,238.37c-2.56,6.51-0.28,21.27,0,28.35c0.23,5.87-1.9,17.7-0.89,23.46
			c1.6,9.1,14.71,33.38,14.71,33.38l39.42,2.79c0,0-0.21-18.34,0-24.44c0.25-7.43-0.97-22.97,2.01-29.65
			c5.84-13.12,38.99-39.77,38.99-39.77s-14.11-10.63-19.6-11.73c-8.74-1.75-35.2,5.38-35.2,5.38l-27.42-0.24
			C473.05,225.91,462.67,234.21,461.03,238.37z"/>
	</g>
	<g id="abdominal">
		<path class="st2" d="M443.92,548.97c0,0,5.08,11.95,8.37,14.86c0.83,0.73,3.03,1.79,4.19,1.81c4.83,0.1,7.78-4.71,17.95-6.52
			c2.9-0.52,8.46-2.44,11.37-2.9c9.99-1.57,40.48-2.54,40.48-2.54l22.33,2.17c0,0,18.71-0.08,24.92,0.36
			c4.57,0.33,13.62,1.71,18.14,2.36c3.55,0.5,14.16,2.17,14.16,2.17l0.8-3.44l-0.8-2.17l0.98-8.08l1.22,3.37l1.79-1.27v7.19
			c0,0,2,1.35,2.19,2.05c0.34,1.18-1.4,4.71-1.4,4.71s0.64,3.05,0,3.8c-0.94,1.12-4.44,1.33-5.98,1.45
			c-2.34,0.19-7.03-0.56-9.37-0.72c-6.48-0.45-19.43-1.35-25.92-1.63c-7.47-0.33-29.91-0.72-29.91-0.72l-44.27,0.26
			c0,0-6.43-1.21-8.57-0.98c-2.27,0.24-6.44,2.15-8.57,2.9c-3.59,1.26-10.76,3.96-14.56,4.53c-1.62,0.25-4.96,0.28-6.58,0
			c-3.43-0.6-12.96-4.71-12.96-4.71v-5.07l2.39-1.09l-5.58-6.34l0.8-1.09l4.98,4.35L443.92,548.97z"/>
		<path class="st0" d="M431.22,461.02v-16.43l4.9-4.73l1.23-2.78h16.55h68.64h54.85l3.06-1.95l30.03,1.67l5.52,6.13l-1.53,15.31
			l-1.53,48.17l-1.23,35.36l-4.9,5.29l-5.21-1.67l-2.45-13.64c0,0,1.85-17.9-2.69-21.33c-1.4-1.06-5.49,0.09-7.26,0.46
			c-2.38,0.5-6.93,2.22-9.05,3.33c-1.94,1.02-5.42,3.62-7.05,5.01c-0.67,0.57-1.7,2.02-2.45,2.51c-1.42,0.93-5.22,1.36-6.44,2.51
			c-4.69,4.4-7.24,17.16-9.81,22.83c-2.35,5.19-6.37,15.94-9.81,20.6c-2.2,2.99-7.48,8.73-11.03,10.3
			c-3.26,1.44-10.78,1.5-14.4,1.39c-2.72-0.08-8.33-0.5-10.73-1.67c-4.82-2.35-12.13-10.25-15.02-14.48
			c-2.2-3.23-4.57-10.61-5.82-14.24c-1.47-4.24-2.97-13.14-4.9-17.23c-0.29-0.6-1.13-1.68-1.53-2.23c-1.82-2.43-5.35-7.41-7.66-9.47
			c-2.01-1.78-6.61-4.84-9.19-5.85c-1.08-0.42-3.59-1.38-4.6-0.84c-2.95,1.61-3.26,8.91-3.98,11.97c-0.63,2.68-0.85,8.19-1.53,10.86
			c-0.64,2.51-3.68,9.75-3.68,9.75l-3.37,3.03h-4.9l-5.52-4.87l-0.31-15.97l-1.84-16.98l-1.53-29.79L431.22,461.02z"/>
	</g>
	<g id="short">
		<path class="st0" d="M650.9,672.93c0,0-30.8,6.81-41.18,8.78c-10.54,2-31.6,6.54-42.46,7.06c-5.2,0.25-16.43,0.7-20.76-1.41
			c-8.63-4.21-15.07-19.89-19.26-26.81c-5.37-8.87-14.03-27.23-18.2-36.43c-4.08-9-10.74-27.34-14.84-36.34
			c-3.88-8.53-16.99-33.76-16.99-33.76l-8.5-28.87l0.9,26.15c0,0,17.27,31.7,21.75,42.58c2.71,6.59,5.65,20.25,8.5,26.81
			c2.33,5.36,9.22,15.49,11.64,20.83c1.81,3.99,8.39,12.56,5.72,16.29c-1.56,2.18-9.37,2.81-12.63,3.44
			c-10.17,1.95-31.14,3.67-41.54,4.81c-8.72,0.96-26.43,5.37-34.93,3.64c-7.99-1.62-22.85-9.62-25.67-15.29
			c-2.21-4.45,4.53-13.87,4.91-18.59c0.96-12.02-5.63-36-4.91-48.03c0.4-6.63,5.85-26.2,5.85-26.2l-1.89-41.93l6.36-37.07
			l15.35-10.35l8.5-24.06l4.25-17.18l162.95,0.17l5.9,42.82l15.69,7.18l9.23,16.48l1.63,22l6.13,48.81l3.78,34.37l4.72,25.81v19.13
			V663L650.9,672.93L650.9,672.93z"/>
		<polygon class="st1" points="601.01,435.12 601.01,467.66 524.12,470.38 472.24,467.66 445.81,467.66 437.31,467.66 
			444.87,449.93 448.64,435.12 552.48,435.12 		"/>
		<polygon class="st0" points="533.2,441 533.2,461.93 484.17,461.93 484.17,441.63 		"/>
		<polygon class="st2" points="524.12,655.07 508.68,660.61 497.87,648.03 488.61,628.29 484.17,610.75 478.52,576.27 466.51,560 
			461.84,543.73 461.84,529.15 468.71,525.16 474.85,543.24 483.19,565.1 497.2,584.95 508.68,610.75 519.16,628.29 524.12,645.24 
					"/>
	</g>
	<path id="bucal" class="st2" d="M449.87,160.7c0,0-2.31,3.21-2.54,4.48c-0.36,2,1.27,8.04,1.27,8.04s2.03,8.81,3.93,10.57
		c1.67,1.55,6.32,3.46,8.58,3.81c6.22,0.95,18.02,2.31,24.28,1.63c4.2-0.46,14.09-2.76,18.12-4.03c3.04-0.96,8.74-3.24,11.05-5.44
		c2.34-2.21,3.44-9.08,3.44-9.08l-1.1-10.33c0,0-2.19,2.7-6.33,3.81c-1.2,0.32-3.24,0.98-4.76,1.43c-2.22,0.66-6.85,1.15-9.15,1.42
		c-2.59,0.31-7.01,0.66-9.61,0.81c-2.49,0.15-6.92-0.36-9.41-0.56c-1.28-0.1-6.46-0.31-6.46-0.31l-2.83,3.72l-1.45-3.99
		c0,0-8.49-0.81-11.23-1.52c-1.04-0.27-3.16-0.88-3.99-1.56C451.02,163.06,449.87,160.7,449.87,160.7z"/>
	<g id="guante">
		<g>
			<g>
				<path class="st2" d="M604.65,389.48c-4.67-0.75-14.22,0.16-18.61,1.66c-5.42,1.86-14.41,9.41-19.28,12.42
					c-5.18,3.2-14.87,11.72-20.95,12.41c-4.55,0.51-13.21-6.64-17.8-7.38c-2.3-0.37-4,2.58-9.36,1.72
					c-8.09-1.29-19.94-6.41-23.4-22.53c-3.54-16.47-0.09-25.39,4.29-32.03c4.64-7.03,13.38-16.39,16.3-17.45
					c5.13-1.85,6.55-2.05,7.31-2.22c20.15-4.54,28.92,2.87,38.21,5.89c4.23,1.38,11.74,7.02,16.02,8.19
					c5.86,1.59,18.27-1.03,23.94,1.26c1.77,0.71,5.96,5.01,5.96,5.01"/>
				<path class="st2" d="M641.41,405.06"/>
				<path class="st2" d="M607.28,356.43c0,0,1.65,4.98,0.96,17.17c-0.63,11.1-5.46,15.67-5.46,15.67"/>
			</g>
		</g>
		<path class="st0" d="M553.62,380.36c-2.4-2.32-5.09-4.35-7.89-6.06c-1.5-0.91-3.05-1.64-4.6-2.44c-2.16-1.12-2.21-1.27-1.45-3.7
			c1.89-6.06,6.61-9.94,4.35-17.07c-1.72-5.41-5.11-9.93-10.07-12.31c-21.34-10.23-52.23,8.86-51.32,33.99
			c0.5,13.89,12.18,27.19,23.17,33.76c4.25,2.54,8.8,4.38,13.46,5.51c5.29,2.18,10.76,3.55,15.94,3.76
			c11.36,0.46,24.8-6.77,25.35-20.18C560.79,389.97,557.57,384.16,553.62,380.36z"/>
	</g>
	<g id="venda">
		<path class="st0" d="M426.99,331.53l-8.54-2.53l-22.99-3.77c-0.12-0.04-11.89-4.12-15.13-6.45c-2.65-1.9-5.66-5.84-8.57-9.65
			c-2.87-3.76-5.58-7.31-8.1-9.25c-3.31-2.56-12.31-7.41-17.01-7.23c-2.36,0.1-5.12,1.7-8.04,3.39c-3.08,1.78-6.26,3.63-8.66,3.39
			c-1.28-0.13-3.04-1.57-4.74-2.96c-2.03-1.66-3.95-3.23-5.64-3.24c-0.01,0-0.03,0-0.04,0c-4.11,0-11.12,3.42-14.47,7.07
			c-1.47,1.61-2.16,3.12-2.03,4.52c0.11,1.22,1.51,2.48,2.99,3.8c1.12,1,2.39,2.14,2.57,2.93c0.14,0.6-0.02,0.69-0.67,1.04
			c-1.36,0.72-3.64,1.94-2.66,9.65c0.34,2.68,2.45,4.13,4.15,5.31c0.91,0.63,1.77,1.22,2.14,1.86c0.42,0.72,0.27,1.21,0.04,1.95
			c-0.4,1.3-0.95,3.09,1.74,6.77c0.63,0.86,2.14,1.87,3.74,2.94c1.51,1.01,3.07,2.05,3.59,2.79c0.37,0.53,0.2,1.07-0.13,1.98
			c-0.63,1.74-1.49,4.11,3.57,7.29c3.48,2.18,6.13,2.12,8.47,2.06c0.85-0.02,1.65-0.04,2.46,0.04c0.93,0.1,2.2,0.07,3.55,0.03
			c1.96-0.04,4.18-0.1,5.47,0.26c1.07,0.3,2.58,1.3,4.04,2.26c1.57,1.04,3.19,2.11,4.46,2.44c4.3,1.12,16.54-1.28,17.05-1.38
			l10.48-1.89l48.98,14.15l0.2-0.34c0.13-0.21,3.15-5.37,4.29-19.52C434.58,338.18,427.3,331.79,426.99,331.53z"/>
		<g>
			<g>
				<path class="st3" d="M428.8,370.78"/>
				<path class="st3" d="M426.66,332.22l-8.3-2.42l-23.08-3.79c0,0-11.92-4.12-15.26-6.52c-5.25-3.77-11.58-14.98-16.68-18.92
					c-3.54-2.74-12.3-7.31-16.68-7.12c-4.76,0.2-11.94,7.26-16.77,6.78c-2.96-0.29-7.4-6.18-10.34-6.2
					c-5.33-0.03-16.47,6.22-16.04,11.03c0.18,1.97,5.09,4.7,5.55,6.66c0.67,2.87-4.74-0.46-3.33,10.74
					c0.49,3.88,5.07,4.97,6.23,6.97c1.4,2.42-2.33,3.09,1.76,8.68c1.17,1.6,6.21,4.12,7.34,5.74c1.57,2.26-3.87,4.63,3.29,9.12
					c4.57,2.87,7.57,1.71,10.71,2.03c2.28,0.23,6.86-0.32,9.1,0.31c2.33,0.65,6.14,4.08,8.49,4.7c4.23,1.1,16.83-1.39,16.83-1.39
					l10.6-1.91l48.72,14.08c0,0,3.08-5.1,4.22-19.3C434.06,338.56,426.66,332.22,426.66,332.22"/>
				<path class="st3" d="M350.81,293.98c0,0,3.21,4.28,4.69,7.73c0.64,1.49,0.96,2.82,0.56,3.59c-0.96,1.84-5.38,3.4-6.28,5.26
					c-1.28,2.65,0.89,7.51-0.32,10.19c-1.12,2.49-7.88,5.3-10.93,4.34c-4.84-1.52-8.71-12.39-8.7-16.82
					c0.01-2.84,5.64-9.61,5.64-9.61l18.55-0.41"/>
				<path class="st3" d="M319.09,307.78l6.33,14.15l-9.11,4.82l-7.25-15.03C309.07,311.73,316.3,308.1,319.09,307.78
					c2.62-0.29,10.79,1.44,10.79,1.44"/>
				<path class="st3" d="M312.27,331.02c0,0,5.2-5.88,7.56-7.18c3-1.66,12.72-3.59,12.72-3.59l3.87,16.15"/>
				<path class="st3" d="M345.19,324.02c0,0,3.3,3.05,3.53,4.32c0.31,1.75-1.22,5.24-2.67,6.25c-2.88,2.01-11.37,1.37-14.76,2.69
					c-2.92,1.13-10.23,6.59-10.23,6.59"/>
				<path class="st3" d="M346.05,334.58c0,0,6.61,1.5,7.45,3.18c1.33,2.67-2.08,8.32-4.3,10.07c-0.91,0.72-3.77,0.56-4.86,1.07
					c-2.02,0.95-7.03,6.15-7.03,6.15"/>
			</g>
			<line class="st3" x1="419.78" y1="368.45" x2="420.13" y2="330.09"/>
			<polyline class="st3" points="412.13,328.78 405.61,364.08 393.63,359.83 401.93,327.19 395.28,326.02 385.16,358.17 			"/>
			<line class="st3" x1="377.16" y1="357.23" x2="388.04" y2="323.31"/>
			<line class="st3" x1="380.02" y1="319.5" x2="362.86" y2="359.7"/>
			<line class="st3" x1="374.69" y1="314.03" x2="352.65" y2="360.01"/>
			<line class="st3" x1="353.5" y1="337.76" x2="370.81" y2="309.03"/>
			<line class="st3" x1="367.54" y1="304.88" x2="348.72" y2="328.33"/>
			<polyline class="st3" points="363.71,301.31 351.13,309.9 331.67,305.31 			"/>
			<line class="st3" x1="325.62" y1="309.27" x2="324.21" y2="296.54"/>
			<line class="st3" x1="314.06" y1="309.68" x2="311.08" y2="297.38"/>
			<line class="st3" x1="329.36" y1="338.51" x2="321.3" y2="323.71"/>
			<polyline class="st3" points="341.48,335.91 349.2,347.83 344.17,355.31 			"/>
			<line class="st3" x1="341.95" y1="350.69" x2="332.28" y2="337.09"/>
			<line class="st3" x1="326.81" y1="340.28" x2="336.52" y2="354.18"/>
		</g>
	</g>
</g>
</svg>
