<svg id="Capa_1" data-name="Capa 1" xmlns="http://www.w3.org/2000/svg" viewBox="0 0 845.51 469.62"><defs><style>.cls-1{fill:#9c9b9b;stroke:#c0363e;stroke-miterlimit:10;}.cls-2{fill:#c0363e;}.cls-3{fill:#601b1f;}</style></defs><path class="cls-1" d="M63.75,58.42l10.78-1.9,3.81-1.27-3.17-7.61s-4.44-6.14-4.12-6.56-2.86-13.74-3.49-14.37,3.17-8.25,2.53-8.88S78.34,5.17,78.34,5.17L86,2,105.09.51s6.87,3.36,6.87,4,5.49,9.17,6.23,10,1.06,8.73.43,10,1.37,8.91.63,9.51.31,5.75,0,7-1.85,5.39-1.85,5.39-3.54,5.07-4.17,5.71,3.09.81,3.09.81l4.88,4.5s.91,21.33,2.17,22-13.32,17.76-12.68,18.4-28.1-7.08-29.59-7.66S66.29,71.74,65.65,71.74,63.75,58.42,63.75,58.42Z"/><path class="cls-1" d="M137.65,50.49a21.19,21.19,0,0,1,7.61-3.8c1.53-.53,4.09,0,5.71,0a34.73,34.73,0,0,1,7,1.27c2.78.73,6.07,1.32,8.88,1.9A50.61,50.61,0,0,1,176.34,53c.82.35,1.83,2,2.54,2.54,1.32,1,4.06,3.36,5.74,3.49,2.22.16,6-3,8.21-3.49a35.9,35.9,0,0,1,7.61-.64c1,0,2.85.77,3.81.64,1.52-.22,4-2.35,5.55-2.7a23.44,23.44,0,0,1,3.84,0h6.47c1.62,0,7.89.68,9.51.79,3.8.26,8.29.67,12,1.27,1.75.28,5.68.06,7,1.27,1.91,1.79,2.22,7.55,2.53,10.15a19,19,0,0,1,0,5.83A20.72,20.72,0,0,1,246.74,79c-1.45,1.35-5.14,3-7,3.8a46.81,46.81,0,0,1-6.35,1.9A93.31,93.31,0,0,1,223.28,86c-3,.19-10.76,0-12,0s-4.55.37-6,0a14,14,0,0,1-4.16-2.53c-.64-.64-2.46.18-3.81.63A45.58,45.58,0,0,0,192.2,86c-2.84,1.27-4.44,1.91-5.71,1.91a34.65,34.65,0,0,0-6.35,1.26c-1.9.64-3.06,1.56-4.44,1.91-2.53.63-5.17,1.93-7,2.53a18.94,18.94,0,0,1-5.71.64,35.44,35.44,0,0,1-5.71.63H148.4c-1.87,0-5.68-5.07-7-6.34s-3.46-7.46-3.84-10.14a33.48,33.48,0,0,1,0-7.62c.29-1.79,1.94-5.71,1.94-7s-3.77-6-3.81-8.24C135.72,54.5,136.54,51.38,137.65,50.49Z"/><path class="cls-1" d="M43.14,306.37c-1.91.64-3.81,12.69-4.44,14s0,10.05,0,10.05l-9.52,17.85-6.34,74.22S26,438.3,27.91,436.4s10.15-8.88,10.15-8.88l1.27-13.32,20.93-39.32,3.17-33.62L78,312.08Z"/><path class="cls-1" d="M156.68,314.62c-1.27.63,1.9,15.85,1.9,15.85L174.44,340l13.32,20.3,30.44,24.1L230.25,418,241,428.79s9.51-21.57,8.24-20.93-13.95-24.1-13.95-24.1S215.66,333.65,214.4,333s-27.12-20.3-29.1-18.39-17.84-4.44-17.84-4.44Z"/><path class="cls-2" d="M67.72,214.58c-2.14,1.51-6.24,6.1-7.24,7.24a1.36,1.36,0,0,0-.3.57l-3,11a1.45,1.45,0,0,0,0,.8l2.3,7.46a1.41,1.41,0,0,1,0,.79l-2.4,9.06a.9.9,0,0,1-.08.23c-.41.89-3.22,6.9-4.39,8.07s-1.9,8.88-2.21,9.4a.47.47,0,0,0,0,.17l-1.51,6.07a1.62,1.62,0,0,1-.17.41l-4.92,8a.83.83,0,0,0-.07.13L38.2,295.67a1.44,1.44,0,0,0-.14.62v15.1a.41.41,0,0,0,0,.11l.57,8.08a1.46,1.46,0,0,0,.7,1.13l29,17.38a1.44,1.44,0,0,0,.45.17l12.7,2.66a1.47,1.47,0,0,0,.75,0l5.12-1.71a1.53,1.53,0,0,0,.4-.21l15.68-11.68a1.45,1.45,0,0,0,.51-.71l3.89-12.09a1.84,1.84,0,0,0,0-.25l1.94-14.4c0-.06,0-.13,0-.2l-.06-12.06a3,3,0,0,1,.15-.94h0a1.43,1.43,0,0,1,2.77.18l.88,4.71,2.53,12s0,0,0,.07l2.53,9.48s1.9,8.88,3.17,8.88c1.11,0,7.12,5.87,8.57,7.3a1.4,1.4,0,0,0,.75.39l10.2,1.8a1.47,1.47,0,0,1,.28.08l14.06,5.53a1.42,1.42,0,0,0,1.35-.16c2.14-1.52,6.4-4.56,8.56-6.06,3.39-2.36,10.24-7,13.65-9.31a1.32,1.32,0,0,1,.67-.24c1.65-.15,5-.43,6.61-.6s6.89-.75,6-1.64,3-3.38.08-6.26c-2.57-2.56-3.85-7.84-4.11-9a1.53,1.53,0,0,1,0-.43c.09-1,.4-5.65-1.29-6.77-1.9-1.27-1.27-8.88-3.17-10.79-1.72-1.72-2.14-7.06-2.2-8.07a1.75,1.75,0,0,0-.06-.33c-.39-1.23-1.18-3.68-1.55-4.92-.83-2.81-2.35-8.48-3.14-11.31a1.18,1.18,0,0,0-.07-.2l-3-6.49a1.38,1.38,0,0,1-.12-.8c.26-1.71,1.21-8.18,1.21-10.37,0-2.54,1.27-12,.64-12.37s.86-6,.43-8.88c-.39-2.55-1.44-8.38-1.66-9.6a1.37,1.37,0,0,0-.16-.44l-2.55-4.58a1.41,1.41,0,0,0-1.53-.71c-7.51,1.53-22.54,4.61-30.06,6.13-3.94.8-11.84,2.37-15.78,3.16l-.15,0-27.73,2.52a.74.74,0,0,1-.21,0l-21.16-1.24a1.33,1.33,0,0,1-.56-.15l-5.41-2.71A1.44,1.44,0,0,0,67.72,214.58Z"/><path class="cls-2" d="M68.51,191.45c.32,3.34,9.41,13.85,12.16,15.26s32.81,0,32.81,0L160,191.45l-13.18-63.29,4.74-35.11-16.81-41s-1.9-1.9-10.15-1.9c-9.53,0-8.88,1.9-8.88,1.9l5.08,15.22-6.57,21.17-12.46,6.74L81.51,87,68.83,57.79S66.92,56.52,60,56.52c-8.91,0-9.52,3.8-9.52,3.8V75.5L60.58,92l-1.27,6.34-8.88,9.17s-.63,6.55,0,9.16,5.08,17.83,5.08,17.83l8.24,9.51s1.27,11.42.64,13.32,1.26,12.69,1.26,12.69Z"/><path class="cls-1" d="M33,120.52c-2.54-1.52,0-28.23,0-28.23l7-24.67,14.9-7.3c.32.32,4.52,22.55,4.52,22.55s4,15.19,4.36,15.51-8.88,18.33-8.88,18.33l-4.1,10.14,13-15.15L73,104.5l10.15-.73,6.59,7.93-3,15.15s-4.81,4.83-7.35,6.1-18.52,12.76-18.52,12.76l-10.66,9.44s-9.16-4.62-11.55-3.58-6.7-5.1-6.7-5.1l1.13-13Z"/><path class="cls-3" d="M67.24,96.8c-.63.63-3.17,10.14-3.17,10.14L63,108.42a9.49,9.49,0,0,0-1.61,8h0a2.27,2.27,0,0,0,.74,1.17l5.15,4.28s5.76,3.7,7,4.13a38.26,38.26,0,0,0,3.8,1.09,8.36,8.36,0,0,0,6.82-1.34l1.43-1s3.17-5.07,3.17-5.7,1.38-7,1.64-6.66,2.8-3.49,2.8-3.49l3.35-1.11a46.92,46.92,0,0,0,5.91,0,22.88,22.88,0,0,0,6.6-2.7c.63-.63,4.29-4.47,5.07-6.34.93-2.21,2.72-5.89,3.17-8.25a48.78,48.78,0,0,0,0-8.88,29.43,29.43,0,0,0-4.44-12,39.69,39.69,0,0,0-8.27-9.2A61.13,61.13,0,0,0,99,56.2c-3.17-1.62-9.83-3.92-13.32-3.17-4.16.89-10,6.41-12,10.15-1.4,2.56-1.42,8.71-2.53,11.42-.88,2.11-4.44,2.53-5.08,7.61-1,8.2,1.27,11.41,1.27,11.41Z"/><path class="cls-3" d="M263.86,85.36c-2.15-.56-6.86-2.18-9.18-3a8.78,8.78,0,0,0-2.78-.48h-.56a12.94,12.94,0,0,1-8.65-3.58h0a2.68,2.68,0,0,1-.78-1.3L240.4,70.8a8.62,8.62,0,0,1-.2-1.13,69.21,69.21,0,0,1-.51-7.56,31,31,0,0,1,.83-3.72,6.77,6.77,0,0,1,4.72-4.67l.11,0a9,9,0,0,1,3.14-.36c2,.12,5.68.07,6.18,0a28.53,28.53,0,0,1,6.35,0c.28,0,1.65-.05,3.09,0a7.43,7.43,0,0,0,3.65-.82l.67-.34.37-.18a13,13,0,0,0,3.28-2A19.78,19.78,0,0,1,278,46.32c.94-.12,6.54-.72,8.78-.2,2.64.6,7.15,1.41,9.69,2.48A69.44,69.44,0,0,1,305.23,54,39.26,39.26,0,0,1,314.86,65c1.22,2.15,4,7.45,4.92,12.27a57,57,0,0,1,.9,7.6c0,3.55-1.06,10.31-3.54,12.66-2.95,2.8-11.3,4.12-16,3.49-3.22-.43-9.28-4.18-12.5-4.93-2.51-.59-4.71,2-10-.57-5.94-2.9-8.73-5.61-9.89-7a8.79,8.79,0,0,0-2.15-1.88l-.35-.22A8.15,8.15,0,0,0,263.86,85.36Z"/><path class="cls-2" d="M78.17,52.32a1,1,0,0,0,.47-1.14L74.53,37.49a28.91,28.91,0,0,1-.63-5.71c1.27-1.9,3.65-4.73,6.37-2.88l7.58,3.52c.05,0,4.44,2.53,6.35,1.9s3.7-1,4.44-1.27c0,0,3.17-2.54,3.8-3.81l2.7-6.44A5.82,5.82,0,0,1,109.73,20c1.38-.06,2.5.45,2.76,2l3.84,24.38c.35,2,.55,3.68,2.63,3.63,0,0,1.85.3,1.88.29,2.28,0,4.56-4.92,3.73-7-1.92-4.88-5.92-12.35-5-19.67.63-5.08-1.27-10.15.25-15.47.94-3.32-2.41-5.64-4.77-6.26,0,0-25-6.4-51.35,9.25-1.45.86-1.72,6.37-1.49,8a24.1,24.1,0,0,1,5.42,14.35c.26,4.82.55,19.29.55,19.29a1,1,0,0,0,.85.84l2.43.39a8.72,8.72,0,0,0,5.82-1.12Z"/><path class="cls-2" d="M22.84,405.46,27.25,408a10.62,10.62,0,0,0,8.39,1c3.48-1,6.55-.46,6,.85-2,4.73-4.53,22.16-4.53,22.16s2.23,9.36,2.54,12.05c.26,2.36,4,3.34,3.8,5.71-.17,2.12-5,6-6.34,7.61-1.71,2.05-7.15,3.38-8.24,4.44s-6.93,5.74-10.15,6.34c-2.21.42-4.22,2-6.35,1.27s-7.33-.78-8.88-2.53S.73,460.83.32,458.66c-.25-1.34-.58-4.22,0-5.45.83-1.77,4.54-3.77,5.71-5.33,1-1.37,6.59-4.3,7.61-6.35,1.91-3.8,3.07-8.16,5.08-11.41,1.34-2.18,3.49-9.62,3.49-9.62Z"/><path class="cls-2" d="M219.6,389.52c1.21-1.48,5.83.56,7.66,0a17.63,17.63,0,0,0,4.58-3.08c.81-.71,1.8-3.48,2.85-3.23,2.09.49,2.2,4.6,3.49,6.31,1.11,1.48,2.54,1.9,7,5.71.7.6,2.77,4.79,3.6,5.39,1.25.9,4.67.77,5.91,1.68a9.65,9.65,0,0,1,2.54,3.8c.4,1.31,0,4.1,0,5.47s.43,4.18,0,5.48-2.56,3.09-3.17,4.27a15.13,15.13,0,0,0-1.27,5.08c0,1.27-.6,7.25-.15,9.61.25,1.33,2,3.63,2,5a9.36,9.36,0,0,1-3.8,7.52c-1.91,1.27-14,9.6-17.76,9.6-2.62,0-6.68,1.4-8.73.07s-3.6-3.82-4.78-5.11c-.67-.73-3-2.57-2.35-3.2s7-5.08,7.61-7,5.08-9.6,5.71-10.87a23.23,23.23,0,0,0,1.27-5.62c0-.64-1.24-3.57-1.27-4.44a17.15,17.15,0,0,0-.63-4.44c-.56-2.22-2.44-5.21-3.18-7-.56-1.35-1-4.3-1.64-5.63s-2.76-3.51-3.34-4.87C220.73,397.57,217.91,391.61,219.6,389.52Z"/><path class="cls-1" d="M625.24,54.62l-.63-8.88L624,39.66l3.17-6.61,2.54-9.51s2.54-6.35,3.17-6.35,4.44-.63,4.44-.63l8.25-1.24,4.75-1,6.23,1.4,13.12-.43,9.52,1.27,5.07,3.8,2.54,5.08L689,32.17,686.13,40v6.34l-2.44.15.54,3,1.29,2.54,1.25,1.27-3.08,1.27,1.17,2.53-1.9,7-15.22,9.51h-26.6l-12.09-9.51Z"/><path class="cls-2" d="M626.83,27c-1,2.41-3.8,7.86-2.54,10.15.58,1,3.27,1.51,4.44,1.73s5.24.59,6.34.81a29.43,29.43,0,0,1,10.47,4.19c1.71,1.26,5.39,6.59,5.39,6.59v7.73L662,61.45V57.7s5.61-13.63,9.49-16.32c1.26-.87,4.51-1.05,6.05-1,2.58,0,7.95,3.26,10.15,1.91,1-.61,1.11-3.3,1.27-4.44a55.84,55.84,0,0,0,0-5.64,9.35,9.35,0,0,0-.64-3.88,4.21,4.21,0,0,0-3.17-1.9,13.47,13.47,0,0,0-2.54,0,36.78,36.78,0,0,1-4.44.63,111.34,111.34,0,0,1-11.41,0c-1.28-.08-4.3.38-5.08-.63-1.46-1.9,2.69-7.58,1.27-9.51-1.61-2.21-8.47-3.38-10.78-1.91-2.08,1.33-.51,8.13-2.54,9.52-.8.54-2.9-.22-3.84-.43-2.6-.57-7.52-2.77-10.11-3.38-1.09-.26-3.41-1.07-4.44-.63C629.37,20.86,627.64,25.12,626.83,27Z"/><path class="cls-3" d="M665.2,124.39c2.74-1.6,11.89-10.07,14.59-14,1.65-2.36,3.26-7.32,3.81-10.15.61-3.14-1.91-12.68-1.91-12.68l-19,3.17-16.49,3.81,1.27,22.2s-2.54,8.41-1.27,8.33,8.88,3.72,8.88,3.72S662.81,125.78,665.2,124.39Z"/><path class="cls-1" d="M575.77,130.73c-3.11-2.91-7-11-7.61-15.22-.43-3.21,1.67-9.57,2.53-12.69C572,98.28,577,85.06,577,85.06s13-13.44,18.32-16.57c4.63-2.72,15.83-4,20.37-6.9,2.78-1.77,6.29-7.85,9.14-9.51,3.33-1.94,11.1-3.8,15-3.81,1.31,0,4.27.24,5.07,1.27.39.5-.41,2.05,0,2.54,1.25,1.47,5.69,1.27,7.62,1.27s5.42-1.23,7.26-1.27a51.4,51.4,0,0,1,9.86,1.27c5.08,1.21,14.59,5.79,19.66,7,2.65.62,8.12.76,10.79,1.27,4.79.93,14.18,3.83,19,4.44,6.92.88,21,0,27.91.64,6.75.6,21.63.5,26.64,5.07,2.55,2.34,4,9.87,3.8,13.32-.18,2.76-2.28,8.41-4.44,10.15-1.89,1.52-7.14,1.42-9.51,1.9-3.81.78-11.34,3.08-15.23,3.17-7.06.17-27.9-4.44-27.9-4.44L691.21,91.4s-18.85,1.68-24.74,3.81c-3.48,1.26-9.41,5.89-12.69,7.61-6.92,3.64-21.93,8.66-28.48,12.93-4.71,3.07-11.8,12.36-16.77,15-4.72,2.48-15.4,5.5-20.71,5.07C584.56,135.55,578.15,133,575.77,130.73Z"/><path class="cls-1" d="M475.23,410.14c1.9,1.26,15.22-15,15.22-15s18.95-17.32,24.11-24.1c3.52-4.63,1.27-8.51,11.41-20.3,12.73-14.78,41.87-19,41.87-19s35.52-3.17,34.88-1.9-2.91,18.46-7,22.83c-3.83,4.12-15.42,6.17-19.67,8-4.44,1.9-14.27,12.08-19,15.48-10.36,7.41-43.77,26-43.77,26s-14.59,11.16-16.49,12.43-16.49,5.07-17.76,5.07S475.23,410.14,475.23,410.14Z"/><path class="cls-1" d="M654.79,308.91c1.21.63,8.83,13.95,8.83,13.95s-5.75,27-4.42,35.9c1.49,10,13.93,27.23,16.47,37.05,1.51,5.84,5.71,23.21,5.71,23.21l13.9,20.08s3.86-10.57,2-11.84-5.07-13.32-5.07-13.32.25-11.63.63-14.59c1.91-14.59,5.78-39.43,4.44-52.38-.46-4.48-1-15.44-1.26-19.93-.46-6.54,2.53-15.85-.26-23.56-1.27-3.51-9.26-11.7-9.26-11.7l-29.08,11.7Z"/><path class="cls-2" d="M651.25,220.8a87.07,87.07,0,0,1,5.07,10.78l5.08,8.25c.06.26,8,17.39,8,17.39a1.55,1.55,0,0,0,.07.23c.39.89,3.57,8.48,4.66,9.65s2.89,7.1,3.17,7.61c0,.06,14.84,21,14.84,21a1.6,1.6,0,0,1,.13.62l-32.67,23.22a1.22,1.22,0,0,1-.38-.22S644.92,304,644.9,303.89L631,291.59a1.41,1.41,0,0,1,0-.2L628.41,288c0-.31-3.16-1.1-3.25-1.4h0a1.32,1.32,0,0,0-2.59.18l-.82,4.71-2.37,12s0,0,0,.07L617,313.09s-1.78,8.88-3,8.88-6.65,5.87-8,7.3a1.32,1.32,0,0,1-.71.39l-9.52,1.8a1.29,1.29,0,0,0-.26.08s-31.74,7.38-34.64,4.7c-4.83-4.47,5.61-65.68,6.34-68.5,0-.07-1.94-13.25-1.94-13.25a1.46,1.46,0,0,0,.11-.8c-.24-1.71-1.13-8.18-1.13-10.37,0-2.54-1.19-12-.59-12.37s-.81-6-.4-8.88c.36-2.55,1.34-8.38,1.55-9.6A1.33,1.33,0,0,1,565,212l2.38-4.58a1.29,1.29,0,0,1,1.43-.71c7,1.53,21.05,4.61,28.06,6.13L611.61,216l.14,0,25.89,2.52a.61.61,0,0,0,.19,0S650.32,219.67,651.25,220.8Z"/><path class="cls-2" d="M566.25,201.77c-.88,3.25-1.41,12.9.82,15s28.69,8.67,31.29,9.32a1.5,1.5,0,0,0,.42,0l47.41-1.3a1.55,1.55,0,0,0,1.51-1.43s2.23-39,3.55-54.64c0-.18,3.82-10.63,5.07-16.49a106,106,0,0,0,1.9-19c.19-.42,1.27-8.25,0-20.93-.89-8.93-3.9-12.5-4.44-22.2-.4-7.36,4.28-24.46,6.51-33.26a3.85,3.85,0,0,0-3.74-4.8h-3.41a6.12,6.12,0,0,0-6,5l-5.34,27.74a1.63,1.63,0,0,1-.19.52c-1.3,2.12-11.24,17.42-27.77,16.24-7.19-.51-11.1-2-15.85-9.51-2.82-4.42,3-11.46,4.44-16.49.51-1.78,2.64-5.23,4.29-7.75a1.56,1.56,0,0,0-1.64-2.38c-3.81.83-9.65,2.54-12.8,5.69-2.54,2.53-4.58,11.12-4.44,13.32.19,3-4.2,10.57-5,11.86a2.24,2.24,0,0,1-.27.34c-1.11,1.05-7.81,7.56-8.73,10.63-1.09,3.68,1.4,12.6,1.27,15.28s-1.18,14-.21,18.54c.65,3.08,4.81,8.35,5.2,11.47.41,3.31-2.68,11-3.19,12.95s-1.69,9.41-2.4,12.52C573.13,184.15,567.9,195.7,566.25,201.77Z"/><path class="cls-3" d="M788.25,97.11,776,96.48a12.94,12.94,0,0,1-8.65-3.58h0a2.74,2.74,0,0,1-.78-1.31l-1.51-6.2a8.89,8.89,0,0,1-.19-1.13,67,67,0,0,1-.52-7.56,31.62,31.62,0,0,1,.83-3.73,6.78,6.78,0,0,1,4.72-4.66l.11,0c1-.31,3.82.87,4.88.93,2.05.13,10.28,1.31,10.79,1.27a120.63,120.63,0,0,1,13.32,0c.28,0,7.22-2.15,8.24-3.17,3.17-3.17,9.21-4.95,10.15-5.07s6.65-1.15,8.88-.64a38.73,38.73,0,0,1,7,2.54c2.08.88,4.87,4.87,5.71,7,1.27,3.17,2.85,2.85,4.44,7.61.63,1.9,1,5.32,1.9,10.15.35,1.9,0,8.68,0,10.55,0,3.54-3.27,6.13-5.75,8.48-3,2.8-11.79,2.53-16.49,1.9-3.22-.44-6.3-1.79-9.51-2.54-2.52-.59-5.48-3.75-10.79-6.34-5.93-2.9-5.07-1.9-7.61-2.54A20.81,20.81,0,0,0,788.25,97.11Z"/><path class="cls-2" d="M694.38,386.35l-5.08,2.54c-3,1.48-5.5.2-8.88-.64-4.16-1-8.89-2.57-8.24-1.27,2.35,4.74,5.7,33,5.7,33s-2.67,9.36-3,12c-.32,2.36-4.79,3.34-4.56,5.71.21,2.12,6,6,7.59,7.61,2,2.05,8.56,3.38,9.87,4.44s8.28,5.74,12.14,6.34c2.64.42,5,2,7.59,1.27s8.78-.78,10.63-2.54,3.31-6.07,3.79-8.24c.3-1.34.7-4.22,0-5.45-1-1.77-5.43-3.77-6.83-5.33-1.22-1.37-7.18-2-9.27-3.18a17.73,17.73,0,0,1-8.25-9.51c-.94-2.53-3.8-12.05-3.8-12.05Z"/><path class="cls-2" d="M509.42,399.67c-1.75-1.48-8.42.56-11.07,0a28.19,28.19,0,0,1-6.61-3.08c-1.17-.71-2.61-3.48-4.13-3.23-3,.49-3.17,4.59-5,6.31-1.6,1.48-3.66,1.9-10.08,5.71-1,.6-4,4.79-5.2,5.39-1.81.89-13.73,2-15.52,2.94a10.36,10.36,0,0,0-3.66,3.81c-.58,1.31,0,4.1,0,5.47s-.62,4.17,0,5.47,4.32,5.64,5.21,6.82a11.47,11.47,0,0,1,1.83,5.07c0,1.27,3.28,3.9,2.64,6.26-.36,1.32,1,3.18,1,4.53,0,3.71,3.21,6.46,5.5,7.52,2.75,1.27,20.16,9.6,25.66,9.6,3.77,0,9.64,1.39,12.61.06s5.19-3.81,6.9-5.1c1-.73,4.31-2.57,3.39-3.2s-10.08-5.08-11-7-7.33-9.6-8.25-10.87a17.12,17.12,0,0,1-1.83-5.62c0-.64,1.78-3.57,1.83-4.44a12.24,12.24,0,0,1,.92-4.44c.8-2.22,3.52-5.21,4.58-7,.81-1.35,1.47-4.31,2.38-5.63s4-3.51,4.81-4.87C507.79,407.72,511.87,401.75,509.42,399.67Z"/></svg>