<svg id="Capa_1" data-name="Capa 1" xmlns="http://www.w3.org/2000/svg" viewBox="0 0 843.2 884.01"><defs><style>.cls-1,.cls-9{fill:#fff;}.cls-1,.cls-2{stroke:#7b9ac9;}.cls-1,.cls-2,.cls-3,.cls-6,.cls-8{stroke-miterlimit:10;}.cls-2,.cls-6{fill:none;}.cls-3,.cls-4{fill:#d9d9d9;}.cls-3,.cls-8{stroke:#c0363e;}.cls-5{fill:#7b9ac9;}.cls-6{stroke:#d5485a;}.cls-7{fill:#c0363e;}.cls-8{fill:#9c9b9b;}.cls-10{font-size:15.75px;font-family:BarlowSemiCondensed-SemiBold, Barlow Semi Condensed;font-weight:600;}.cls-10,.cls-31{fill:#1e1e1c;}.cls-11{font-size:16.8px;font-family:BarlowSemiCondensed-Light, Barlow Semi Condensed;font-weight:300;}.cls-12{letter-spacing:-0.01em;}.cls-13{letter-spacing:0em;}.cls-14{letter-spacing:-0.01em;}.cls-15{letter-spacing:0em;}.cls-16{letter-spacing:-0.02em;}.cls-17{letter-spacing:0em;}.cls-18{letter-spacing:0em;}.cls-19{letter-spacing:0em;}.cls-20{letter-spacing:-0.02em;}.cls-21{letter-spacing:-0.01em;}.cls-22{letter-spacing:-0.01em;}.cls-23{letter-spacing:-0.02em;}.cls-24{letter-spacing:-0.01em;}.cls-25{letter-spacing:0em;}.cls-26{letter-spacing:0em;}.cls-27{letter-spacing:-0.02em;}.cls-28{letter-spacing:-0.01em;}.cls-29{letter-spacing:-0.01em;}.cls-30{letter-spacing:0.01em;}.cls-31{font-size:29px;font-family:BarlowSemiCondensed-Bold, Barlow Semi Condensed;font-weight:700;}.cls-32{letter-spacing:-0.02em;}.cls-33{letter-spacing:0em;}.cls-34{letter-spacing:-0.01em;}.cls-35{letter-spacing:-0.01em;}.cls-36{letter-spacing:0em;}.cls-37{letter-spacing:-0.03em;}.cls-38{letter-spacing:-0.01em;}.cls-39{letter-spacing:-0.02em;}</style></defs><polygon class="cls-1" points="428.37 565.59 430.33 572.92 432.87 579.7 437.2 582.46 439.83 583.32 443.82 587.56 447.51 583.32 449.24 579.67 451.4 585.88 467.73 598.43 476.43 592.03 474.06 577.35 466.32 574.13 453.38 568.69 443.82 562.45 436.19 562.45 428.37 565.59"/><path class="cls-2" d="M480.84,137.91l1.4-17.9-5.39-8.45-7.26-4.74-10.5-3.95-4-5.48-10.47,2.73,0,10.5c-7,2.39-12.93,11.38-12.93,11.38l9.8,13.92,3.45,5.89,3.35,12.89c5.49,4,21.36.78,21.36.78l6.76-11.11Z"/><polygon class="cls-1" points="428.68 85.28 430.32 100.72 434.61 106.23 438.31 109.03 441.23 109.03 446.29 102.04 448.23 89.8 445.51 85.28 438.46 84.52 428.68 85.28"/><polyline class="cls-3" points="46.95 76.14 55.19 77.02 62.02 73.36 64.06 81.91 70.37 88.79 68.75 107 58.66 114.23 53.08 102.83 47.66 85.35 46.95 75.14"/><path class="cls-3" d="M399.9,56s3,3.8,3.12,5.34c.06.62-.68,1.75-.85,2.35-.45,1.54-1.38,6.25-1.38,6.25l-.89,4.15h-3.58l-7.88-4.45-1-9.85L392.75,56Z"/><polygon class="cls-4" points="700.72 89.85 703.26 101.56 714.18 104.52 717.26 98.13 719.88 81.64 715.6 80.27 714.5 75.74 712.75 71.51 707.05 74.35 704.21 80.15 700.72 89.85"/><path class="cls-2" d="M807,602.08l-5.93-9.69h-9L789,598.16l-1.83,6.1c-3.5,5.25-5.93,9.12-5.93,9.12l-5.4,2.74c-5.31,2.24-7.44,3.3-7.44,3.3h-6l-2.84-2.48-6-3.54-6,4.25,1.78,5,5,6.72a28.75,28.75,0,0,0,6.27,4.6c2.61,1.06,6.16-2.83,6.16-2.83l6-1.06,4.57-.71,6.09-1.06a46.06,46.06,0,0,0,8.77-3.89c3.66-1.77,6.72-3.19,6.72-3.19,2.64-3.28,4.67-4.13,4.67-4.13a21.39,21.39,0,0,0,5.12-3.81V608.8A5.8,5.8,0,0,0,807,602.08Z"/><path class="cls-5" d="M748.45,604.26,746,598.43a15.51,15.51,0,0,1-5,0l-4.37,3.65a31,31,0,0,0-2.81,6.37l-2.41,3.48a14.36,14.36,0,0,0,2.41,4.19,63.3,63.3,0,0,1,7.18,0c2.84-.24,6.39-2.87,6.39-2.87,1.78-3,3.32-6,3.32-6Z"/><path class="cls-2" d="M818.15,691.63v15.58c.35,2.83,3.19,5.3,3.19,5.3a27.82,27.82,0,0,0,2.14,7.79l1.58,3.9,1,6.24c2.06,4.86,0,6.5,0,6.5h-4.76a5.82,5.82,0,0,1-3.72-3l-5.87-7.22a48.87,48.87,0,0,1-2.48-6.43c-2.13-3.89-3.91-8.14-3.91-8.14a28.76,28.76,0,0,1-1.78-6.49,33.53,33.53,0,0,1,.47-7.67,28.11,28.11,0,0,0,2.73-6.37,55.19,55.19,0,0,0,8.47,0Z"/><path class="cls-2" d="M786.46,699.23a36,36,0,0,0-5.2,8c0,4.95,0,7.07,0,7.07a33.34,33.34,0,0,1,2.27,7.79l.3,4.66-2.57,3.5a29.16,29.16,0,0,1-5.77,0,12.1,12.1,0,0,1-2.45-3.5,63.54,63.54,0,0,1-2.18-6.78c0-4.6,0-7.53,0-7.53a13.91,13.91,0,0,1-.81-5.21,20.31,20.31,0,0,1-1.63-6.38l2.44-6.37a7.08,7.08,0,0,1,2.89-5.66c3.9-1.06,7.51,2.83,7.51,2.83Z"/><path class="cls-5" d="M782.78,726.73l-2.54,1.33h-5.07l-1.4.44,1.09,6.94V747a10.55,10.55,0,0,1-1.09,4.89c-1.06,2.09-4.52,3.49-4.52,3.49a7,7,0,0,0-2.75,2.79,15.26,15.26,0,0,0,0,4.89h2.75l3.84-1.4,3.56-2.09,3.59.69,3.38.7,1.06-4.89v-6.22l-.85-16.58v-6.5Z"/><path class="cls-5" d="M826.1,730.44l-2.23,1.8-5,1-1.28.71,2.45,6.58,1.17,5.82,1.11,5.48a10.58,10.58,0,0,1-.11,5c-.62,2.26-3.74,4.32-3.74,4.32a7,7,0,0,0-2.14,3.27,15.5,15.5,0,0,0,1,4.79l2.69-.54,3.49-2.12,3.07-2.75,3.67,0,3.45,0,.07-5-1.23-6.09-4.12-16.09-1.29-6.38Z"/><polygon class="cls-3" points="741.07 616.12 727.39 626.5 701.24 602.08 685.87 604.26 685.87 618 709.81 628.98 722.31 640.3 733.89 640.3 747.46 622.61 741.07 616.12"/><path class="cls-6" d="M726.15,584.38v8c-5.68,1.72-7.93,2.23-7.93,2.23l-1.3,6.64h0c-7.64-1.84-9.24-6.64-9.24-6.64l-2.82-5.08,2.82-5.16,7.82-5C718.87,581.9,726.15,584.38,726.15,584.38Z"/><polygon class="cls-6" points="709.51 597.33 707.68 602.08 709.51 606.71 709.15 610.99 701.24 602.08 683.05 603.24 689.3 590.72 704.86 585.88 706.44 592.39 709.51 597.33"/><path class="cls-7" d="M747.46,622.61l-6.39-6.49,3.2-2.36v-6l6.81-5.67c1.71-.7,7.77-.81,7.77-.81l1.63,6.15a38.15,38.15,0,0,1-1.63,6.7c-3.22,2.48-5.7,2-5.7,2Z"/><path class="cls-7" d="M716.92,601.26l7.45,1.52a38,38,0,0,1,5.69,6.37c-1.42,2.84-5,4.25-5,4.25a5.92,5.92,0,0,0-1.6,4.25,11,11,0,0,1-4.44,3.54,42.43,42.43,0,0,0-6.4-5.07,60.9,60.9,0,0,1-5-7.67,60.15,60.15,0,0,0,6.75-7.19Z"/><path class="cls-7" d="M726.15,584.38l-7.28-2.48a20.87,20.87,0,0,0-3.73,2.48l-4.62,3.18a11.92,11.92,0,0,0-2.84,4.83,30,30,0,0,1-6-7.31V581.9c-1.42-2.83,1.42-6.37,1.42-6.37l2.49-5.67c1.06-3.18,2.13-3.54,2.13-3.54,4.62,1.42,6,1.77,6,1.77l5.17,1.77L724,572l2.13,2.12,3.91,2.12v7.44l-1.78,2.48Z"/><path class="cls-8" d="M715.65,687.15l7.66,11.21,2.84,6-2.84,6.37a39.83,39.83,0,0,1-2.84,9.21l-3.81,4.25H704.43l.43-7.79,2.82-6.37a26,26,0,0,0,1.83-4.37,26.16,26.16,0,0,0-1.83-7,22.28,22.28,0,0,0-2.82-6.37c4.6-2.13,7.44-3.54,7.44-3.54Z"/><path class="cls-3" d="M696.28,698l2.52,16.64v5.66l-2.52,6.43-4.23,3.5-3.2,6.71h-8.68L677,730.72l1.59-6.52a29.15,29.15,0,0,1,7.32-6.73,12.54,12.54,0,0,0,0-4.6,31.41,31.41,0,0,0-2.82-10.06,27,27,0,0,1,4.83-2.68l4.17-2.13A14.29,14.29,0,0,0,696.28,698Z"/><path class="cls-7" d="M704.13,606v-4.71h-11l-6-1.66c0-4.25,4.33-7.21,4.33-7.21l6-1.64c-.71-2.48-1.78-3.19-1.78-3.19L687.08,589l-4.26,3.41-5,4.38-2.42,4.49v8.25l-1.48,3.89v13.81a23.24,23.24,0,0,0,0,5.66c-2.13,3.89-4.27,7.08-4.27,7.08l-2.48,10.54-3.55,3.62v12.74l2.48,10.27,4.26,10,4.62,9.49,4.26,10.57h14.57l7.41-7.79,2.89.71,3.55-1.42,8-4.6c3.75-2.13,4.82-8.5,4.82-8.5l-6.4-7.08-6.39-9.91-6.44-7.79V650.49l1.82-10.89,2.84-6.73,3.91-3.89-11.72-7.79-6-5.07-1.42-4.89,1.42-4.2,3.55-2.77h5.64Z"/><path class="cls-2" d="M797.72,591.76l-1.62-4.2-4.85-4.25L773,576.23l-6.4,3.13v11.36l1.78,7.44a13.62,13.62,0,0,0,7.44,3.1,14.77,14.77,0,0,0,5.4-5.29l1.64-3.58-.16-3.64"/><polygon class="cls-5" points="808.62 598.16 811.83 610.2 811.83 623.19 813.7 636.17 821.34 650.88 821.34 667.33 821.34 687.15 816.96 702.82 808.62 702.82 797.11 690.7 790.15 696.64 785.82 702.82 770.86 690.7 775.59 675.13 785.82 650.49 785.82 641.36 780.55 626.65 805.75 616.12 805.75 609.34 808.62 598.16"/><path class="cls-5" d="M780.1,564.12l7.36,5.93,3.79,8.73v6.28l-3.44,4.54-4.91,2.79a47.26,47.26,0,0,1-6.3-7.33,37.56,37.56,0,0,0-3.51-5.23A6.82,6.82,0,0,0,770,583l-5.66,1c-2.46-2.8-3.86-8.73-3.86-8.73a20.12,20.12,0,0,1,6-1.75c3.5-1.39,3.56-3.49,3.56-3.49a33.14,33.14,0,0,0,4.73-3.84l1.87-1.4h0Z"/><path class="cls-5" d="M770.86,596.48l-3.37-4.09h-3.2l-3.81,4.09-1.63,4.78v5.11l6,3.82,3,3.51c2.56,0,5.12,2.42,5.12,2.42h2.93l5.4-2.74-5.4-7.33-.27-7.89Z"/><path class="cls-7" d="M718.34,722.07H702.71l1.77,13.45v11.33a11.78,11.78,0,0,0-1.77,5.66,35.5,35.5,0,0,0,0,6.73c5.68.71,30.54.88,30.54.88,1.43-1.59,0-3.71,0-3.71-3.55-1.06-6.74-1.77-6.74-1.77a23.8,23.8,0,0,1-4.27-.36,14.62,14.62,0,0,1-4-1.77,25.87,25.87,0,0,0-4.86-2.79l-.71-4.85a38.17,38.17,0,0,1,1.07-6.16,44.44,44.44,0,0,0,2.49-6.73c.71-2.12,2-5.25,2-5.25A21.55,21.55,0,0,1,718.34,722.07Z"/><path class="cls-7" d="M689.48,737.94l-7.73-4.54a14.43,14.43,0,0,0-6.75-3.17l-1.42,6.71-2.49,4.31a85.14,85.14,0,0,1-3.19,8.47l-4.26,6.69-1.78,4c-.71,4.11,8.4,2.58,8.4,2.58,6.23-.58,17.62,0,17.62,0,1.12-.19,8.69,0,8.69,0,3.35-2.58-.61-4.49-.61-4.49a25,25,0,0,0-7.11-1.41,11,11,0,0,1-5.32-1.07c-1.78-1.41-6.95-1.94-6.95-1.94a34.34,34.34,0,0,0,5.88-6.91c1.42-2.12,3.14-4.49,3.14-4.49,1.78-2.62,2.53-3.07,2.53-3.07Z"/><polygon class="cls-9" points="662.62 651.76 679.93 657.06 692.25 659.46 703.47 660.36 701.01 652.35 692.75 650.81 682.92 648.66 668.85 643.68 666.48 643.1 662.62 651.76"/><polygon class="cls-9" points="826.6 645.29 806.13 650.59 791.56 652.98 778.3 653.89 781.21 645.88 790.98 644.34 802.6 642.19 819.23 637.21 822.03 636.63 826.6 645.29"/><path class="cls-5" d="M464.42,587.88l-9-4.56h-6.21l3.55,4.56a19.28,19.28,0,0,1,8.64,6.58,26.51,26.51,0,0,1-1.52,8.1l-2.54,3.55h0a7.82,7.82,0,0,1-8.13,0l-3.65,1.12h-3.78c1.84,8.5,3.78,11.54,3.78,11.54a25.22,25.22,0,0,1,4.66,6.07,28.53,28.53,0,0,0,2.87,7.09v11.14l-6.39,13.17L438,669.4l-4,10.13c-2.54,4.56,0,9.62,0,9.62l7.82,4.05,6.83,3.55a23.34,23.34,0,0,0,6.81-6.59v4.56l20.74,2,5.57-28.87,6.2-11.64,4-8.1A22.13,22.13,0,0,0,488,638a61.66,61.66,0,0,0-4.68-9.62c-2.54-4.56-2.54-12-2.54-12l.51-4.22a109,109,0,0,0,2-11.14v-9.21c-1-4-2-8.52-2-8.52-1.36-5.51-3.59-6.26-3.59-6.26-3.58-1.52-5.05-.32-5.05-.32h0c-2,2.53,1.52,6.58,1.52,6.58.51,3-1.52,8.52-1.52,8.52a7.76,7.76,0,0,1-5.08,2.62Z"/><polygon class="cls-9" points="451.4 645.26 469.46 643.91 481.81 641.67 492.59 638.45 487.37 631.88 479.11 633.44 469.17 635.01 454.25 635.47 451.83 635.79 451.4 645.26"/><polygon class="cls-3" points="381.23 597.69 389.78 592.83 393.49 597.69 393.8 600.74 396.58 601.82 396.58 609.09 389.53 615.21 383.84 614.14 384.71 605.51 381.23 597.69"/><polygon class="cls-7" points="377.66 596.64 383.84 594.67 384.58 602.8 386.69 611.31 391.02 614.14 397.08 604.4 402.27 605.64 401.04 608.08 396.09 615.33 391.02 625.61 390.77 626.72 379.95 626.72 373.33 625.49 375.18 611.55 377.66 596.64"/><polygon class="cls-8" points="395.4 585.54 401.59 581.23 410.24 584.8 414.75 588.75 410.24 593.8 401.78 599.23 397.75 601.82 393.8 600.74 392.76 597.05 392.76 590.11 395.4 585.54"/><path class="cls-2" d="M473.12,693.41v9.75l7.65,5.14c2.65,5.64,5.56,13.34,5.56,13.34,0,4-5.56,6.17-5.56,6.17a16.31,16.31,0,0,1-7.65-5.24c-5.15-7.09-8.25-12-8.25-12l-6.81-9.5c-.91-3.08,0-7.7,0-7.7,2.69-3.6,4.33-3.08,4.33-3.08Z"/><path class="cls-2" d="M448.39,690.3l-2.93,11.83v9.76l1.47,10.27a27.08,27.08,0,0,0,1.46,5.65,14.66,14.66,0,0,1-4.38,6.27,22.68,22.68,0,0,1-3.22,2.42l-4.25-8.69-3.67-11.3-4.69-7.46v-12.3c2.69-1.8,5.81-7.6,5.81-7.6,6.67-3.44,11.47-2.42,11.47-2.42Z"/><path class="cls-7" d="M402.28,584.73c3.64-.41,11.68,4.51,11.68,4.51s5.33-3.1,5.07-5c-.41-2.93-5-3.48-7.55-5.47-3-2.35-6.57-2.64-8.28-3.07a5.09,5.09,0,0,0-4.33.86c-2.43,1.65-3.26,3.55-4.2,4.57-2.78,3-6,7.08-6,7.08l7.4,1.18S398.91,585.1,402.28,584.73Z"/><path class="cls-8" d="M433.29,637.59,425,642.06l-4,3.6h-7.71c1.55-9.76,0-13.35,0-13.35,1-3.08,1.14-6.86,0-8.73-1.75-2.88-10.69-8.25-10.69-8.25l-3.18,1.08-1.85,8.2-3.06,1.3c1.29,3.59,4.91,14.16,4.91,14.16.48,6.1,1.16,10.24,1.16,10.24l2.41,5a14.17,14.17,0,0,0,7.22,6.25,32.85,32.85,0,0,0,7.51,0c4.85-3.08,8.91-6.25,8.91-6.25a23.38,23.38,0,0,1,6.18-5l2.86-2h0c5.34-3.68,5.06-5.25,5.06-5.25l-1.59-5.22Z"/><path class="cls-8" d="M410.82,700.59l7,10.95,1,9.59v6.68l-3.53,6.77h0c-1.95,6.1-6.7,0-6.7,0s6.42,2.66,0,2.71-6.41-5.23-6.41-5.23v-7.85c4.05-4.62,5.6-5.69,5.6-5.69a102.64,102.64,0,0,0-7.05-13.26l-1.16-4.67a7.05,7.05,0,0,1,6.15,0Z"/><path class="cls-3" d="M370.63,697.16l-4.16,14.38c-5.15,3.94-6.86,7-6.86,7a42.58,42.58,0,0,0-4.67,7.23v6.31a66.46,66.46,0,0,1-4.39,6.4c-5.11.13-6.49-2.92-6.49-2.92-4.18-3.48-3.09-5.62-3.09-5.62l1.77-11.1a11.41,11.41,0,0,0,3.91-4.36c4.37-3.08,5.4-6.16,5.4-6.16,1-6.17-1.94-12.62-1.94-12.62a6.71,6.71,0,0,1,.18-5.38c3.28,1.57,9.32,2.59,9.32,2.59l4.8,1Z"/><path class="cls-5" d="M450.76,552.94c1.72,1.07,1.75,8.18,1.75,8.18a19.53,19.53,0,0,1,4.25,16.66c-2.54,2.35-7.52,1.89-7.52,1.89-4.06-1-8.28-13-8.28-13-3.55-4-11.65,3.51-11.65,3.51-4.6-7-3.39-9.11-3.39-9.11s-1.9-3,3.95-3.64c5.45-.56,6.84-2.8,6.84-2.8a13.37,13.37,0,0,1,9.34-3.1A23.57,23.57,0,0,1,450.76,552.94Z"/><path class="cls-3" d="M391.72,622.55l-.56,6.43c-8.94,8.17-13.39,8.6-13.39,8.6-4.19-1.4-9-7.51-9-7.51-1.23-8,0-11.3,0-11.3-.2-7,0-11.1,0-11.1,1.35-5.65,4.77-7.53,4.77-7.53-.85-6.34,2.84-7.31,2.84-7.31,5.43,6.62,5.59,9.51,5.59,9.51-.52,6.35-2,9.43-2,9.43.95,4.62,0,7,0,7,1.46,2.24,1.45.36,0,3.13a6,6,0,0,0-.32,1.44l1.27.75s-1.68-1.36.51-3.08.52-2.06.52-2.06,1.29.3,1.67.35c1.61.19,3.76,2.2,5.78,2.73C390.71,622.38,391.72,622.55,391.72,622.55Z"/><path class="cls-7" d="M453.12,643.07h-7.49c-1.64-.25-3.82,3-3.82,3-1.42,1.95-5,4.23-5,4.23l-3.92-7.25-4.51-2.87c1-3.15,4.51-4.73,4.51-4.73a49.38,49.38,0,0,0,5.56-5,11,11,0,0,1,.69-4.28c.62-2.42,1.16-3.57,2-4.32s1.11-1.64,2.72-2.3a6.49,6.49,0,0,1,3.3-.82c4.24-.17,4.32.34,6,1.28,1,.56,2.19,2.6,2.8,3.55a32.88,32.88,0,0,1,3.3,7.31c.31,1.44-1.06,5.94-1.16,7.4-.07,1-.43,3.09-1.52,3.83A10.09,10.09,0,0,1,453.12,643.07Z"/><path class="cls-5" d="M473.12,722.57h6.6a20.24,20.24,0,0,0,6.61-4.05v15.19a46.87,46.87,0,0,0,5.59,8.61c2.54,5.57,2.54,8.1,2.54,8.1a60.87,60.87,0,0,1-10.67,0,41.18,41.18,0,0,0-7.12-2.53c-3-3-3.55-5.07-3.55-5.07l-3.56-2.53h0l5.59-2.53h0l4.57,1.52h0l-1.52-8.1-2.54-5.07Z"/><path class="cls-5" d="M450.16,729.92l2.94,9.5c1.47,4.39,1.47,11.22,1.47,11.22a25.63,25.63,0,0,0,0,5.6c.73,4.39,0,5.85,0,5.85a82.36,82.36,0,0,1-10.64,0,20.72,20.72,0,0,1-8.44-2.09c-2.57,1.36-5.87,0-5.87,0-2.57-1.93-2.93-5.59-2.93-5.59,4.4-4.38,6.18-3.77,6.18-3.77,5.56-.73,7.92,1.75,7.92,1.75l2-1.75-.37-10.12a17.54,17.54,0,0,1-1.67-4,31.51,31.51,0,0,0,0-4.75l1.67-.73Z"/><path class="cls-7" d="M413.53,734.58h-5c-2.78-.3-6.41-2.52-6.41-2.52v5.28a20.14,20.14,0,0,0-2.23,6.4v4.44a5.39,5.39,0,0,0,0,3.9l.83,2.22a8.65,8.65,0,0,1,4.19,1.67c2.23.83,4.18,1.67,4.18,1.67,2.23,2.78,4.47,2.36,4.47,2.36,3.62-.14,4.25-1.15,4.25-1.15,3.28-4,3.28-5.66,3.28-5.66-.84-2.23-1.95-2.55-1.95-2.55a19.91,19.91,0,0,0-4.47-3.29L412.69,746h0a15.38,15.38,0,0,1,.56-5.28,33.22,33.22,0,0,0,1.95-6.1Z"/><path class="cls-7" d="M353.55,734.58l-5,1.93-4.47-1-4.18-3.48-1.68,4.45-1.67,7.5a33.56,33.56,0,0,1-3.35,6.63,8.51,8.51,0,0,0-2.51,5.05,46.12,46.12,0,0,0,0,6.56,45.92,45.92,0,0,0,1.68,5.12,28.28,28.28,0,0,0,6.69,4.17h5a21.85,21.85,0,0,0,4.19-5,8.65,8.65,0,0,0,1.39-6.51c-2.79-2.94-3-4.61-3-4.61a7.28,7.28,0,0,1,0-4.77c1-3.85,2.15-4.6,2.15-4.6l2-3.42h0a11.89,11.89,0,0,1,2.79-4.17l1.39-1.94Z"/><path class="cls-7" d="M406.1,611.59s3.87,5.47,1.3,10.48c-.78,1.52-5.58,3.34-5.58,3.34l-7.05,2.24,4.71,10.92-5.58,15.55v9.12l6.74,8.1,5.2,10.13,7.37,9.11,1.52,6.17,1,8.51H400.64l-10.3,3-5.66-11.55-6-11.74-4.07,1.52a55.13,55.13,0,0,0-2.54,12.66v6c-4.06,2.59-8.63-5-8.63-5a15.86,15.86,0,0,0-9.15-3.45c-3.56-.09-7.62,0-7.62,0v-8.2c5.08-4.55,4.57-16.2,4.57-16.2l2.54-6.58,5.85-7.09s0-6.54,2.05-7.71c6.24-3.59-.33-26.1,3-38.35,3.35-12.41,7.25-11.88,7.25-11.88l-3.15,29.33,4.85,6.11,4.19,1.4,4-1.59,9.37-7-7.56-9.68s3.08-5.07,4.2-6.7c1.83-2.64,2.68-6.58,8.81-6A14.72,14.72,0,0,1,406.1,611.59Z"/><path class="cls-5" d="M394.57,587.05l-2.85,9.44H380c2,1.06.77,3.11-.58,3.67a7.66,7.66,0,0,1-5.87,0c-3.3-1.46-4.77-5.48-4.77-5.48-1.7-6.15-.44-7.55.75-8.35,3.6-2.44,4.16-3,6.7-3a26.56,26.56,0,0,1,5,.74c3.8,1.14,2.2,1.54,3.48,1.83,4.54,1,6.79.36,6.79.36Z"/><path class="cls-1" d="M461,598.51s1.38-11.66-10.5-11.19c-2.22.08-7.73,4.33-7.73,4.33L429.25,590l-13.5,1.63-24.62-3.95-2.42,7,27,6.53,22.16,1.16,4.13,4c1.93,1.86,7.12,2.31,9.14.54l6.19-.85,3.64-7.6"/><polygon class="cls-9" points="357.67 655.47 374.98 660.77 387.31 663.16 398.52 664.07 396.06 656.05 387.8 654.52 377.97 652.37 363.9 647.38 361.53 646.81 357.67 655.47"/><text class="cls-10" transform="translate(0 797.14)">Bloquear<tspan class="cls-11"><tspan x="0" y="21">Se utilizan los guan</tspan><tspan class="cls-12" x="122.51" y="21">t</tspan><tspan x="127.59" y="21">es o </tspan><tspan x="0" y="42">an</tspan><tspan class="cls-12" x="15.66" y="42">t</tspan><tspan x="20.73" y="42">eb</tspan><tspan class="cls-13" x="36.56" y="42">r</tspan><tspan x="41.95" y="42">azos pa</tspan><tspan class="cls-13" x="90.43" y="42">r</tspan><tspan x="95.82" y="42">a bloquear el </tspan><tspan x="0" y="63">golpe del oponen</tspan><tspan class="cls-12" x="108.96" y="63">t</tspan><tspan class="cls-14" x="114.03" y="63">e</tspan><tspan x="121.61" y="63">.</tspan></tspan></text><text class="cls-10" transform="translate(307.84 797.14)"><tspan class="cls-15">E</tspan><tspan x="8.05" y="0">squi</tspan><tspan class="cls-16" x="34.34" y="0">v</tspan><tspan x="41.33" y="0">ar</tspan><tspan class="cls-11"><tspan x="0" y="21">Se elude el </tspan><tspan class="cls-13" x="72.53" y="21">a</tspan><tspan x="80.14" y="21">taque </tspan><tspan x="0" y="42">deslizándos</tspan><tspan class="cls-14" x="75.34" y="42">e</tspan><tspan x="82.91" y="42">, </tspan><tspan class="cls-17" x="89.9" y="42">g</tspan><tspan x="97.83" y="42">i</tspan><tspan class="cls-13" x="101.49" y="42">r</tspan><tspan x="106.89" y="42">ando y se </tspan><tspan x="0" y="63">p</tspan><tspan class="cls-18" x="8.13" y="63">r</tspan><tspan x="13.49" y="63">epa</tspan><tspan class="cls-13" x="37.06" y="63">r</tspan><tspan x="42.46" y="63">a pa</tspan><tspan class="cls-13" x="69.21" y="63">r</tspan><tspan x="74.6" y="63">a </tspan><tspan class="cls-19" x="85.59" y="63">r</tspan><tspan x="90.95" y="63">esponde</tspan><tspan class="cls-20" x="145.77" y="63">r</tspan><tspan x="150.91" y="63">.</tspan></tspan></text><text class="cls-10" transform="translate(635.67 797.14)">D<tspan class="cls-21" x="8.58" y="0">e</tspan><tspan class="cls-22" x="16.1" y="0">t</tspan><tspan x="21.18" y="0">ener</tspan><tspan class="cls-11"><tspan x="0" y="21">Se de</tspan><tspan class="cls-23" x="35.44" y="21">s</tspan><tspan x="42.22" y="21">vía el golpe del oponen</tspan><tspan class="cls-12" x="187" y="21">t</tspan><tspan x="192.07" y="21">e </tspan><tspan class="cls-13" x="0" y="42">c</tspan><tspan x="7.63" y="42">on la mano del mismo lad</tspan><tspan class="cls-12" x="168.92" y="42">o</tspan><tspan x="176.73" y="42">.</tspan></tspan></text><text class="cls-10" transform="translate(4.5 284.24)">Di<tspan class="cls-24" x="12.3" y="0">r</tspan><tspan x="17.61" y="0">e</tspan><tspan class="cls-25" x="25.23" y="0">c</tspan><tspan class="cls-22" x="32.7" y="0">t</tspan><tspan x="37.79" y="0">o</tspan><tspan class="cls-11"><tspan x="0" y="21">Puñ</tspan><tspan class="cls-26" x="24.65" y="21">e</tspan><tspan x="32.38" y="21">tazo lanzado </tspan><tspan class="cls-18" x="115.91" y="21">r</tspan><tspan x="121.27" y="21">e</tspan><tspan class="cls-13" x="129.08" y="21">c</tspan><tspan class="cls-12" x="136.71" y="21">t</tspan><tspan x="141.79" y="21">o al </tspan><tspan x="0" y="42">cuerpo o cabeza </tspan><tspan class="cls-13" x="108.4" y="42">c</tspan><tspan x="116.03" y="42">on el b</tspan><tspan class="cls-13" x="157.93" y="42">r</tspan><tspan x="163.33" y="42">azo </tspan><tspan x="0" y="63">que está </tspan><tspan class="cls-12" x="58.39" y="63">&quot;</tspan><tspan class="cls-13" x="61.98" y="63">a</tspan><tspan x="69.59" y="63">t</tspan><tspan class="cls-13" x="74.8" y="63">r</tspan><tspan x="80.19" y="63">á</tspan><tspan class="cls-27" x="87.82" y="63">s</tspan><tspan x="94.58" y="63">&quot;.</tspan></tspan></text><text class="cls-10" transform="translate(312.33 284.24)"><tspan class="cls-15">G</tspan><tspan x="8.35" y="0">ancho</tspan><tspan class="cls-11"><tspan x="0" y="21">Se lanza en a</tspan><tspan class="cls-18" x="83.17" y="21">r</tspan><tspan class="cls-13" x="88.53" y="21">c</tspan><tspan x="96.15" y="21">o l</tspan><tspan class="cls-13" x="110.84" y="21">a</tspan><tspan class="cls-12" x="118.45" y="21">t</tspan><tspan x="123.52" y="21">e</tspan><tspan class="cls-13" x="131.34" y="21">r</tspan><tspan x="136.73" y="21">al, </tspan><tspan class="cls-13" x="154.72" y="21">c</tspan><tspan x="162.35" y="21">on el </tspan><tspan x="0" y="42">b</tspan><tspan class="cls-13" x="8.01" y="42">r</tspan><tspan x="13.41" y="42">azo fl</tspan><tspan class="cls-28" x="47.63" y="42">e</tspan><tspan x="55.34" y="42">xionado impa</tspan><tspan class="cls-13" x="140.58" y="42">c</tspan><tspan x="148.2" y="42">tando la </tspan><tspan x="0" y="63">cabeza o el cuerp</tspan><tspan class="cls-12" x="111.65" y="63">o</tspan><tspan x="119.46" y="63">.</tspan></tspan></text><text class="cls-10" transform="translate(640.17 284.24)">Uppe<tspan class="cls-24" x="32.08" y="0">r</tspan><tspan x="37.39" y="0">cut</tspan><tspan class="cls-11"><tspan x="0" y="21">Lanzado </tspan><tspan class="cls-29" x="57.34" y="21">v</tspan><tspan x="64.15" y="21">e</tspan><tspan class="cls-30" x="71.96" y="21">r</tspan><tspan x="77.5" y="21">ticalmen</tspan><tspan class="cls-12" x="133.2" y="21">t</tspan><tspan x="138.27" y="21">e desde </tspan><tspan x="0" y="42">abajo hacia arriba buscando el </tspan><tspan x="0" y="63">mentón del ad</tspan><tspan class="cls-29" x="90.93" y="63">v</tspan><tspan x="97.73" y="63">e</tspan><tspan class="cls-13" x="105.55" y="63">r</tspan><tspan x="110.94" y="63">sari</tspan><tspan class="cls-12" x="134.71" y="63">o</tspan><tspan x="142.53" y="63">.</tspan></tspan></text><path class="cls-2" d="M758.64,176.87,750,189.56s3.95,3.62,4.34,5.08c.5,1.83,1.33,5.48,1.7,7.33.92,4.55,1.47,18.82,1.47,18.82l-7.32,4.52L742,202l-1.85-12.41v-7.78l3.6-13.93,8.31,2.32Z"/><polygon class="cls-3" points="728.65 59.63 729.85 66.77 728.65 71.82 725.67 76.72 722.7 79.69 720.41 81.62 716.44 80.73 714.5 77.82 714.5 75.01 713.31 67.96 713.31 61.13 715.6 56.98 720.41 56.38 725.82 56.38 728.65 59.63"/><path class="cls-8" d="M750.63,100.35s-6,7.07-8.85,7.26c-2.63.17-9.55-4.46-9.55-4.46l-11.82-5.62c-1.21-9.51,0-14.91,0-14.91s7.72,1.88,10.07,3.06c7.28,3.63,6.57,6.45,11.29,6.1,7.88-.57,9.23,5.75,9.23,5.75Z"/><path class="cls-8" d="M766.28,83.71l3.44-9.15-3.57-8.78c-2,.78-6.67,7.45-6.67,7.45L756.41,79l-2.27,2,1.7,6.26,3.59,2.94,3.7-3.45Z"/><path class="cls-2" d="M788.4,181.31V195.7s5.82,5,7.44,7a52.58,52.58,0,0,1,5.69,9.13,87.14,87.14,0,0,1,2.6,9.22l-4.36,6-5.5-1.8S786.5,216,783.2,212.16c-1.76-2.06-10-9.48-10-9.48V192.15l2.33-15.28Z"/><path class="cls-2" d="M795.4,85.58l-5.84-9.86a61.37,61.37,0,0,0-13.08,9.65L773.37,94c-3.41,7-6.67,5.25-6.67,5.25-5.13-3.39-8.06-9.6-8.06-9.6l-9.24,5.75,2.67,7.89a18.31,18.31,0,0,0,7,8.55c3.31.93,13.6,4,13.6,4l10.51-5.57,12.25-11Z"/><path class="cls-2" d="M788.4,49.93h-7.73l-9.82,14.74,1.55,8.24c6.54,1.63,14.28,0,14.28,0,5.64-3,8.72-11.13,8.72-11.13Z"/><path class="cls-3" d="M704.74,81.41l-17-1.47-5.36,1.46-3,4.42s-.12,5.8,0,7.72-1,6.23-.56,8C680.22,106.59,688.9,120,688.9,120l3.11,3.56,5.36-6.83,4.92-9.06v-6.53l-1.57-5.79A5.48,5.48,0,0,0,696,93.25v1.18l-7.66,10.18"/><path class="cls-3" d="M732.38,177.13l6.46,7.85s2.71,4.87,2.93,6.68-1.22,6.69-1.22,6.69l-3.5,6.43-4.67,11.59c.58,3.21-7.59,3-7.59,3l-3.32-3.16s2.77-11,3.78-14.63c.48-1.74,2.12-5.12,2-6.93s-1.68-4.93-2.5-6.46a62.82,62.82,0,0,1-4.38-9.19l5.26-4.18Z"/><path class="cls-8" d="M709.62,181.33s5.79,10.61,6,14.54c.09,2-2.29,7.56-2.29,7.56L706.12,209l-6.78,2.88-5.19,2.36-8.31,2.15-2.77-4.31s5-8.89,7.75-10.78c1.93-1.33,7.25-1.95,8.52-3.91.43-.69,0-3.25,0-3.25l-2-8.43Z"/><path class="cls-8" d="M372.13,89.2,361.81,78.9s-5.47-4.56-13.57,1.91C345.82,82.75,349,90,348,93c-.86,2.61-4.16,7.23-4.78,9.91-.56,2.48,0,7.63,0,10.17,0,2.24-.87,6.9,0,9,.65,1.52,3.13,4.4,4.78,4.61,3.39.43,9.78-6.71,9.78-6.71l4-3.12,5-16.82,5.39-10.76"/><polyline class="cls-3" points="382.34 86.78 389.83 68.2 377.48 59.75 366.5 84.24"/><path class="cls-3" d="M404,176.1a88.44,88.44,0,0,1,4.68,8.76A50,50,0,0,1,412.09,206c-.19,2.8-2.63,10.92-2.63,10.92-5.78,5.25-10.65,1.7-10.65,1.7s-1.92-7.67-1.88-10.28,2.42-7.95,2.35-10.68c-.06-2.23-2.35-8.58-2.35-8.58-5.62-8.72,0-15.33,0-15.33Z"/><path class="cls-8" d="M369.75,182.64s.07,6.31,0,8.41c-.24,6.55-2,9.89-3,13.08-.95,2.91-3.17,11.84-3.17,11.84l-9.29-3.43c0-9.34-.84-12.19,0-16.14.78-3.67,6.09-13.76,6.09-13.76l-.94-5.6Z"/><path class="cls-2" d="M435.44,133.21s-2.09,6.09-3.81,7.17c-2.57,1.61-10.36,3-12.12.51-2.69-3.77,4-18.08,4-18.08l4,3.8Z"/><path class="cls-2" d="M485.83,182.65v12.22a61.55,61.55,0,0,1,12.09,15.66l.12,3.19c-1,4.85-2.23,4.22-2.23,4.22l-16.15-11.19-7.3-5.83-3.71-15.78,4.21-5.47Z"/><polygon class="cls-2" points="434.98 188.17 425.79 189.03 427.92 210.3 423.23 215.69 416.4 212.39 414.8 194.87 412.09 182.16 422.61 173.7 433.14 173.7 434.98 188.17"/><path class="cls-5" d="M452.09,77.4l5,12.6a16,16,0,0,1-5,11.21c-3.75,3.74-11.25,0-11.25,0a19.1,19.1,0,0,1,0-11.08H430.26c-3.8-2.62-4.47-7.6-4.47-7.6l4.47-8.1,11.17-3.74Z"/><path class="cls-5" d="M464.22,121.14l7.83-12.72-4.95-3.19-10,8.75L454,121.14c-3.12,6.85-9.34,5.61-9.34,5.61l-3.19-9.93L435.84,113h0l-5.58-2.49-4.47.62c-5.58,2.5-6.2,5.65-6.2,5.65v7.43l3.75,6.86h0l6.92,3.73,6.16-1.63c3.67,5.26,6.7,7.17,6.7,7.17s4.17-6.32,4.16-6.36c-.48-1.58-2.56-6-2.56-6l15.49,3.07Z"/><path class="cls-5" d="M480.84,126.61V146.4L484,162.25c2.5,7.47,5.35,16.81,5.35,16.81l-2.11,11.21-11.29-1-7.48,5.61-7-15.81-4.39-6.23-8.73,2.5A44,44,0,0,0,438,189c-5,1.87-7.69-8.1-7.69-8.1l-4.47-.62-13.7-2.49,7.5-6.85c6.87-6.23,10.67-10.23,10.67-10.23,4.95-8.46,7.45-12.65,7.45-12.65a34.06,34.06,0,0,0,8.11-3.28c4.76,2.37,11.11,2.1,11.11,2.1l9.83-3.56,6.58-5.39Z"/><path class="cls-5" d="M498.31,208.33l23.41,24.87a38.92,38.92,0,0,1-6.25,7.07c-5.61,5.67-14.6,9.51-14.6,9.51-5-1,1.75-7.34,1.75-7.34,6-7.28.44-13.38.44-13.38l-14.83-14.33,3.37-2.38,3.45-1.53,2.66-1.84Z"/><path class="cls-5" d="M415.3,208.29l4.29,3.45,6.2-1.73,3.88-1.72v20.24l3.47,8.16c-1.49,5.17-8.92,3.69-8.92,3.69a57.94,57.94,0,0,1-8.92.2c-3,1.77-6.44.08-6.44.08l-3-4,6.2-3.22,5.19-2.47,2.31-.5-2.8-9.87-2-7.9Z"/><path class="cls-7" d="M398.7,44.65l3.47,12.43c-11.05,2.67-11.09,6.18-11.09,6.18l4.15,9.54c-3,3.45-8.36,1.93-8.36,1.93l-4.52-9.83c-3.47-2-6.08-2.68-7.31-5-1-1.86-1.26-6.15-.77-8.29.53-2.37.34-4,2.63-4.82,6.06-2.21,6.91-2.27,9.21-2.1,2.15.17,8.62-.22,8.62-.22Z"/><path class="cls-7" d="M366.24,77.61l-1.88.1a3.42,3.42,0,0,0-3.13,2.63l-.86,3.74a4.68,4.68,0,0,1-.17.53l-3.27,7.9a3.52,3.52,0,0,0-.16.49l-2.18,8.93a3.36,3.36,0,0,0,.07,1.86l2.54,7.8a4,4,0,0,1,.16.84l.41,6.66a3.35,3.35,0,0,1-.27,1.56,40.67,40.67,0,0,0-3.06,9.69,3.41,3.41,0,0,1-.8,1.73c-4.43,5.26-6.76,12.59-7.47,15.12a3.39,3.39,0,0,0,0,1.76l4.23,16.38c1.49,6.42,3.47,14.81,3.47,14.81,1,3,2.23,4.52,3.17,5.24a3.3,3.3,0,0,0,2.19.65c5.14-.25,9.24-.2,11.76-.11a3.4,3.4,0,0,0,3.43-2.64l1.15-5.07a3.41,3.41,0,0,1,6-1.35l4.27,5.45a3.87,3.87,0,0,0,.53.54l5.36,4.34a3.4,3.4,0,0,0,4.44-.14l3.78-3.45,8.06-7.89a3.42,3.42,0,0,0,1-2.43V162a3.38,3.38,0,0,0-.8-2.19l-11-13.13a2.87,2.87,0,0,1-.39-.57l-6.91-12.76-.13-.23-2.3-3.56a3.38,3.38,0,0,1,.83-4.56,23.46,23.46,0,0,0,7.06-9.21,3,3,0,0,0,.19-.6,121.6,121.6,0,0,1,3.26-11.87,3.42,3.42,0,0,0,.18-.9A20.66,20.66,0,0,0,396.63,92a3.17,3.17,0,0,0-.32-.49,32,32,0,0,1-4.76-7.78,3.46,3.46,0,0,1-.21-.78L391,80.44a3.39,3.39,0,0,0-3.48-2.94h-.18a3.48,3.48,0,0,0-2.77,1.59c-1.34,2-4.3,5.32-9.14,4.4-3.91-.74-5.32-2.14-5.72-3.4A3.47,3.47,0,0,0,366.24,77.61Z"/><polygon class="cls-9" points="350.64 133.76 368.7 135.12 381.24 134.75 392.39 133.16 388.21 125.89 379.81 126.21 369.75 126.27 354.93 124.5 353.91 126.63 350.64 133.76"/><path class="cls-7" d="M409,215.69H397V235c-4.46,7.4-7.14,9.38-7.14,9.38a24,24,0,0,0,7.63,8.61L409,254.16c8.26,1,10.57,0,10.57,0l3.64-7.08-11.14-2.75-3.23-3.67L409,229l3.07-8.88v-4.45Z"/><path class="cls-7" d="M366.74,210.75h-6.93l-5.95-2.46-3,2.46v21.73l-5,5.26c.5,7.58,4,9.34,4,9.34,7.92,1.69,13.37-5.69,13.37-5.69,3-5.45,3.47-8.42,3.47-8.42l-5.94-1h0l2-6.85,2-6.57Z"/><path class="cls-7" d="M720.85,130s-.35-7-.44-9.91c-.06-2.09.8-6.22,1.1-8.29.25-1.74-.66-8.41-.66-8.41l-.07-17.25-2.12-.72-2.41,17.74L706,100.35l-2.19-2.62,2.63-6.06a44.41,44.41,0,0,1,2.36-4.23c3.5-3.93,3.52-8,2.32-9.6a10.38,10.38,0,0,0-4.47-3.28c-4.62-1.89-6-.41-7.88.89-2.32,1.66-2.92,2.13-4.15,4.4-1,1.86-1.72,6.17-1.75,8.28,0,1.94,1.39,7.63,1.39,7.63l6,4.73-.87,6.83c-1.32,4.8-6.57,10.91-6.57,10.91L688.9,120v18.76l-3.06,4.8v15.26l3.94,8.17,1.31,8A70.14,70.14,0,0,0,693.72,188c5.25,1.3,12.25,0,12.25,0,7.33-3.05,6.63-5.42,6.63-5.42l3.88,6,5.25,2.47,15.32-7.89-16.64-20.9.44-6.54,1.75-10.9L720,137Z"/><polygon class="cls-9" points="683.73 138.9 701.04 144.2 713.36 146.59 724.58 147.5 722.12 139.48 713.86 137.95 704.02 135.8 689.96 130.81 687.59 130.24 683.73 138.9"/><path class="cls-7" d="M694.15,215.49l-3.93-2.1L684.91,209c-.44-3.49-24.54,19.9-24.54,19.9l17.3,16.33s2.76,2.76,3.83,3.06c1.77.5,5.3-1.39,5.3-1.39s1-2.64-2.72-6.6a20.65,20.65,0,0,1-5.16-9.45l-1-3.75,8.78-6.4Z"/><path class="cls-7" d="M733.46,216.84h-7.13l-6.56-2.19v20.5s-2.77,9.35-2.64,11c.09,1.07,1.76,3.92,1.76,3.92l28.27,4.41s1-4.11-.55-4.72C740,247.26,733,241.71,733,241.71l-1-6.45.43-7.45Z"/><path class="cls-7" d="M718.66,61.69h11.82c-1.31-7-2.63-11.78-2.63-11.78-5.25-.44-6.56-3-6.56-3H705.53v5.23l-4.81,2.18V59.5l1.57,3.93,3.24,7.76,10.07,6.63,3.06-6.63-3.06-6.45Z"/><path class="cls-7" d="M765.09,63a7.68,7.68,0,0,1,7.55-2.76c2.25.66,5.19,4.79,6.44,6.76,1.75,2.76,1.56,5.59.6,7.12-3,4.78-2.6,1-6.41,2.59a5.29,5.29,0,0,1-6.79-2.22,8.21,8.21,0,0,1-2.66-2.32,24.34,24.34,0,0,1-1.14-4.73S764.42,64,765.09,63Z"/><path class="cls-5" d="M791.9,75.72l7,9.65v26.12a22.8,22.8,0,0,0-3.51,10.9,87,87,0,0,1,0,12.22l3.51,8.28,2.62,7.85-2.19,9.91-2.62,11.9v17l-30.64-4.8v-10.9L755.58,183l-15.42-10.9,7.1-18.32L759.51,139l1.32-4.36-.88-6.55.88-15.7,11.81,3.49,9.63-7.85,4.82-5.67,4.81-7,2.63-4.8.87-5Z"/><polygon class="cls-9" points="755.92 139.53 775.71 139.36 789.41 137.91 801.53 135.37 796.69 128.42 787.53 129.46 776.53 130.38 760.26 129.87 757.59 130.03 755.92 139.53"/><path class="cls-5" d="M758.13,93.88l-8.68,9.6-4.45-7-5.34-2.62a34.93,34.93,0,0,1-2.93-9.16l.6-7.61a18.26,18.26,0,0,1,5.19-3.82V68.88L751.57,66c4.81.43,6.56,2.91,6.56,2.91a82.2,82.2,0,0,0,5.69,11.05c-3.94,2.61-4.37,4.79-4.37,4.79l.87,4.85Z"/><path class="cls-5" d="M801.53,64.67l-2.62,8.24h-8.32c-7-4.17-7.44-8.24-7.44-8.24.44-3.78,3.94-8.14,3.94-8.14a12.35,12.35,0,0,0-1.75-7.85,2.86,2.86,0,0,1,1.31-3.93l4.81-2.61h0L801.53,50a36.68,36.68,0,0,1,6.57,5.67l.43,3.92-2.18,5.09Z"/><path class="cls-5" d="M802.53,215.37l-1,5.52L796.9,223l-5.39,1.64,7.44,8.12,6,8.22c2.1,3.17-.86,8.93-.86,8.93-.88,2.31-4.69,8.59-4.49,10.3.47,4.27,9.58-2.73,9.58-2.73,4.95-4.46,13.44-18.85,13.44-18.85-6.13-7.2-9.12-8.44-11.7-11.56C808.63,224.26,802.53,215.37,802.53,215.37Z"/><path class="cls-5" d="M758.56,217.31l-6.16,2-6.32,1,4.64,11.34,3.27,9.61-3.93,6L739.67,252c3.64,5.37,7.86,3.25,7.86,3.25l12.29-3.14,8.5-3.1-1.78-6.44-2.62-6.14-4-12.05Z"/><polyline class="cls-2" points="188.34 100.72 179.09 98.37 170.2 90.8 170.2 80.55 162.5 71.01 150.16 73.5 148.09 84.53 148.09 92.4 154.17 98.37 146.3 103.61 150.16 116.08 150.16 123.43 146.3 126.1 152.73 135.65 159.16 141.42 172.21 145.63 187.77 125.1 190.37 106.3 188.14 100.19"/><polygon class="cls-2" points="142.76 120.29 138.03 130.2 130.22 132.61 128.29 128.28 130.22 116.08 142.76 120.29"/><path class="cls-2" d="M199.37,224.9l-.83-14.17-8.74-9.21,1.93-8.78-18-2.54v11.32l5.37,12c3.17,5.75,12.17,15.72,12.17,15.72"/><polyline class="cls-2" points="150.16 187.7 142.76 198.72 142.76 201.52 146.3 213.5 142.76 222.15 130.22 222.15 128.29 210.02 128.29 198.21 130.22 190.2 135.53 182.69 146.3 182.69 150.16 187.7"/><path class="cls-8" d="M132.51,85.35H121.45l-12.56,4.11L93.31,90.8H82.75l-8-2.73L70.9,89.46s-1.19,11.52,0,15.1c.74,2.23,3.79,9,5.64,7.53,8.35-6.62,12.6-9.76,12.6-9.76h10.2a145.65,145.65,0,0,1,16-2.84l14.92-3.89,2.29-10.25"/><path class="cls-3" d="M79.14,82.54l3.78-8.47V57.13h-12L61,68.07l3.07,13.84C67.14,89.55,79.14,82.54,79.14,82.54Z"/><polygon class="cls-3" points="82.92 178.99 91.89 190.2 91.89 210.02 90.5 215.45 87.35 224.59 75.12 226.94 72.53 215.82 73.12 205.81 78.2 201.52 68.75 190.2 73.12 182.69 80.32 178.99 82.92 178.99"/><path class="cls-8" d="M58.37,185.58l8,19.29c-6.61,6.59-13.69,14.4-13.69,14.4l-11.33,2.88-7.53-4.55,4.45-9.91,13-6.17-2-13.12Z"/><path class="cls-7" d="M69.24,148.35,70,142.5l2.94-11,2.3-19.86L74,85.47H68.75s-.23,16.23-4.08,19.44c-12.38,10.37-14.19-29.57-16-29.57l-5-.59,8,35.59L44.3,116v7.52l-5.87,11.69v19l5.14,11.72v11l2.93,13.89H61.9V183.8l6.45,9L86.84,179Z"/><path class="cls-7" d="M60.16,74.41,57.85,55.47c8.8-3.65,21.23-2.72,21.23-2.72,7.34.73,6.45,2.88,6.45,2.88.42,6.53-1.07,7.59-1.07,7.59L75.7,62.14,72,65v5.85l-1.46,5.85"/><path class="cls-7" d="M130.22,95.6V85.35h5.15a32.61,32.61,0,0,1,7.71-4.81h5.79l6.43,7.53V95.6c-5.14,3.85-8,2.57-8,2.57l-4.5-3.85Z"/><path class="cls-7" d="M88.33,223.71,74,222.15V241.7l-2.57,6.08v6.41c3.21,2.57,30.86,2.25,30.86,2.25h4.5c8,0-1-5-2.87-5.65-2.63-1-12.49-3.29-12.49-3.29-2.57-.64-4.42-3.83-4.42-3.83l1.36-8Z"/><path class="cls-7" d="M45.67,220.55,30.46,234l4.18,6.15s8,6.92,8.06,8.59c0,6.51-8.43,1.09-8.43,1.09L16.88,237.72l-.86-.93c-.95-1,2.1-5.14,3.15-6l5.28-4.6,5.47-6.55,4.5-6.09Z"/><path class="cls-5" d="M199.9,220.35l-2.6,2.53-9.53,4.06,6.27,8.7,1.45,5.43v6.71a15,15,0,0,0-1.45,6.41,23.3,23.3,0,0,0,2.41,5.81h3.86c4.5-5.17,5.79-6.77,5.79-6.77,2.25-4.48,3.21-7,3.21-7v-3.52a69.69,69.69,0,0,1-3.86-7c-1-1.95-1.93-4.51-1.93-4.51-1-3.21-1.93-5.77-1.93-5.77Z"/><path class="cls-5" d="M140.82,217.87l-11.44-1-.44,4v15.06l-1.27,5.4c-2.89,2.54-8,3.31-8,3.31-4.51.32-6.58,8.17-6.58,8.17,15.38,1.35,28.85-4.59,28.85-4.59l-.12-10.66,1.29-9,1.61-7.69Z"/><path class="cls-5" d="M192.27,195.06H183c-7.08-1.74-11.25,0-11.25,0h-3.22v-6.87a56.74,56.74,0,0,0-3.21-9.93c-1.29-4.8-3.86-4.63-3.86-4.63l-6.11,7.84-4.18,8.33c-3.21,1.6-6.43-1.29-6.43-1.29l-6.43-4.16c-5.79-.64-8,0-8,0l3.86-10.72,8.68-10.43,6.43-10.57,1.29-5.13.32-7,1.93-4.81,6.43,5.77h7.07c3.54-5.45,8-10.9,8-10.9l6.75-7.09h4.18l2.57-9.57v-9.29l4.5-2.24,1.93,10.89-1.61,8.65-1,5.77a28.35,28.35,0,0,1-5.79,6.73l1.93,11.21V152l6.43,8v18.58a18.18,18.18,0,0,1,0,9Z"/><path class="cls-5" d="M187.77,104.57l4.54-2c-2-10.85-15.79-11.76-15.79-11.76-1.93,1-4.5,5.76-4.5,5.76l-6.75,7a91.74,91.74,0,0,1-5.79,7.69c-1.61,2.56-4.18,0-4.18,0l-4.18-5.77-4.82-1.92-7.4,2.89h-2.25v-4.17a31.31,31.31,0,0,1-6.43,0l-4.5,4.17-1.93,9.29v7.64l4.5,4.85,5.47-4.85c2.89-3.48,5.79-1.56,5.79-1.56a19.11,19.11,0,0,0,3.21,6.41,25.46,25.46,0,0,1,6.75,1.92c3.54-1,4.66-2.56,4.66-2.56v-2.56l4.34-.32c2.9,4.16,8.36-1.33,8.36-1.33l4.5-7.32L173,110.5s.56-6.88,2.25-8.17a15.81,15.81,0,0,1,3.23-1.26A8.75,8.75,0,0,1,187.77,104.57Z"/><path class="cls-5" d="M179.09,72.21v9.62A30.32,30.32,0,0,0,173,89.46l-6.11,2.94-4.37-4.81,4.05-5.28L164,75.74l-5.14-1.28-11-.4.84-9.37,6.58-1.13a15.89,15.89,0,0,1,7.2-1.92,14.61,14.61,0,0,1,8.63,3l4.74,3Z"/><text class="cls-31" transform="translate(11.25 551.47)">M<tspan class="cls-32" x="18.1" y="0">o</tspan><tspan x="31.96" y="0">vimien</tspan><tspan class="cls-33" x="110.55" y="0">t</tspan><tspan x="120.15" y="0">os d</tspan><tspan class="cls-34" x="168.23" y="0">e</tspan><tspan class="cls-35" x="182.29" y="0">f</tspan><tspan class="cls-36" x="191.77" y="0">ensi</tspan><tspan class="cls-37" x="240.78" y="0">v</tspan><tspan x="253.92" y="0">os</tspan></text><text class="cls-31" transform="translate(9.72 24.65)">M<tspan class="cls-32" x="18.1" y="0">o</tspan><tspan x="31.96" y="0">vimien</tspan><tspan class="cls-33" x="110.55" y="0">t</tspan><tspan x="120.15" y="0">os </tspan><tspan class="cls-38" x="153.7" y="0">o</tspan><tspan class="cls-39" x="167.99" y="0">f</tspan><tspan x="177.48" y="0">ensi</tspan><tspan class="cls-37" x="226.49" y="0">v</tspan><tspan x="239.62" y="0">os</tspan></text><polygon class="cls-1" points="158.91 610.69 151.17 603.04 148.77 606.64 146.78 611.14 151.44 619.25 162.04 614.25 158.91 610.69"/><path class="cls-5" d="M158.46,614.25c1.36-.87,1.73-4,1.73-4s11.76-2.51,13.9,2.82,2,37.14,2,37.14v8.46l6,12.94V683l-4,6.4-1,24.45-18,2,6.27-13.08-13.26,19.05-16.48-12,19-38.31V659.16l-3.49-7-2-19.4-.5-13.44,1.88-3.52S156.46,615.52,158.46,614.25Z"/><polygon class="cls-8" points="43.36 608.6 52.89 598.03 60.84 603.91 59.76 610.03 59.6 615.83 62.2 619.38 61.65 622.16 60.39 624.8 44.38 620.25 40.67 613.88 43.36 608.6"/><polygon class="cls-2" points="149.97 599.79 143.48 591.83 135.69 595.81 133.18 598.75 135.35 608.6 135.69 614.25 141.58 613.63 146.97 612.16 148.77 606.64 149.97 599.79"/><polygon class="cls-2" points="133.18 610.24 124.77 606.64 116.67 604.68 107.37 604.68 101.37 604.68 101.37 612.76 104.93 614.25 110.07 615.83 115.77 618.22 126.35 618.22 133.18 616.94 133.18 610.24"/><polygon class="cls-2" points="175.77 711.41 175.77 721.86 182.13 723.08 184.62 727.33 182.13 733.3 173.67 733.3 164.37 727.33 160.47 722.35 163.77 712.61 175.77 711.41"/><polygon class="cls-2" points="151.17 715.3 146.67 725.09 148.92 729.95 149.67 733.3 143.48 740.41 140.07 742.21 137.19 739.22 135.69 728.75 132.57 722.35 135.69 717.39 138.57 708.73 145.47 708.73 151.17 715.3"/><polygon class="cls-5" points="184.62 727.33 178.13 734.3 188.12 748.23 188.12 754.7 182.13 760.17 178.13 760.17 179.63 765.24 183.12 768.13 193.11 765.24 207.59 752.21 203.1 747.73 192.86 739.22 188.62 731.31 184.62 727.33"/><polygon class="cls-5" points="149.67 733.3 140.68 739.22 135.69 739.22 135.69 761.17 128.7 765.24 121.71 768.13 121.71 774.11 131.69 774.11 144.68 774.11 152.66 768.13 149.67 758.68 149.67 733.3"/><path class="cls-5" d="M152,587l4,5.4,1.41,5.39L153.89,603l-2.35,5.63-4.95,1.64h-3.06l-1.17-3.6,2.59-5.07.94-6.34c-1.41-1.17-7.77.47-7.77.47l-4.94,3-1.89-3v-6.1l6.12-3.05,7-2.81Z"/><polygon class="cls-5" points="103.28 605.08 102.34 614.94 91.52 612.83 93.4 616.34 91.52 618.22 86.57 618.22 82.81 616.34 80.45 610.24 80.45 606.64 86.57 601.33 92.69 601.33 100.46 602.74 104.93 602.27 103.28 605.08"/><polygon class="cls-8" points="80.45 700.18 85.26 708.73 85.26 719.69 82.86 736.99 71.77 736.99 70.84 725.09 71.77 716.38 66.8 703.86 80.45 700.18"/><polygon class="cls-3" points="49.81 706.07 49.81 725.09 45.01 730.73 39.47 739.22 31.34 745.09 25.43 742.21 25.43 735.15 29.33 725.58 33.93 721.86 37.62 718.59 36.14 700.18 49.81 706.07"/><polyline class="cls-8" points="84.76 610.24 89.8 623.14 89.8 631.37 86.81 634.61 82.38 637.69 77.83 637.69 75.06 636.07"/><polyline class="cls-3" points="69.19 586.82 72.56 599.79 70.84 604.68 66.28 610.24 61.61 611.45 57.9 608.6 55.33 604.68 54.69 597.66"/><polygon class="cls-7" points="67.78 632.29 63.78 647.71 63.78 656.17 67.78 670.11 73.77 682.05 84.76 696.98 84.76 702.45 63.78 711.41 54.3 697.97 54.3 711.41 31.83 711.41 29.33 667.12 33.33 664.25 32.83 648.71 33.33 623.14 40.82 623.14 50.8 627.31 57.04 630.79 67.78 632.29"/><polygon class="cls-9" points="30.93 659.26 31.96 664.25 57.04 670.17 65.01 670.17 70.84 667.28 69.14 662.35 55.92 662.55 42.81 661.19 35.47 659.26 30.93 659.26"/><polygon class="cls-9" points="149.97 665.79 152.48 670.23 182.13 667.02 185.77 665.86 190.45 661.34 187.32 657.16 174.79 661.36 161.89 664.03 154.3 664.41 149.97 665.79"/><polygon class="cls-7" points="82.76 733.3 71.77 733.3 71.77 753.7 71.77 760.67 74.27 765.24 84.76 765.24 89.25 768.13 98.74 768.13 98.74 760.17 92.69 757.68 85.26 753.7 82.76 744.75 82.76 733.3"/><path class="cls-7" d="M37.32,739.22l-8,2.54-4.49-2.54-7,14.48-5,7.47v4.07l2,2.89,2,3h26v-5.88a47.43,47.43,0,0,1-11.48-4.07l-2-6,4-7.44Z"/><path class="cls-7" d="M71.81,585.58l-6.31-1.84L62.1,581H50.69L49,585.58l-3.4,1.7v5.81l1.94,3.9,2.67,2.87,1.7,3.87,3.16,2.91H58.7C62.58,604,61.61,597,61.61,597l.25-3.18c3.15-1.45,4.61-2.18,4.61-2.18l3.89-.24Z"/><path class="cls-7" d="M91.24,598.17l2.67-8.23-4.86-3.87-5.58-2.33-4.62,1.6L74.73,588,73,593.81,70.84,597v6l3.64,3.63a55.26,55.26,0,0,1-1.21,8l7.18,1.21,5.69-2.66,1.21-8.23Z"/><polygon class="cls-3" points="82.38 611.45 82.38 625.51 82.38 632.38 76.82 635.62 68.71 637.69 63.64 634.61 54.31 631.57 45.59 627.74 38.29 625.71 35.45 623.14 33.42 615.83 36.67 608.6 42.35 606.64 46.81 609.77 49.85 612.58 55.73 617.02 58.7 620.05 63.44 622.16 67.9 623.14 70.84 623.14 75 612.98 82.38 611.45"/><path class="cls-1" d="M151.44,619.25c-7.08-.13-8.37,25.2-8.37,25.2l-2.4-2.1-3.48-10.16-4.83,2,.21,12.69s.15,5.53.9,7.17a18.28,18.28,0,0,0,5.7,6.28c1.16.63,4,1.4,5.19.9,1.77-.74,11-22.06,12.24-23.5,1.54-1.75,2.84-11.93.82-15.14A9.9,9.9,0,0,0,151.44,619.25Z"/><polygon class="cls-5" points="140.24 635.34 130.35 637.69 130.35 629.71 126.35 622.44 126.35 615.4 131.29 608.6 136.94 608.6 140.24 611.65 144.36 617.75 142.83 623.14 141.18 625.73 140.24 635.34"/><path class="cls-7" d="M433.85,105.23l4.4-2.36V92.36a35.75,35.75,0,0,0-2.81-4.26l-5.12-1.32-4.53-1.11a13.48,13.48,0,0,0-6.2,2.43,11.64,11.64,0,0,0,0,6.49l6.2-1.41,5.34.6,3.05,2.63,1,4.26Z"/><path class="cls-3" d="M385.77,92.05c.84,4,12.79,5.34,12.79,5.34l7.33,5.48,6.2,7.37c8.74,4.42,18.17.31,18.17.31l5.18-7.68V97.39l-5.18-4.21h-7c-2.86,6.32-7.33,4.21-7.33,4.21l-3.81-4.21-5.56-9.1-3-3.73a18,18,0,0,0-15.4-1c-6.83,2.77-2,13.5-2,13.5"/><polygon class="cls-9" points="33.84 139.42 49.86 147.35 61.5 151.85 73.74 154.9 71.31 147.78 63.49 144.82 54.24 141.02 41.35 134.02 39.13 133.06 33.84 139.42"/><polygon class="cls-9" points="144.69 154.95 162.77 156.08 175.31 155.54 186.43 153.82 182.16 146.6 173.77 147.03 163.7 147.22 148.86 145.64 146.42 145.63 144.69 154.95"/><path class="cls-3" d="M45.84,101.13l.83-3.32a13.91,13.91,0,0,0,1.12-3.34A11.25,11.25,0,0,0,46.53,91c-.37-.77-2-14.51-2.65-15.06-2.09-1.78-4.6-1-7,.07-1.58.71-7.18,17.63-8,19.15-1.89,3.56,2.29,8,3,12,.33,1.95,3,9,3.35,11,1.46,8.32,5,10.28,5,10.28,7.08-2.49,9.06-11.39,9.06-11.39l3.35-7.09,4.71-8.77C55,98,50.07,97.6,50.07,97.6h0a26.23,26.23,0,0,0-5.39,6.23c-.28.46-.7,1.13-1.19,1.88C42,108,40,111.08,40,111.08"/><path class="cls-7" d="M50.07,97.6l4.28-3.67.7-3.13s0-4.64,1.12-5.54c1.43-1.16,5.59-.42,7.39,0,1.58.37,5.13.57,6.27,1.73,1.67,1.69,3.14,6.88,2.49,9.17-.54,1.88-3.06,5.36-4.86,6.17-2.3,1-10.08.64-10.08.64l-4.3,6.17L47,100.72Z"/><polygon class="cls-9" points="465.35 150.46 476.26 150.13 483.76 149.1 490.33 147.45 487.36 143.35 482.35 144.08 476.32 144.76 467.33 144.64 465.86 144.77 465.35 150.46"/></svg>