<?xml version="1.0" encoding="utf-8"?>
<!-- Generator: Adobe Illustrator 26.1.0, SVG Export Plug-In . SVG Version: 6.00 Build 0)  -->
<svg version="1.1" xmlns="http://www.w3.org/2000/svg" xmlns:xlink="http://www.w3.org/1999/xlink" x="0px" y="0px"
	 viewBox="0 0 4571 3826" style="enable-background:new 0 0 4571 3826;" xml:space="preserve">
<style type="text/css">
	.st0{fill:#CCCCCC;}
	.st1{fill:#B1FF8B;}
	.st2{fill:#FFFF00;}
	.st3{fill:#FFA100;}
	.st4{font-family:'Karantina-Regular';}
	.st5{font-size:140px;}
	.st6{font-family:'DejaVuSans-Bold';}
	.st7{font-size:36px;}
	.st8{font-size:35px;}
	.st9{font-family:'MyriadPro-Regular';}
	.st10{font-size:24px;}
	.st11{font-family:'DejaVuSansCondensed';}
	.st12{font-family:'DejaVuSans';}
	.st13{font-size:28px;}
	.st14{fill:none;stroke:#000000;stroke-miterlimit:10;}
	.st15{fill:none;stroke:#000000;stroke-miterlimit:10;stroke-dasharray:5.0084,5.0084,5.0084,5.0084;}
	.st16{fill:none;stroke:#000000;stroke-miterlimit:10;stroke-dasharray:5.0084,5.0084,5.0084,5.0084,5.0084,5.0084;}
	.st17{fill:none;stroke:#000000;stroke-miterlimit:10;stroke-dasharray:5.0354,5.0354,5.0354,5.0354;}
	.st18{fill:none;stroke:#000000;stroke-miterlimit:10;stroke-dasharray:5.0354,5.0354,5.0354,5.0354,5.0354,5.0354;}
	.st19{fill:none;stroke:#000000;stroke-miterlimit:10;stroke-dasharray:5.0168,5.0168,5.0168,5.0168;}
	.st20{fill:none;stroke:#000000;stroke-miterlimit:10;stroke-dasharray:5.0168,5.0168,5.0168,5.0168,5.0168,5.0168;}
	.st21{fill:none;stroke:#000000;stroke-miterlimit:10;stroke-dasharray:4.9198,4.9198,4.9198,4.9198;}
	.st22{fill:none;stroke:#000000;stroke-miterlimit:10;stroke-dasharray:4.9198,4.9198,4.9198,4.9198,4.9198,4.9198;}
</style>
<g id="Capa_2">
	<rect x="2083" y="253.95" class="st0" width="753" height="3092.05"/>
	<rect x="3272" y="253.95" class="st1" width="753" height="1739.05"/>
	<rect x="4053" y="481" class="st1" width="376" height="120"/>
	<rect x="4053" y="1082" class="st1" width="376" height="134"/>
	<rect x="4053" y="1656" class="st1" width="376" height="271"/>
	<rect x="4053" y="2044" class="st0" width="376" height="52"/>
	<rect x="3272" y="1989" class="st0" width="753" height="164"/>
	<rect x="2082.5" y="252.5" class="st2" width="753" height="1469"/>
	<rect x="2082.5" y="1711.5" class="st3" width="753" height="1629"/>
	<rect x="2871.5" y="353.5" class="st2" width="234" height="133"/>
	<rect x="2862.5" y="920.5" class="st2" width="381.5" height="256.5"/>
	<rect x="2862.5" y="1529" class="st2" width="381.5" height="105"/>
	<rect x="2862.5" y="1756" class="st3" width="381.5" height="105"/>
	<rect x="2862.5" y="2108" class="st3" width="381.5" height="105"/>
	<rect x="2862.5" y="2628" class="st3" width="381.5" height="127"/>
	<rect x="2862.5" y="3077" class="st3" width="381.5" height="127"/>
</g>
<g id="Capa_1">
	<text transform="matrix(1 0 0 1 135.7002 2069.1533)" class="st4 st5">BOXEO</text>
	<text transform="matrix(1 0 0 1 484.3652 614)" class="st6 st7">HISTORIA</text>
	<text transform="matrix(1 0 0 1 517 133)" class="st6 st8">TEMA</text>
	<text transform="matrix(1 0 0 1 861 133)" class="st6 st8">SUBTEMAS</text>
	<text transform="matrix(1 0 0 1 1673 133)" class="st6 st8">ARCO NARRATIVO</text>
	<text transform="matrix(1 0 0 1 2382 133)" class="st6 st8">STORYBOARD</text>
	<text transform="matrix(1 0 0 1 136 133)" class="st6 st8">DEPORTE</text>
	<text transform="matrix(1 0 0 1 484.3652 1471)"><tspan x="0" y="0" class="st6 st7">REGLAS </tspan><tspan x="0" y="43.2" class="st6 st7">Y</tspan><tspan x="0" y="86.4" class="st6 st7">MOVIMIENTOS</tspan></text>
	<text transform="matrix(1 0 0 1 783 327)" class="st9 st10">ORIGENES</text>
	<text transform="matrix(1 0 0 1 1689 327)" class="st11 st10">PRESENTACIÓN     </text>
	<text transform="matrix(1 0 0 1 2888 417)"><tspan x="0" y="0" class="st6 st10">PRESENTACIÓN</tspan><tspan x="0" y="28.8" class="st12 st10">ORIGENES     </tspan></text>
	<text transform="matrix(1 0 0 1 1689 487.75)" class="st11 st10">ACCIÓN ASCENDENTE</text>
	<text transform="matrix(1 0 0 1 2888 986.75)"><tspan x="0" y="0" class="st6 st10">ACCIÓN ASCENDENTE</tspan><tspan x="0" y="28.8" class="st12 st10">JUEGOS OLIMPICOS </tspan><tspan x="0" y="57.6" class="st12 st10">ANTIGUOS </tspan><tspan x="0" y="86.4" class="st12 st10">Y MODERNOS</tspan><tspan x="0" y="115.2" class="st12 st10">INCLUSIÓN PANAMERICANOS</tspan><tspan x="0" y="144" class="st12 st10">INCLUSIÓN FEMENINA</tspan></text>
	<text transform="matrix(1 0 0 1 4089 519.75)"><tspan x="0" y="0" class="st6 st10">ACCIÓN ASCENDENTE</tspan><tspan x="0" y="28.8" class="st12 st10">EQUIPAMIENTO</tspan><tspan x="0" y="57.6" class="st12 st10">(figura con zonas activas)</tspan></text>
	<text transform="matrix(1 0 0 1 1689 811.25)" class="st11 st10">ACCIÓN DESCENDENTE</text>
	<text transform="matrix(1 0 0 1 2888 1574)"><tspan x="0" y="0" class="st6 st10">ACCIÓN DESCENDENTE</tspan><tspan x="0" y="28.8" class="st12 st10">REFERENTES DEPORTIVOS</tspan></text>
	<text transform="matrix(1 0 0 1 2888 1808)"><tspan x="0" y="0" class="st6 st10">PRESENTACIÓN </tspan><tspan x="0" y="28.8" class="st12 st10">ROUNDS    </tspan></text>
	<text transform="matrix(1 0 0 1 2888 2157.75)"><tspan x="0" y="0" class="st6 st10">ACCIÓN ASCENDENTE</tspan><tspan x="0" y="28.8" class="st12 st10">PUNTUACION</tspan></text>
	<text transform="matrix(1 0 0 1 2888 3140)" class="st6 st10">ACCIÓN DESCENDENTE</text>
	<text transform="matrix(1 0 0 1 2888 2669.5)"><tspan x="0" y="0" class="st6 st10">CLIMAX</tspan><tspan x="0" y="28.8" class="st12 st10">MOVIMIENTOS PERMITIDOS</tspan><tspan x="0" y="57.6" class="st12 st10">(animación vectores)</tspan></text>
	<text transform="matrix(1 0 0 1 1689 1105)" class="st11 st10">PRESENTACIÓN     </text>
	<text transform="matrix(1 0 0 1 1689 1272.75)" class="st11 st10">ACCIÓN ASCENDENTE</text>
	<text transform="matrix(1 0 0 1 1689 1478.25)" class="st11 st10">ACCIÓN DESCENDENTE</text>
	<text transform="matrix(1 0 0 1 1689 1581)" class="st11 st10">DESENLACE</text>
	<text transform="matrix(1 0 0 1 1689 3273)" class="st11 st10">DESENLACE</text>
	<text transform="matrix(1 0 0 1 1689 1375.5)" class="st6 st13">CLIMAX</text>
	<text transform="matrix(1 0 0 1 783 417)"><tspan x="0" y="0" class="st9 st10">JUEGOS OLIMPICOS </tspan><tspan x="203.95" y="0" class="st9 st10">ANTIGUOS (SIGLO VII) Y </tspan><tspan x="444.26" y="0" class="st9 st10">MODERNOS (SAINT LOUIS 1904)</tspan></text>
	<text transform="matrix(1 0 0 1 783 497)" class="st9 st10">JUEGOS PANAMERICANOS -BS AIRES</text>
	<text transform="matrix(1 0 0 1 783 566)" class="st9 st10">1RA INCLUSION FEMENINA (LONDRES 2012 Y TORONTO 2015)</text>
	<text transform="matrix(1 0 0 1 783 791)" class="st9 st10">REFERENTES DEPORTIVOS</text>
	<text transform="matrix(1 0 0 1 783 1112)" class="st9 st10">ROUNDS</text>
	<text transform="matrix(1 0 0 1 783 1524)" class="st9 st10">MOVIMIENTOS</text>
	<text transform="matrix(1 0 0 1 986 1076)" class="st9 st10">HOMBRES (3R-3M)</text>
	<text transform="matrix(1 0 0 1 986 1149)" class="st9 st10">MUJERES (4R-2M)</text>
	<text transform="matrix(1 0 0 1 986 1439)" class="st9 st10">PERMITIDOS</text>
	<text transform="matrix(1 0 0 1 1154 1387)" class="st9 st10">OFENSIVOS</text>
	<text transform="matrix(1 0 0 1 1315 1341)" class="st9 st10">DIRECTO</text>
	<text transform="matrix(1 0 0 1 1315 1387)" class="st9 st10">GANCHO</text>
	<text transform="matrix(1 0 0 1 1315 1428)" class="st9 st10">UPPERCUT</text>
	<text transform="matrix(1 0 0 1 1315 1478)" class="st9 st10">BLOQUEAR</text>
	<text transform="matrix(1 0 0 1 1315 1515)" class="st9 st10">ESQUIVAR</text>
	<text transform="matrix(1 0 0 1 1315 1554)" class="st9 st10">DETENER</text>
	<text transform="matrix(1 0 0 1 1154 1510)" class="st9 st10">DEFENSIVOS</text>
	<text transform="matrix(1 0 0 1 1154 1591)" class="st9 st10">CODAZOS</text>
	<text transform="matrix(1 0 0 1 1154 1626)" class="st9 st10">CABEZASOS</text>
	<text transform="matrix(1 0 0 1 1154 1661)" class="st9 st10">LÍMITE INFERIOR</text>
	<text transform="matrix(1 0 0 1 986 1598)"><tspan x="0" y="0" class="st9 st10">NO </tspan><tspan x="0" y="28.8" class="st9 st10">PERMITIDOS</tspan></text>
	<text transform="matrix(1 0 0 1 878 1782)" class="st9 st10">CASCO</text>
	<text transform="matrix(1 0 0 1 878 1846.875)" class="st9 st10">GUANTES</text>
	<text transform="matrix(1 0 0 1 878 1911.75)" class="st9 st10">VENDAS</text>
	<text transform="matrix(1 0 0 1 878 1976.625)" class="st9 st10">POLERA</text>
	<text transform="matrix(1 0 0 1 878 2041.5)" class="st9 st10">SHORTS</text>
	<text transform="matrix(1 0 0 1 878 2171.25)" class="st9 st10">PROTECTOR PECHO</text>
	<text transform="matrix(1 0 0 1 878 2106.375)" class="st9 st10">PROTECTOR BUCAL</text>
	<text transform="matrix(1 0 0 1 878 2236.125)" class="st9 st10">PROTECTOR ABDOMINAL</text>
	<text transform="matrix(1 0 0 1 878 2301)" class="st9 st10">ZAPATILLAS</text>
	<text transform="matrix(1 0 0 1 875 2442.7207)" class="st9 st10">LONA</text>
	<text transform="matrix(1 0 0 1 875 2511.1206)" class="st9 st10">CUERDAS</text>
	<text transform="matrix(1 0 0 1 875 2577.5203)" class="st9 st10">TEMPLADORES</text>
	<text transform="matrix(1 0 0 1 875 2641.9211)" class="st9 st10">PROTECTORES</text>
	<text transform="matrix(1 0 0 1 875 2708.3208)" class="st9 st10">ESCALERA</text>
	<text transform="matrix(1 0 0 1 875 2772.7207)" class="st9 st10">EXTRA-PUGILISTAS</text>
	<text transform="matrix(1 0 0 1 1097 2677.7207)" class="st9 st10">JUECES (5)</text>
	<text transform="matrix(1 0 0 1 1097 2729.9707)" class="st9 st10">ÁRBITRO</text>
	<text transform="matrix(1 0 0 1 1097 2782.2207)" class="st9 st10">ENTRENADOR Y SEGUNDO</text>
	<text transform="matrix(1 0 0 1 1097 2834.4707)" class="st9 st10">CRONOMETRADOR</text>
	<text transform="matrix(1 0 0 1 1097 2886.7207)" class="st9 st10">MÉDICO</text>
	<text transform="matrix(1 0 0 1 1050 3039.7207)" class="st9 st10">MOSCA</text>
	<text transform="matrix(1 0 0 1 1050 3089.8872)" class="st9 st10">PLUMA</text>
	<text transform="matrix(1 0 0 1 1050 3140.0542)" class="st9 st10">LIGERO</text>
	<text transform="matrix(1 0 0 1 1050 3190.2207)" class="st9 st10">WELTER</text>
	<text transform="matrix(1 0 0 1 1050 3240.3872)" class="st9 st10">MEDIANO</text>
	<text transform="matrix(1 0 0 1 1050 3290.5542)" class="st9 st10">MEDIO PESADO</text>
	<text transform="matrix(1 0 0 1 1050 3419.7207)" class="st9 st10">MOSCA</text>
	<text transform="matrix(1 0 0 1 1050 3469.8872)" class="st9 st10">PLUMA</text>
	<text transform="matrix(1 0 0 1 1050 3520.0542)" class="st9 st10">LIGERO</text>
	<text transform="matrix(1 0 0 1 1050 3570.2207)" class="st9 st10">WELTER</text>
	<text transform="matrix(1 0 0 1 1050 3620.3872)" class="st9 st10">MEDIANO</text>
	<text transform="matrix(1 0 0 1 1050 3670.5542)" class="st9 st10">MEDIO PESADO</text>
	<text transform="matrix(1 0 0 1 1050 3340.7207)" class="st9 st10">PESADO</text>
	<text transform="matrix(1 0 0 1 484.3652 2026)" class="st6 st7">EQUIPAMIENTO</text>
	<text transform="matrix(1 0 0 1 484.3652 2701.7207)" class="st6 st7">CUADRILÁTERO</text>
	<text transform="matrix(1 0 0 1 828 3182.1206)" class="st9 st10">HOMBRES</text>
	<text transform="matrix(1 0 0 1 828 3553.5203)" class="st9 st10">MUJERES</text>
	<text transform="matrix(1 0 0 1 1115 698.1206)" class="st9 st10">HOMBRES</text>
	<text transform="matrix(1 0 0 1 1251 633.1206)" class="st9 st10">ALI</text>
	<text transform="matrix(1 0 0 1 1251 699.1206)" class="st9 st10">TYSON</text>
	<text transform="matrix(1 0 0 1 1251 765.1206)" class="st9 st10">PACQUIAO</text>
	<text transform="matrix(1 0 0 1 1251 838.1206)" class="st9 st10">WILKINSON</text>
	<text transform="matrix(1 0 0 1 1251 904.1206)" class="st9 st10">ADAMS</text>
	<text transform="matrix(1 0 0 1 1251 970.1206)" class="st9 st10">ALVAREZ</text>
	<text transform="matrix(1 0 0 1 1115 904.5203)" class="st9 st10">MUJERES</text>
	<text transform="matrix(1 0 0 1 484.3652 3345.7207)" class="st6 st7">CATEGORÍAS</text>
	<line class="st14" x1="422.5" y1="607.5" x2="422.5" y2="3335.5"/>
	<line class="st14" x1="467" y1="607" x2="421.5" y2="607"/>
	<line class="st14" x1="721" y1="604" x2="675.5" y2="604"/>
	<line class="st14" x1="767" y1="318" x2="721.5" y2="318"/>
	<line class="st14" x1="767" y1="407.95" x2="721.5" y2="407.95"/>
	<line class="st14" x1="767" y1="487.95" x2="721.5" y2="487.95"/>
	<line class="st14" x1="768" y1="556" x2="722.5" y2="556"/>
	<line class="st14" x1="768" y1="787" x2="722.5" y2="787"/>
	<line class="st14" x1="1078" y1="781" x2="1052.5" y2="781.5"/>
	<line class="st14" x1="1103" y1="689" x2="1077.5" y2="689.5"/>
	<line class="st14" x1="1234" y1="690" x2="1219.5" y2="690"/>
	<line class="st14" x1="1249" y1="624" x2="1234.5" y2="624"/>
	<line class="st14" x1="1249" y1="690" x2="1234.5" y2="690"/>
	<line class="st14" x1="1249" y1="757" x2="1234.5" y2="757"/>
	<line class="st14" x1="1103" y1="899" x2="1077.5" y2="899.5"/>
	<line class="st14" x1="467.23" y1="1470.85" x2="421.73" y2="1470.85"/>
	<line class="st14" x1="467.67" y1="2017.31" x2="422.17" y2="2017.31"/>
	<line class="st14" x1="467.67" y1="2690.31" x2="422.17" y2="2690.31"/>
	<line class="st14" x1="467.67" y1="3335.31" x2="422.17" y2="3335.31"/>
	<line class="st14" x1="721.5" y1="318" x2="721.5" y2="787"/>
	<line class="st14" x1="721" y1="1451" x2="675.5" y2="1451"/>
	<line class="st14" x1="767" y1="1102" x2="721.5" y2="1102"/>
	<line class="st14" x1="767" y1="1285" x2="721.5" y2="1285"/>
	<line class="st14" x1="768" y1="1516" x2="722.5" y2="1516"/>
	<line class="st14" x1="721.5" y1="1102" x2="721.5" y2="1516.5"/>
	<line class="st14" x1="814" y1="2010.93" x2="768.5" y2="2010.93"/>
	<line class="st14" x1="860" y1="1769" x2="814.5" y2="1769"/>
	<line class="st14" x1="860" y1="1838.88" x2="814.5" y2="1838.88"/>
	<line class="st14" x1="860" y1="1902.88" x2="814.5" y2="1902.88"/>
	<line class="st14" x1="860" y1="1966.88" x2="814.5" y2="1966.88"/>
	<line class="st14" x1="860" y1="2034.88" x2="814.5" y2="2034.88"/>
	<line class="st14" x1="860" y1="2097.88" x2="814.5" y2="2097.88"/>
	<line class="st14" x1="860" y1="2160.88" x2="814.5" y2="2160.88"/>
	<line class="st14" x1="860" y1="2223.88" x2="814.5" y2="2223.88"/>
	<line class="st14" x1="861" y1="2300.36" x2="815.5" y2="2300.36"/>
	<line class="st14" x1="814.5" y1="1769" x2="814.5" y2="2301"/>
	<line class="st14" x1="814" y1="2677.93" x2="768.5" y2="2677.93"/>
	<line class="st14" x1="860" y1="2436" x2="814.5" y2="2436"/>
	<line class="st14" x1="860" y1="2505.88" x2="814.5" y2="2505.88"/>
	<line class="st14" x1="860" y1="2569.88" x2="814.5" y2="2569.88"/>
	<line class="st14" x1="860" y1="2633.88" x2="814.5" y2="2633.88"/>
	<line class="st14" x1="860" y1="2701.88" x2="814.5" y2="2701.88"/>
	<line class="st14" x1="860" y1="2764.88" x2="814.5" y2="2764.88"/>
	<line class="st14" x1="814.5" y1="2436" x2="814.5" y2="2764.5"/>
	<line class="st14" x1="1077.5" y1="689" x2="1077.5" y2="899.5"/>
	<line class="st14" x1="1408" y1="801" x2="1657.5" y2="801"/>
	<line class="st14" x1="1383" y1="617" x2="1408.5" y2="617.64"/>
	<line class="st14" x1="1383" y1="969.35" x2="1408.5" y2="970"/>
	<line class="st14" x1="1408.5" y1="617" x2="1408.5" y2="970"/>
	<line class="st14" x1="952" y1="1096.91" x2="926.5" y2="1097.22"/>
	<line class="st14" x1="977" y1="1064" x2="951.5" y2="1064.31"/>
	<line class="st14" x1="977" y1="1140.82" x2="951.5" y2="1141"/>
	<line class="st14" x1="951.5" y1="1064" x2="951.5" y2="1141"/>
	<line class="st14" x1="1129" y1="1433.91" x2="1116.5" y2="1433.91"/>
	<line class="st14" x1="1141" y1="1380" x2="1128.5" y2="1380.4"/>
	<line class="st14" x1="1141" y1="1502.77" x2="1128.5" y2="1503"/>
	<line class="st14" x1="1128.5" y1="1380" x2="1128.5" y2="1503"/>
	<line class="st14" x1="1129" y1="1616.91" x2="1116.5" y2="1616.91"/>
	<line class="st14" x1="1141" y1="1583.91" x2="1128.5" y2="1583.91"/>
	<line class="st14" x1="1141" y1="1616.91" x2="1128.5" y2="1616.91"/>
	<line class="st14" x1="1141" y1="1656.91" x2="1128.5" y2="1656.91"/>
	<line class="st14" x1="1128.5" y1="1584" x2="1128.5" y2="1657"/>
	<line class="st14" x1="1293" y1="1378.91" x2="1280.5" y2="1378.91"/>
	<line class="st14" x1="1305" y1="1332" x2="1292.5" y2="1332"/>
	<line class="st14" x1="1305" y1="1378.91" x2="1292.5" y2="1378.91"/>
	<line class="st14" x1="1305" y1="1418.91" x2="1292.5" y2="1418.91"/>
	<line class="st14" x1="1292.5" y1="1332.11" x2="1292.5" y2="1419"/>
	<line class="st14" x1="1299" y1="1501.91" x2="1286.5" y2="1501.91"/>
	<line class="st14" x1="1311" y1="1466.91" x2="1298.5" y2="1466.91"/>
	<line class="st14" x1="1311" y1="1501.91" x2="1298.5" y2="1501.91"/>
	<line class="st14" x1="1311" y1="1547.9" x2="1298.5" y2="1547.9"/>
	<line class="st14" x1="1298.5" y1="1467" x2="1298.5" y2="1548"/>
	<line class="st14" x1="952" y1="1518.91" x2="926.5" y2="1519.22"/>
	<line class="st14" x1="977" y1="1430" x2="951.5" y2="1430.54"/>
	<line class="st14" x1="977" y1="1597.77" x2="951.5" y2="1598"/>
	<line class="st14" x1="951.5" y1="1430" x2="951.5" y2="1598"/>
	<line class="st14" x1="1469" y1="1367.91" x2="1644.5" y2="1367.91"/>
	<line class="st14" x1="1444" y1="1324" x2="1469.5" y2="1324.32"/>
	<line class="st14" x1="1444" y1="1547.49" x2="1469.5" y2="1548"/>
	<line class="st14" x1="1469.5" y1="1324" x2="1469.5" y2="1548"/>
	<line class="st14" x1="1236" y1="1098.91" x2="1608" y2="1098.91"/>
	<line class="st14" x1="1211" y1="1055" x2="1236.5" y2="1055.32"/>
	<line class="st14" x1="1211" y1="1155.77" x2="1236.5" y2="1156"/>
	<line class="st14" x1="1236.5" y1="1055" x2="1236.5" y2="1156"/>
	<line class="st14" x1="1136" y1="1228" x2="1161.5" y2="1228.32"/>
	<g>
		<text transform="matrix(1 0 0 1 783 1285)" class="st9 st10">PUNTUACION</text>
		<text transform="matrix(0.9613 0 0 1 986 1250)" class="st9 st10">GANADOR</text>
		<text transform="matrix(1 0 0 1 986 1323)" class="st9 st10">PERDEDOR</text>
		<line class="st14" x1="952" y1="1272.91" x2="926.5" y2="1273.22"/>
		<line class="st14" x1="977" y1="1240" x2="951.5" y2="1240.31"/>
		<line class="st14" x1="977" y1="1316.82" x2="951.5" y2="1317"/>
		<line class="st14" x1="951.5" y1="1240" x2="951.5" y2="1317"/>
		<line class="st14" x1="1161" y1="1271.91" x2="1645" y2="1271.91"/>
		<line class="st14" x1="1136" y1="1328.77" x2="1161.5" y2="1329"/>
		<line class="st14" x1="1161.5" y1="1228" x2="1161.5" y2="1329"/>
	</g>
	<text transform="matrix(1 0 0 1 1689 1992.75)" class="st11 st10">ACCIÓN ASCENDENTE</text>
	<line class="st14" x1="1209" y1="1989.12" x2="1645" y2="1989.12"/>
	<text transform="matrix(1 0 0 1 1689 2614.75)" class="st6 st13">CLIMAX</text>
	<line class="st14" x1="1411.15" y1="2600.36" x2="1645" y2="2600.36"/>
	<line class="st14" x1="1412" y1="3273.49" x2="1658" y2="3273.49"/>
	<polyline class="st14" points="1469,1609.91 1644.5,1609.91 1644.5,1470.5 	"/>
	<line class="st14" x1="1444" y1="1566" x2="1469.5" y2="1566.32"/>
	<line class="st14" x1="1444" y1="1666.77" x2="1469.5" y2="1667"/>
	<line class="st14" x1="1469.5" y1="1566" x2="1469.5" y2="1667"/>
	<g>
		<line class="st14" x1="1184" y1="1751" x2="1209.5" y2="1751.32"/>
		<line class="st14" x1="1184" y1="2290.77" x2="1209.5" y2="2291"/>
		<line class="st14" x1="1209.5" y1="1751" x2="1209.5" y2="2291.5"/>
	</g>
	<g>
		<line class="st14" x1="1386" y1="2411" x2="1411.5" y2="2411.28"/>
		<line class="st14" x1="1386" y1="2878.87" x2="1411.5" y2="2879.07"/>
		<line class="st14" x1="1411.5" y1="2411" x2="1411.5" y2="2879.5"/>
	</g>
	<g>
		<line class="st14" x1="1386" y1="3001" x2="1411.5" y2="3001.4"/>
		<line class="st14" x1="1386" y1="3670.09" x2="1411.5" y2="3670.38"/>
		<line class="st14" x1="1411.5" y1="3001" x2="1411.5" y2="3671"/>
	</g>
	<line class="st14" x1="1234.38" y1="624" x2="1234.38" y2="757.5"/>
	<line class="st14" x1="1234" y1="896" x2="1219.5" y2="896"/>
	<line class="st14" x1="1249" y1="830" x2="1234.5" y2="830"/>
	<line class="st14" x1="1249" y1="896" x2="1234.5" y2="896"/>
	<line class="st14" x1="1249" y1="963" x2="1234.5" y2="963"/>
	<line class="st14" x1="1234.38" y1="830" x2="1234.38" y2="963.5"/>
	<line class="st14" x1="1079.35" y1="2763.42" x2="1066.85" y2="2763.42"/>
	<line class="st14" x1="1091.35" y1="2668" x2="1078.85" y2="2668"/>
	<line class="st14" x1="1091.35" y1="2763.42" x2="1078.85" y2="2763.42"/>
	<line class="st14" x1="1091.35" y1="2720.42" x2="1078.85" y2="2720.42"/>
	<line class="st14" x1="1091.35" y1="2827.42" x2="1078.85" y2="2827.42"/>
	<line class="st14" x1="1091.35" y1="2878.86" x2="1078.85" y2="2878.86"/>
	<line class="st14" x1="1078.85" y1="2668.16" x2="1078.85" y2="2879"/>
	<line class="st14" x1="935.85" y1="3172.42" x2="997.5" y2="3172.42"/>
	<line class="st14" x1="1010.35" y1="3029" x2="997.85" y2="3029"/>
	<line class="st14" x1="1010.35" y1="3124.42" x2="997.85" y2="3124.42"/>
	<line class="st14" x1="1010.35" y1="3081.42" x2="997.85" y2="3081.42"/>
	<line class="st14" x1="1010.35" y1="3188.42" x2="997.85" y2="3188.42"/>
	<line class="st14" x1="1010.35" y1="3231.42" x2="997.85" y2="3231.42"/>
	<line class="st14" x1="1010.35" y1="3273.42" x2="997.85" y2="3273.42"/>
	<line class="st14" x1="1010.35" y1="3334.86" x2="997.85" y2="3334.86"/>
	<line class="st14" x1="997.85" y1="3029.16" x2="997.85" y2="3334.5"/>
	<line class="st14" x1="935.85" y1="3546.42" x2="997.5" y2="3546.42"/>
	<line class="st14" x1="1010.35" y1="3462.42" x2="997.85" y2="3462.42"/>
	<line class="st14" x1="1010.35" y1="3419.42" x2="997.85" y2="3419.42"/>
	<line class="st14" x1="1010.35" y1="3526.42" x2="997.85" y2="3526.42"/>
	<line class="st14" x1="1010.35" y1="3569.42" x2="997.85" y2="3569.42"/>
	<line class="st14" x1="1010.35" y1="3611.42" x2="997.85" y2="3611.42"/>
	<line class="st14" x1="1010.35" y1="3672.86" x2="997.85" y2="3672.86"/>
	<line class="st14" x1="997.85" y1="3419.5" x2="997.85" y2="3672.5"/>
	<line class="st14" x1="1659" y1="317.5" x2="898" y2="317.5"/>
	<line class="st14" x1="1659" y1="480.5" x2="1588" y2="480.5"/>
	<rect x="2277.5" y="338.5" width="365.5" height="24.5"/>
	<rect x="2487.5" y="776.5" width="229.5" height="11.29"/>
	<g>
		<rect x="2277.5" y="617.5" width="365.5" height="2.53"/>
		<rect x="2277.5" y="632.45" width="365.5" height="2.53"/>
		<rect x="2277.5" y="647.39" width="365.5" height="2.53"/>
		<rect x="2277.5" y="662.34" width="365.5" height="2.53"/>
	</g>
	<g>
		<rect x="2277.5" y="2013.5" width="365.5" height="2.53"/>
		<rect x="2277.5" y="2028.45" width="365.5" height="2.53"/>
	</g>
	<g>
		<rect x="2135.47" y="1620.25" width="127.47" height="2.53"/>
		<rect x="2135.47" y="1635.2" width="127.47" height="2.53"/>
		<rect x="2135.47" y="1650.14" width="127.47" height="2.53"/>
		<rect x="2135.47" y="1665.09" width="127.47" height="2.53"/>
	</g>
	<g>
		<rect x="2310.09" y="1620.25" width="127.47" height="2.53"/>
		<rect x="2310.09" y="1635.2" width="127.47" height="2.53"/>
		<rect x="2310.09" y="1650.14" width="127.47" height="2.53"/>
		<rect x="2310.09" y="1665.09" width="127.47" height="2.53"/>
	</g>
	<g>
		<rect x="2484.71" y="1620.25" width="127.47" height="2.53"/>
		<rect x="2484.71" y="1635.2" width="127.47" height="2.53"/>
		<rect x="2484.71" y="1650.14" width="127.47" height="2.53"/>
		<rect x="2484.71" y="1665.09" width="127.47" height="2.53"/>
	</g>
	<g>
		<rect x="2487.5" y="824.86" width="229.5" height="2"/>
		<rect x="2487.5" y="849.16" width="229.5" height="2"/>
		<rect x="2487.5" y="873.46" width="229.5" height="2"/>
		<rect x="2487.5" y="897.75" width="229.5" height="2"/>
	</g>
	<g>
		<rect x="2203.5" y="410.5" class="st14" width="513" height="171"/>
		<line class="st14" x1="2204" y1="581" x2="2717" y2="411"/>
		<line class="st14" x1="2716.98" y1="581.27" x2="2203.5" y2="410.5"/>
	</g>
	<g>
		<rect x="2203.5" y="776.5" class="st14" width="260.25" height="189.42"/>
		<line class="st14" x1="2203.75" y1="965.37" x2="2464" y2="777.05"/>
		<line class="st14" x1="2463.99" y1="965.67" x2="2203.5" y2="776.5"/>
	</g>
	<rect x="2487.5" y="1231.58" width="229.5" height="11.29"/>
	<g>
		<rect x="2487.5" y="1279.93" width="229.5" height="2"/>
		<rect x="2487.5" y="1304.23" width="229.5" height="2"/>
		<rect x="2487.5" y="1328.53" width="229.5" height="2"/>
		<rect x="2487.5" y="1352.83" width="229.5" height="2"/>
	</g>
	<g>
		<rect x="2203.5" y="1231.58" class="st14" width="260.25" height="189.42"/>
		<line class="st14" x1="2203.75" y1="1420.45" x2="2464" y2="1232.13"/>
		<line class="st14" x1="2463.99" y1="1420.74" x2="2203.5" y2="1231.58"/>
	</g>
	<rect x="2207" y="1012.16" transform="matrix(-1 -1.224647e-16 1.224647e-16 -1 4643.5 2035.6145)" width="229.5" height="11.29"/>
	<g>
		<rect x="2207" y="1060.52" transform="matrix(-1 -1.224647e-16 1.224647e-16 -1 4643.5 2123.0376)" width="229.5" height="2"/>
		<rect x="2207" y="1084.82" transform="matrix(-1 -1.224647e-16 1.224647e-16 -1 4643.5 2171.6355)" width="229.5" height="2"/>
		<rect x="2207" y="1109.12" transform="matrix(-1 -1.224647e-16 1.224647e-16 -1 4643.5 2220.2334)" width="229.5" height="2"/>
		<rect x="2207" y="1133.42" transform="matrix(-1 -1.224647e-16 1.224647e-16 -1 4643.5 2268.8315)" width="229.5" height="2"/>
	</g>
	<g>
		
			<rect x="2460.25" y="1007.39" transform="matrix(-1 -1.224647e-16 1.224647e-16 -1 5180.7534 2204.2002)" class="st14" width="260.25" height="189.42"/>
		<line class="st14" x1="2720.25" y1="1196.26" x2="2460" y2="1007.94"/>
		<line class="st14" x1="2460.01" y1="1196.56" x2="2720.5" y2="1007.39"/>
	</g>
	<g>
		
			<rect x="2135.12" y="1501.21" transform="matrix(-1 -1.224647e-16 1.224647e-16 -1 4398.1255 3100.2102)" class="st14" width="127.88" height="97.79"/>
		<line class="st14" x1="2262.88" y1="1598.71" x2="2135" y2="1501.5"/>
		<line class="st14" x1="2135.01" y1="1598.87" x2="2263" y2="1501.21"/>
	</g>
	<g>
		
			<rect x="2310.65" y="1501.21" transform="matrix(-1 -1.224647e-16 1.224647e-16 -1 4749.1709 3100.2102)" class="st14" width="127.88" height="97.79"/>
		<line class="st14" x1="2438.4" y1="1598.71" x2="2310.52" y2="1501.5"/>
		<line class="st14" x1="2310.53" y1="1598.87" x2="2438.52" y2="1501.21"/>
	</g>
	<g>
		
			<rect x="2486.17" y="1501.21" transform="matrix(-1 -1.224647e-16 1.224647e-16 -1 5100.2158 3100.2102)" class="st14" width="127.88" height="97.79"/>
		<line class="st14" x1="2613.92" y1="1598.71" x2="2486.05" y2="1501.5"/>
		<line class="st14" x1="2486.05" y1="1598.87" x2="2614.05" y2="1501.21"/>
	</g>
	<g>
		<rect x="2654.67" y="1620.25" width="127.47" height="2.53"/>
		<rect x="2654.67" y="1635.2" width="127.47" height="2.53"/>
		<rect x="2654.67" y="1650.14" width="127.47" height="2.53"/>
		<rect x="2654.67" y="1665.09" width="127.47" height="2.53"/>
	</g>
	<g>
		<rect x="2203.79" y="1874.5" width="215.44" height="2.53"/>
		<rect x="2203.79" y="1889.45" width="215.44" height="2.53"/>
		<rect x="2203.79" y="1904.39" width="215.44" height="2.53"/>
		<rect x="2203.79" y="1919.34" width="215.44" height="2.53"/>
	</g>
	<g>
		<rect x="2498.93" y="1874.5" width="215.44" height="2.53"/>
		<rect x="2498.93" y="1889.45" width="215.44" height="2.53"/>
		<rect x="2498.93" y="1904.39" width="215.44" height="2.53"/>
		<rect x="2498.93" y="1919.34" width="215.44" height="2.53"/>
	</g>
	<g>
		
			<rect x="2203.21" y="1756.21" transform="matrix(-1 -1.224647e-16 1.224647e-16 -1 4622.5513 3610.2102)" class="st14" width="216.13" height="97.79"/>
		<line class="st14" x1="2419.13" y1="1853.71" x2="2203" y2="1756.5"/>
		<line class="st14" x1="2203.01" y1="1853.87" x2="2419.34" y2="1756.21"/>
	</g>
	<g>
		
			<rect x="2499.87" y="1756.21" transform="matrix(-1 -1.224647e-16 1.224647e-16 -1 5215.8701 3610.2102)" class="st14" width="216.13" height="97.79"/>
		<line class="st14" x1="2715.79" y1="1853.71" x2="2499.66" y2="1756.5"/>
		<line class="st14" x1="2499.67" y1="1853.87" x2="2716" y2="1756.21"/>
	</g>
	<g>
		<rect x="2203.79" y="2269.5" width="215.44" height="2.53"/>
		<rect x="2203.79" y="2284.45" width="215.44" height="2.53"/>
		<rect x="2203.79" y="2299.39" width="215.44" height="2.53"/>
		<rect x="2203.79" y="2314.34" width="215.44" height="2.53"/>
	</g>
	<g>
		<rect x="2498.93" y="2269.5" width="215.44" height="2.53"/>
		<rect x="2498.93" y="2284.45" width="215.44" height="2.53"/>
		<rect x="2498.93" y="2299.39" width="215.44" height="2.53"/>
		<rect x="2498.93" y="2314.34" width="215.44" height="2.53"/>
	</g>
	<g>
		
			<rect x="2203.21" y="2057" transform="matrix(-1 -1.224647e-16 1.224647e-16 -1 4622.5513 4306)" class="st14" width="216.13" height="192"/>
		<line class="st14" x1="2419.13" y1="2248.44" x2="2203" y2="2057.56"/>
		<line class="st14" x1="2203.01" y1="2248.74" x2="2419.34" y2="2057"/>
	</g>
	<g>
		<rect x="2158.68" y="3198.32" width="184.35" height="1.9"/>
		<rect x="2158.68" y="3209.58" width="184.35" height="1.9"/>
		<rect x="2158.68" y="3220.84" width="184.35" height="1.9"/>
		<rect x="2158.68" y="3232.1" width="184.35" height="1.9"/>
	</g>
	<g>
		
			<rect x="2158.18" y="3042" transform="matrix(-1 -1.224647e-16 1.224647e-16 -1 4501.3052 6228.6411)" class="st14" width="184.94" height="144.64"/>
		<line class="st14" x1="2342.94" y1="3186.22" x2="2158" y2="3042.42"/>
		<line class="st14" x1="2158.01" y1="3186.45" x2="2343.12" y2="3042"/>
	</g>
	<g>
		<rect x="2366.61" y="3198.32" width="184.35" height="1.9"/>
		<rect x="2366.61" y="3209.58" width="184.35" height="1.9"/>
		<rect x="2366.61" y="3220.84" width="184.35" height="1.9"/>
		<rect x="2366.61" y="3232.1" width="184.35" height="1.9"/>
	</g>
	<g>
		
			<rect x="2366.12" y="3042" transform="matrix(-1 -1.224647e-16 1.224647e-16 -1 4917.1802 6228.6411)" class="st14" width="184.94" height="144.64"/>
		<line class="st14" x1="2550.88" y1="3186.22" x2="2365.94" y2="3042.42"/>
		<line class="st14" x1="2365.95" y1="3186.45" x2="2551.06" y2="3042"/>
	</g>
	<g>
		<rect x="2574.55" y="3198.32" width="184.35" height="1.9"/>
		<rect x="2574.55" y="3209.58" width="184.35" height="1.9"/>
		<rect x="2574.55" y="3220.84" width="184.35" height="1.9"/>
		<rect x="2574.55" y="3232.1" width="184.35" height="1.9"/>
	</g>
	<g>
		
			<rect x="2574.06" y="3042" transform="matrix(-1 -1.224647e-16 1.224647e-16 -1 5333.0557 6228.6411)" class="st14" width="184.94" height="144.64"/>
		<line class="st14" x1="2758.82" y1="3186.22" x2="2573.88" y2="3042.42"/>
		<line class="st14" x1="2573.88" y1="3186.45" x2="2759" y2="3042"/>
	</g>
	<g>
		
			<rect x="2499.87" y="2057" transform="matrix(-1 -1.224647e-16 1.224647e-16 -1 5215.8701 4306)" class="st14" width="216.13" height="192"/>
		<line class="st14" x1="2715.79" y1="2248.44" x2="2499.66" y2="2057.56"/>
		<line class="st14" x1="2499.67" y1="2248.74" x2="2716" y2="2057"/>
	</g>
	<g>
		
			<rect x="2656.12" y="1501.21" transform="matrix(-1 -1.224647e-16 1.224647e-16 -1 5440.124 3100.2102)" class="st14" width="127.88" height="97.79"/>
		<line class="st14" x1="2783.88" y1="1598.71" x2="2656" y2="1501.5"/>
		<line class="st14" x1="2656" y1="1598.87" x2="2784" y2="1501.21"/>
	</g>
	<g>
		<g>
			<rect x="2277.5" y="2663.5" width="365.5" height="2.53"/>
			<rect x="2277.5" y="2678.45" width="365.5" height="2.53"/>
		</g>
		<g>
			<rect x="2203.5" y="2463.5" class="st14" width="513" height="171"/>
			<line class="st14" x1="2204" y1="2634" x2="2717" y2="2464"/>
			<line class="st14" x1="2716.98" y1="2634.27" x2="2203.5" y2="2463.5"/>
		</g>
		<g>
			<rect x="2277.5" y="2911.5" width="365.5" height="2.53"/>
			<rect x="2277.5" y="2926.45" width="365.5" height="2.53"/>
		</g>
		<g>
			<rect x="2203.5" y="2711.5" class="st14" width="513" height="171"/>
			<line class="st14" x1="2204" y1="2882" x2="2717" y2="2712"/>
			<line class="st14" x1="2716.98" y1="2882.27" x2="2203.5" y2="2711.5"/>
		</g>
		<g>
			<g>
				<polyline class="st14" points="2759.5,2409 2759.5,2406.5 2757,2406.5 				"/>
				<line class="st15" x1="2751.99" y1="2406.5" x2="2734.46" y2="2406.5"/>
				<line class="st16" x1="2731.96" y1="2406.5" x2="2163.5" y2="2406.5"/>
				<polyline class="st14" points="2161,2406.5 2158.5,2406.5 2158.5,2409 				"/>
				<line class="st17" x1="2158.5" y1="2414.04" x2="2158.5" y2="2431.66"/>
				<line class="st18" x1="2158.5" y1="2434.18" x2="2158.5" y2="2975.48"/>
				<polyline class="st14" points="2158.5,2978 2158.5,2980.5 2161,2980.5 				"/>
				<line class="st15" x1="2166.01" y1="2980.5" x2="2183.54" y2="2980.5"/>
				<line class="st16" x1="2186.04" y1="2980.5" x2="2754.5" y2="2980.5"/>
				<polyline class="st14" points="2757,2980.5 2759.5,2980.5 2759.5,2978 				"/>
				<line class="st17" x1="2759.5" y1="2972.96" x2="2759.5" y2="2955.34"/>
				<line class="st18" x1="2759.5" y1="2952.82" x2="2759.5" y2="2411.52"/>
			</g>
		</g>
	</g>
	<text transform="matrix(1 0 0 1 4115 2082)" class="st12 st10">FECHAS / LUGAR</text>
	<text transform="matrix(1 0 0 1 4089 1122.5)"><tspan x="0" y="0" class="st6 st10">CLIMAX</tspan><tspan x="0" y="28.8" class="st12 st10">CUADRILÁTERO</tspan><tspan x="0" y="57.6" class="st12 st10">(figura con zonas activas)</tspan></text>
	<text transform="matrix(1 0 0 1 4089 1693.75)"><tspan x="0" y="0" class="st6 st10">ACCIÓN DESCENDENTE</tspan><tspan x="0" y="28.8" class="st12 st10">CATEGORÍAS</tspan><tspan x="0" y="57.6" class="st12 st10">(gráfica área proporcional)</tspan><tspan x="0" y="86.4" class="st12 st10">Dentro de una sola imagen</tspan><tspan x="0" y="115.2" class="st12 st10">estén contenidos los </tspan><tspan x="0" y="144" class="st12 st10">distintos pesos.</tspan><tspan x="0" y="172.8" class="st12 st10">Ej: Muñeca Rusa</tspan></text>
	<g>
		<rect x="3504.5" y="1917.5" width="136.5" height="2.53"/>
		<rect x="3504.5" y="1932.45" width="136.5" height="2.53"/>
		<rect x="3504.5" y="1947.39" width="136.5" height="2.53"/>
		<rect x="3504.5" y="1962.34" width="136.5" height="2.53"/>
	</g>
	<g>
		<rect x="3447.51" y="2022.5" width="113.61" height="3.33"/>
		<rect x="3447.51" y="2042.22" width="113.61" height="3.33"/>
		<rect x="3447.51" y="2061.94" width="113.61" height="3.33"/>
		<rect x="3447.51" y="2081.67" width="113.61" height="3.33"/>
	</g>
	<g>
		<rect x="3691.5" y="1917.5" width="136.5" height="2.53"/>
		<rect x="3691.5" y="1932.45" width="136.5" height="2.53"/>
		<rect x="3691.5" y="1947.39" width="136.5" height="2.53"/>
		<rect x="3691.5" y="1962.34" width="136.5" height="2.53"/>
	</g>
	<g>
		<rect x="3370.5" y="316.5" class="st14" width="555.96" height="464.5"/>
		<line class="st14" x1="3371.04" y1="779.64" x2="3927" y2="317.86"/>
		<line class="st14" x1="3926.98" y1="780.37" x2="3370.5" y2="316.5"/>
	</g>
	<g>
		<rect x="3388" y="2022" class="st14" width="49.06" height="63.29"/>
		<line class="st14" x1="3388.05" y1="2085.1" x2="3437.11" y2="2022.19"/>
		<line class="st14" x1="3437.11" y1="2085.2" x2="3388" y2="2022"/>
	</g>
	<g>
		<rect x="3641.45" y="2022.5" width="113.61" height="3.33"/>
		<rect x="3641.45" y="2042.22" width="113.61" height="3.33"/>
		<rect x="3641.45" y="2061.94" width="113.61" height="3.33"/>
		<rect x="3641.45" y="2081.67" width="113.61" height="3.33"/>
	</g>
	<g>
		<rect x="3581.94" y="2022" class="st14" width="49.06" height="63.29"/>
		<line class="st14" x1="3581.98" y1="2085.1" x2="3631.04" y2="2022.19"/>
		<line class="st14" x1="3631.04" y1="2085.2" x2="3581.94" y2="2022"/>
	</g>
	<g>
		<rect x="3835.39" y="2022.5" width="113.61" height="3.33"/>
		<rect x="3835.39" y="2042.22" width="113.61" height="3.33"/>
		<rect x="3835.39" y="2061.94" width="113.61" height="3.33"/>
		<rect x="3835.39" y="2081.67" width="113.61" height="3.33"/>
	</g>
	<g>
		<rect x="3775.87" y="2022" class="st14" width="49.06" height="63.29"/>
		<line class="st14" x1="3775.92" y1="2085.1" x2="3824.98" y2="2022.19"/>
		<line class="st14" x1="3824.98" y1="2085.2" x2="3775.87" y2="2022"/>
	</g>
	<g>
		
			<rect x="3504.13" y="1558.21" transform="matrix(-1 -1.224647e-16 1.224647e-16 -1 7145.2065 3444.2102)" class="st14" width="136.94" height="327.79"/>
		<line class="st14" x1="3640.94" y1="1885.04" x2="3504" y2="1559.17"/>
		<line class="st14" x1="3504.01" y1="1885.56" x2="3641.07" y2="1558.21"/>
	</g>
	<g>
		
			<rect x="3692.1" y="1558.21" transform="matrix(-1 -1.224647e-16 1.224647e-16 -1 7521.1333 3444.2102)" class="st14" width="136.94" height="327.79"/>
		<line class="st14" x1="3828.9" y1="1885.04" x2="3691.96" y2="1559.17"/>
		<line class="st14" x1="3691.97" y1="1885.56" x2="3829.04" y2="1558.21"/>
	</g>
	<g>
		<g>
			<rect x="3272" y="953.41" class="st14" width="752.27" height="417.59"/>
			<line class="st14" x1="3272.73" y1="1369.78" x2="4025" y2="954.63"/>
			<line class="st14" x1="4024.97" y1="1370.44" x2="3272" y2="953.41"/>
		</g>
		<g>
			<g>
				<polyline class="st14" points="4024.51,852.5 4024.51,850 4022.01,850 				"/>
				<line class="st19" x1="4016.99" y1="850" x2="3999.43" y2="850"/>
				<line class="st20" x1="3996.93" y1="850" x2="3277.01" y2="850"/>
				<polyline class="st14" points="3274.5,850 3272,850 3272,852.5 				"/>
				<line class="st21" x1="3272" y1="857.42" x2="3272" y2="874.64"/>
				<line class="st22" x1="3272" y1="877.1" x2="3272" y2="1494.54"/>
				<polyline class="st14" points="3272,1497 3272,1499.5 3274.5,1499.5 				"/>
				<line class="st19" x1="3279.52" y1="1499.5" x2="3297.08" y2="1499.5"/>
				<line class="st20" x1="3299.58" y1="1499.5" x2="4019.5" y2="1499.5"/>
				<polyline class="st14" points="4022.01,1499.5 4024.51,1499.5 4024.51,1497 				"/>
				<line class="st21" x1="4024.51" y1="1492.08" x2="4024.51" y2="1474.86"/>
				<line class="st22" x1="4024.51" y1="1472.4" x2="4024.51" y2="854.96"/>
			</g>
		</g>
	</g>
	<line class="st14" x1="1562.75" y1="398" x2="1588.25" y2="398.13"/>
	<line class="st14" x1="1562.75" y1="558.8" x2="1588.25" y2="559"/>
	<line class="st14" x1="1588.25" y1="398.5" x2="1588.25" y2="559"/>
</g>
</svg>
